<mxfile host="app.diagrams.net" modified="2023-05-02T17:29:10.710Z" agent="Mozilla/5.0 (Windows NT 10.0; Win64; x64) AppleWebKit/537.36 (KHTML, like Gecko) Chrome/112.0.0.0 Safari/537.36 Edg/112.0.1722.64" etag="8Su5WD7SqSUG541BAH9B" version="21.2.4" type="device">
  <diagram name="PÃ¡gina-1" id="SVa4KTFj8ty0u8lQOYBQ">
    <mxGraphModel dx="2366" dy="1372" grid="1" gridSize="10" guides="1" tooltips="1" connect="1" arrows="1" fold="1" page="1" pageScale="1" pageWidth="827" pageHeight="1169" math="0" shadow="0">
      <root>
        <mxCell id="0" />
        <mxCell id="1" parent="0" />
        <mxCell id="Z0XVSoQSKU2gHx4yaWDS-14" style="edgeStyle=orthogonalEdgeStyle;rounded=0;orthogonalLoop=1;jettySize=auto;html=1;exitX=1;exitY=0.5;exitDx=0;exitDy=0;entryX=0.5;entryY=0;entryDx=0;entryDy=0;entryPerimeter=0;strokeWidth=2;" parent="1" source="Z0XVSoQSKU2gHx4yaWDS-1" target="Z0XVSoQSKU2gHx4yaWDS-11" edge="1">
          <mxGeometry relative="1" as="geometry" />
        </mxCell>
        <mxCell id="Z0XVSoQSKU2gHx4yaWDS-16" value="CreateCarContract()" style="edgeLabel;html=1;align=center;verticalAlign=middle;resizable=0;points=[];" parent="Z0XVSoQSKU2gHx4yaWDS-14" vertex="1" connectable="0">
          <mxGeometry x="0.2276" y="-1" relative="1" as="geometry">
            <mxPoint as="offset" />
          </mxGeometry>
        </mxCell>
        <mxCell id="Z0XVSoQSKU2gHx4yaWDS-1" value="&lt;font style=&quot;&quot;&gt;&lt;b style=&quot;&quot;&gt;&lt;font style=&quot;font-size: 12px;&quot;&gt;CarFactory Contract&lt;/font&gt;&lt;br&gt;&lt;/b&gt;&lt;/font&gt;" style="shape=image;html=1;verticalAlign=top;verticalLabelPosition=bottom;labelBackgroundColor=#ffffff;imageAspect=0;aspect=fixed;image=https://cdn2.iconfinder.com/data/icons/vivid/48/industry-128.png" parent="1" vertex="1">
          <mxGeometry x="364" y="410" width="100" height="100" as="geometry" />
        </mxCell>
        <mxCell id="Z0XVSoQSKU2gHx4yaWDS-10" style="edgeStyle=orthogonalEdgeStyle;rounded=0;orthogonalLoop=1;jettySize=auto;html=1;strokeWidth=2;" parent="1" source="Tou3FTFNajK2FCHstHxq-1" target="Z0XVSoQSKU2gHx4yaWDS-1" edge="1">
          <mxGeometry relative="1" as="geometry">
            <mxPoint x="413.7549999999999" y="290" as="sourcePoint" />
          </mxGeometry>
        </mxCell>
        <mxCell id="Z0XVSoQSKU2gHx4yaWDS-15" value="CreateNewCar()" style="edgeLabel;html=1;align=center;verticalAlign=middle;resizable=0;points=[];" parent="Z0XVSoQSKU2gHx4yaWDS-10" vertex="1" connectable="0">
          <mxGeometry x="-0.3035" relative="1" as="geometry">
            <mxPoint as="offset" />
          </mxGeometry>
        </mxCell>
        <mxCell id="Z0XVSoQSKU2gHx4yaWDS-11" value="&lt;b style=&quot;font-size: 12px;&quot;&gt;Car Contract:&lt;/b&gt;&lt;br&gt;&lt;font style=&quot;font-size: 8px;&quot;&gt;0xfb10b426D952E7cb6740Ad0c832a0F48b652742F&lt;/font&gt;" style="outlineConnect=0;dashed=0;verticalLabelPosition=bottom;verticalAlign=top;align=center;html=1;shape=mxgraph.aws3.car;fillColor=#5294CF;gradientColor=none;" parent="1" vertex="1">
          <mxGeometry x="570" y="585" width="79.5" height="79.5" as="geometry" />
        </mxCell>
        <mxCell id="Z0XVSoQSKU2gHx4yaWDS-20" style="edgeStyle=orthogonalEdgeStyle;rounded=0;orthogonalLoop=1;jettySize=auto;html=1;entryX=0.5;entryY=0;entryDx=0;entryDy=0;entryPerimeter=0;strokeWidth=2;" parent="1" target="Z0XVSoQSKU2gHx4yaWDS-22" edge="1">
          <mxGeometry relative="1" as="geometry">
            <mxPoint x="420" y="530" as="sourcePoint" />
          </mxGeometry>
        </mxCell>
        <mxCell id="Z0XVSoQSKU2gHx4yaWDS-21" value="CreateCarContract()" style="edgeLabel;html=1;align=center;verticalAlign=middle;resizable=0;points=[];" parent="Z0XVSoQSKU2gHx4yaWDS-20" vertex="1" connectable="0">
          <mxGeometry x="0.2276" y="-1" relative="1" as="geometry">
            <mxPoint as="offset" />
          </mxGeometry>
        </mxCell>
        <mxCell id="Z0XVSoQSKU2gHx4yaWDS-22" value="&lt;b style=&quot;font-size: 12px;&quot;&gt;Car Contract:&lt;/b&gt;&lt;br&gt;&lt;font style=&quot;font-size: 8px;&quot;&gt;0xBB9bc244D798123fDe783fCc1C72d3Bb8C189413&lt;/font&gt;" style="outlineConnect=0;dashed=0;verticalLabelPosition=bottom;verticalAlign=top;align=center;html=1;shape=mxgraph.aws3.car;fillColor=#5294CF;gradientColor=none;" parent="1" vertex="1">
          <mxGeometry x="380" y="630" width="79.5" height="79.5" as="geometry" />
        </mxCell>
        <mxCell id="Z0XVSoQSKU2gHx4yaWDS-23" style="edgeStyle=orthogonalEdgeStyle;rounded=0;orthogonalLoop=1;jettySize=auto;html=1;entryX=0.5;entryY=0;entryDx=0;entryDy=0;entryPerimeter=0;strokeWidth=2;" parent="1" source="Z0XVSoQSKU2gHx4yaWDS-1" target="Z0XVSoQSKU2gHx4yaWDS-25" edge="1">
          <mxGeometry relative="1" as="geometry">
            <mxPoint x="40" y="500" as="sourcePoint" />
          </mxGeometry>
        </mxCell>
        <mxCell id="Z0XVSoQSKU2gHx4yaWDS-24" value="CreateCarContract()" style="edgeLabel;html=1;align=center;verticalAlign=middle;resizable=0;points=[];" parent="Z0XVSoQSKU2gHx4yaWDS-23" vertex="1" connectable="0">
          <mxGeometry x="0.2276" y="-1" relative="1" as="geometry">
            <mxPoint as="offset" />
          </mxGeometry>
        </mxCell>
        <mxCell id="Z0XVSoQSKU2gHx4yaWDS-25" value="&lt;b style=&quot;font-size: 12px;&quot;&gt;Car Contract:&lt;/b&gt;&lt;br&gt;&lt;div&gt;&lt;font style=&quot;font-size: 8px;&quot;&gt;0x742d35Cc6634C0532925a3b844Bc454e4438f44e&lt;/font&gt;&lt;/div&gt;&lt;div style=&quot;font-size: 10px;&quot;&gt;&lt;br&gt;&lt;/div&gt;" style="outlineConnect=0;dashed=0;verticalLabelPosition=bottom;verticalAlign=top;align=center;html=1;shape=mxgraph.aws3.car;fillColor=#5294CF;gradientColor=none;" parent="1" vertex="1">
          <mxGeometry x="196" y="585" width="79.5" height="79.5" as="geometry" />
        </mxCell>
        <mxCell id="Tou3FTFNajK2FCHstHxq-1" value="" style="shape=image;verticalLabelPosition=bottom;labelBackgroundColor=default;verticalAlign=top;aspect=fixed;imageAspect=0;image=https://cdn-icons-png.flaticon.com/512/1465/1465626.png;" parent="1" vertex="1">
          <mxGeometry x="365.38" y="174.25" width="97.25" height="97.25" as="geometry" />
        </mxCell>
        <mxCell id="Tou3FTFNajK2FCHstHxq-2" value="" style="shape=image;verticalLabelPosition=bottom;labelBackgroundColor=default;verticalAlign=top;aspect=fixed;imageAspect=0;image=https://upload.wikimedia.org/wikipedia/commons/thumb/3/36/MetaMask_Fox.svg/1200px-MetaMask_Fox.svg.png;" parent="1" vertex="1">
          <mxGeometry x="416.76" y="160" width="70" height="70" as="geometry" />
        </mxCell>
        <mxCell id="Tou3FTFNajK2FCHstHxq-7" style="edgeStyle=orthogonalEdgeStyle;rounded=0;orthogonalLoop=1;jettySize=auto;html=1;exitX=0.5;exitY=1;exitDx=0;exitDy=0;entryX=0.5;entryY=0;entryDx=0;entryDy=0;strokeWidth=2;" parent="1" target="Tou3FTFNajK2FCHstHxq-1" edge="1">
          <mxGeometry relative="1" as="geometry">
            <mxPoint x="413.7549999999999" y="120" as="sourcePoint" />
          </mxGeometry>
        </mxCell>
        <mxCell id="Tou3FTFNajK2FCHstHxq-8" value="createNewCar()" style="edgeLabel;html=1;align=center;verticalAlign=middle;resizable=0;points=[];" parent="Tou3FTFNajK2FCHstHxq-7" vertex="1" connectable="0">
          <mxGeometry x="-0.1554" y="-3" relative="1" as="geometry">
            <mxPoint as="offset" />
          </mxGeometry>
        </mxCell>
        <mxCell id="Tou3FTFNajK2FCHstHxq-6" value="&lt;div&gt;&lt;b&gt;Automotive company&lt;/b&gt;&lt;/div&gt;&lt;div&gt;&lt;br&gt;&lt;/div&gt;" style="text;html=1;strokeColor=none;fillColor=none;align=center;verticalAlign=middle;whiteSpace=wrap;rounded=0;" parent="1" vertex="1">
          <mxGeometry x="341.01" y="10" width="146" height="50" as="geometry" />
        </mxCell>
        <mxCell id="Tou3FTFNajK2FCHstHxq-56" value="" style="shape=image;verticalLabelPosition=bottom;labelBackgroundColor=default;verticalAlign=top;aspect=fixed;imageAspect=0;image=data:image/png,iVBORw0KGgoAAAANSUhEUgAAAcEAAAGxCAYAAAAamQ0pAAAACXBIWXMAAA7DAAAOwwHHb6hkAAEAAElEQVR4Xux9BaAkV5V2VXdVtdtzG7dM3EOEBEISLMECLO6bxSHLAosvLLbADyyyWCBAkCQkgQAhIe5uk4zLc213Ken6v3Orq1+/N0/66byZqQpFz+uuunXvqar73WPf4TlrO+wkoGmaXZZlby6Xa/H7/UN2u13Wdd2G7yVFURySJGWwy1MNDOcEcIzH7XYnBEGQcY6rWCy2lEolbygU2lUul3VRFNXDTihWh48YCeTz+fNUVb0onU5f3NTU9BOHw3EHBpdNJpNn+3y++/DcKlMNtlAouPFsr8YxB/AcB/BOeHiet+FYZzabPRfvSRq/O7E97HK59h8xArMGsiAJCAs62zr5kEgAL7OGC6cwSdDL3YQXOgXQy2JyKODF1wFqDZgQUvi7RB0EqJXpEwDop0kAxxMA0m88jm3CZ8nr9UbR7pSTyyEZpHXRo1YCeDYjWJT56LnG5xY8l0/bbDYNwOYGqNkhmCmfU/zmxB5MpVKvwbHNeNa7CAzpHLwDKSz87sbi0Q1Q7TtqhWsN/CAJWCB4mD4UWCnj3eYjeMmFaDR6fHNz8/O0QoZmV8AuYALw4ncdE4iKf9vw8ntoJw0QE0KJfgOArsIkE8LKeT8mhsxhKgqr20eYBPAcj2BxJgSDwTuw0FsFAFzt8XgG8cwS+ElY57Hnd/Kw8V0A3zXh3FOxqNuJ82+il4Q0Qjq2p6fnQ6tWrfok2rMWe0fYM7OQ4fALOdk6d2VIAFqfH1peM0yjg9AImfYHgGuoaHk8QNCPVfUQzEBpAkDSAGFa2grgi+K7GCad4soYidULSwIch4WdC8/vpQC+HoDgSVik3YbFXBTP8xo8txcA4Lbjue0mCwYwjnaOzKAwo56DRd1WHL8Ni72n6TcAoAu/daC9YwKBwJ/xrA9aMrYkUCsBSxM8Ap4HAFwaEwABXzO0vTD5AzFRxPHyZ0hTpEkC2qEDE0eW/IYAzVYAYAx73ALAI+ABOPKGUAZ4cdhJi7ORBohPO57f/QAyO4DxPGhzKhZ0EQy9DKtICM91Cz478Nw/g/dhG84p4hw3QHEDjj+5sbHxKjzrw0eeqKwRLVQCFgguVIIr5HysfNMAtzL2ICaDKF74MiYJMo8SAEqYQFI0qQAsWwGMdmiNvSuk61Y3LAlMkACeUzyyWgDPaSsWdRvwI/kByWql4znfBauHHVrhJuz0mxPHBbHga4P5814s7A4AIEkD9OP3Y/G8rwVw/tUCQOshm04CFggeQc8GVsBZgCCHlW9XIpGwV3yEZALNkPmTzEwwK2VhLiJTkrVZEliREiA/djweJ20wgGdYwDN9Okyjd6GzFOmp4d/bAY5jFQAM4fcToAE+AQsI+Q3pPC8F1AAsN+FZvwULwGdX5ECtTq0ICVgguCJuw+J1AivhHIEfVsBNMI9uBvj5MTGoWA2Tn4TCwimggKJLrc2SwIqVAIDr+Vgs9q7W1ta7R0dHXwGA24fFXDcWchxFiuJviiBtJq0Rf8fxWx+ec0oV8hEA4tk/nnyJFgCu2Fu8YjpmBcasmFuxuB2BOclGfpTpcqoW92pWa5YEFlcCMG9SQMvpALOXIn/1QQCbADN/GWZ80ghlAB/ZTCWkQ1yExV0fQDBKOYH4rgkLv4uhGd4Ly8jTi9srq7UjUQJkXrC2I1ACMCmVLQA8Am/sUTIkgFoBIPYoNLknAYQb8TxzlAcIMFxfSYAnjZACZihlQiA/IMyfp8FMSlHSf7cA8Ch5UBZhmBYILoIQrSYsCVgSWHwJUFQowOwRAOAA/NxnwNSfhP/vtEwmcwEFzlD0J+UAEhhSYAxMpTYs/Lpx3N7F743V4pEqAQsEj9Q7a43LksARIAEAYRTmzocAdhkAIFGi7aZ8QGKFQfTnyQBAFjuD77aSHxEA2HsEDNsawjJKwPIJLqOwrUtZErAkMD8JQPPzUyoEtMCXA+hkAF+OND9sRK3mRKDMToDgnvm1bp11NEvAig49mu++NXZLAoeJBIj8GqBH7DAxaH3H4m8Jew4+QAHa4d8sADxMbuQK7KalCa7Am2J1yZKAJYGpJUCED/D/rcK+Bv8WoQmGYS7dbsnLkoAlAUsClgQsCVgSsCRgScCSgCUBSwKWBCwJWBKwJGBJwJKAJQFLApYELAlYErAkYEnAkoAlAUsClgQsCVgSsCRgScCSgCUBSwKWBCwJWBKwJGBJwJKAJQFLApYELAlYErAkYEnAkoAlAUsClgQsCVgSsCRgScCSgCUBSwKWBCwJWBKwJGBJwJKAJQFLApYELAlYErAkYEnAkoAlAUsClgQsCVgSsCRgScCSgCUBSwKWBCwJWBKwJGBJwJKAJQFLApYELAlYErAkYEnAkoAlAUsClgQsCVgSsCRgScCSgCUBSwKWBCwJWBKwJGBJwJKAJQFLApYELAlYErAkYEnAkoAlAUsClgQsCVgSsCRgScCSgCUBSwKWBCwJWBKwJGBJwJKAJQFLApYELAlYErAkYEnAkoAlAUsClgQsCVgSsCRgScCSgCUBSwKWBCwJWBKwJGBJwJLAMkqAX8ZrWZeyJGBJ4DCTgFrWpUwme14imbooEPA/IEmO53xux9BhNgyru5YEppWABYLWw2FJwJLAlBIoyGrLwMDANzLZzKsdTrdHUZSSIAiPbd6w/i0O0R6zxGZJ4EiQgO1IGIQ1BksCK00Ciq6LJV13yuO7A99J2IWV1tfp+pNIJF4XjUbfoZXLjTqNQ5YD2C+JJ+JvOlzGYPXTksBsEjhsXsjZBmL9bkngUEqgXNZtqUz6TPQhpCja6v3dPZfmC/n1elm34zu90jclGPI/2j3QlwwGGm7zuD3PcrpegFZVOJR9n+raiqYLg4MDW50OSdA5nisVi5zdZuP0cplLxOOvU1X1amiF+ZXWb6s/lgTmKgELBOcqMet4SwI1EoCGJMbjmdft29fzoXwxdwrP8x740XhoT1xZ17GXJ8hrbDRyAplfEvHMlQCStNPp7B4ai/7R7w/cKorCAafAyytBwKKdV3v6BlSzLxgX8NrEcnxLX1ibJYEjQALWg3wE3ERrCMsvgZKiNSWTqTckk+n3ZXK5U40ejAOejjeLIIM+gRjsH+yfFVDU8SuPA+g7wha73RYLhUJ/x/6rkM99//KP6OArxuKJy/oHBq8ql8stJgDabHypq6P94y0tLT9dCX20+mBJYKESsEBwoRK0zj+qJKBoZXcqlb48Ho//ezabO1kHuOmmUqQbLnad0A0gZwJhVZtiipTphi8boFi7AQ2hDSaDId+vm5uav+dxSP2HUriyojoj0eg7I5HIuzWt3ATlLxsKBf/S0db6fw6HI3wo+2Zd25LAYknAAsHFkqTVzhEvgUwuf1J//8CP8/niuWWtzNns5O7DK0QgyDS/CggyAKwxHdJR1T/HQbBWYPQimi+jqspcIBB4oK2l9Utuj/M+pyhMtKkus6QVVRVxSTtAUBPsdmWZL29dzpLAkkrAAsElFa/V+JEigXQuf87Q0NAPY7HEqQ6nEwAocKqqseHxPIFhjTF0irdqEiYeJBbokwBBwCiCT3gbzxUQiOIUxd5169f8q8/nvUvkZ2vh8JO0quluBBOd7XI4D7icUj9A9pCC/eEnQavHiyEBCwQXQ4pWG0esBIqqKhWLpRcjX+6n+WJxrQ2Ap8FsSX48nietblyHM/x/xmb4/8a1u9kFVDGhkhZZZmZRTlMVzuGU+tpaW74cDPhvcgpiavZ2Do8jRsbC74/G4+8vycpGUbCnJFHc1tXV9SmHJO2QBPtENfrwGJLVy8NUAhYIHqY3zur28kggns5e2j809GNFLq4mcycFiDCdjUygDPXGXyETBM2Al9l0t9qXj1qdbEI1dEtmZE10drT/V0MweKNLkg57tpZEMn1J/9Dg74tyqYlGx0OmJAuXy/nE2jVr3upzu/Ytz921rmJJgOOsFAnrKTiqJFAql10aV3ZB1RAx+dpo/hXtQgKTsAKTYzUlgISSLSonHjjQ/S1FVQwAZJBkACCbtictIU3QM7XAqQRbe8oEkGRhosYZ4xqlcQ2YXUPDw6OfLWu6CBaXa2AyjToE25xNhzA/2gHiDkrrwA4fH6cgKpVyFDXkAC6L9qWqZee+/fv+HeZeBNoAANmISaPWkYtYOiMMDRF/fOKoeiitwR5SCVggeEjFb118OSSAfD3k7XGBcCTy3h07dr4LINOk6WWHrpWBg0j/VtR8Y2PjHWPxxB0+r+8RAEMGIOfq6+3/cqlU2kpxnCxPzkQw+sfkNLka0+dMGuBs2uFEeRjaJvpD5tfWaCT+tkAgeI/TaS8W5bKX0AMuxBI+y+hfHrl9ByXdF2Wl0SEK6Xgyc+mOnTs/hWMDSOwPYdh2mFzjXq/nUXyXzBfln7oc4j4KflnKe4KAIreiqBtInpWkEQP1IRjKHpFL8uairAacknDEmH6XUp5W2wuXgAWCC5eh1cIKlkAmmz+jr3/oXdFo7PVIYG+xw9dW5jT49cqcrhlmOABaQyqVeXe+UHqp15O5x+v1PZ3NZs/O5Qqvrhxx8Ahr88aXafwlWT65t7fvhx6P+7lMKn02Liu6XK4D+CwFg8F/ABhvFwQ+QRoexlVGOkdTNBJ9RzgcfTdy/TbhOIHAx2azA1ghh3K5GXmOW8jEm0xm3+31ev8Of+cVUBFzSzYkA2RLTOs1FxWTI2lJ0bY2SwLLJAHLJ7hMgrYus7wSSGUKJybiyffGYtH3QMeA1sSTumTMrrVBiJTbV/mb5mIbmeiwQ1sxFJTK3zo7Zmqq3cnaHfublLjKkGvn+7lJYaLFc6IH0mzJOAaAJiN3bycA/BGfz/+YJEljkcjY2xKJ5BuQ4C6ZR9N4RFFiwTeqRtZfCvKh3WgH4+/dsHHDe70e1/2ibaJ5eG59n/po0LGJY2ORT4+MjPw3LlY5yMiZtAOc29vaPtrc2Ph/dsG2pBrpYozFauPIkIAFgkfGfbRGUSMBcHc27TvQ8xdocucy2GOmS1sFBOnvmvnVBEHG6EL/2RgQ0jkUrALTIftcuSBoMM4QpydRtdHmcEhZt8vTm0ylj0fUJajbaLwGJIPvk5l2zfQOQnoj2Edj7QBMKTJ1eN3aNf/m93luh4l10WnccgVlY3d3980IjDnWuG0GCIJL9eE1q1a9z+127rIeaEsCyyUBCwSXS9LWdZZFAoWCvK6nt++PuULprFrNbZy9xQhvMbZazc78zoBCu2BnDjdNg+kUZlNuhrgRMxoUaMNaNWNcJlKnGVecm0+wHpFVNcGKm5L8l8bYCNRsLJHf6BcRYNOYVIyJ/ViT3mEAJSJkoB0KMJUCmMJrVq/+j8aGwI1QEm3FQnEzImTbx5M/OMXn8z0hivZkPb2cfEwskbkIVSreoqnqOmh9aQDzaCgYvKEhFLhjpvagwfKyrKxCNYtVGIcP5xXAv7pbFISopT3O505Y51ggaD0DR4wEEFDR2dvf98dMJvdCnauwuVRGN+7bM9IOjG1qEDQFQlqTAYTQsiogMZWwqsBWIZimvxnUVt6uCfmDS+LtMvIWjatWwk1qCK9hDoUPEKAODRek3VM63GrJsUulAucGIYBe1jKtba0/lkulFkRzHp/LZY/DNRwV9NREURxraGi4CXyn13s97kfgcJzT6OCzdKItAf0jbVOFL3LGiNd0On1yvlB8aSKZfF86nVmHBQoSCnXV6XKFmxobf93S1PwDJN2PHTEPtDWQZZGABYLLImbrIkstAUQ3dnT39l6XKxTOA+VKlcKMr0Ug1olxjW+8T6Z2eLDXrQqEzNxIJsOD5/lqQYVJmiC72jRpFIstD7NfDAJN8EVfCfhIq6U+EtXb5KoWk/tB5lCmPTIjcEWrpSAikiix2dTgHMmD1E5JFAowu965es2aj/sdju7FHhu1p6iau29g8IeJeAw+XtJ2sYAhn2IlSpe0XI/b9ceO9vbPIc+wZyn6YLV5ZErAig49Mu/rUTeqGNhH0tnceTZBNHL4zK0yaU/UUaZa+1XzHybIjsyDMCSyiEoCBRUsLtWmJ6VJ1AbCsGMO8RKTQIuZNilUtA4AZF02g4cqnWd6M6UzEIgyj2nNxnynHIc0DORecpcNDA0rOU17r8c+PxPpTA8tNMCT8vnCheN5mgynDTFT3/DveDL5Zkly7Csq2jedc6jRmFNKLcV8YbNDFKNup+sA5Gbxox5FM4hVWf4outlH6lBz+cJxCAJ5n8vtqSazl0FvZiS4GxGhExLQ2QRfS3lWqwGaWqHxSVGTBISkQdmQr0dgOO1mNjN1GOeSir96yQrwslSIanCPocmx3LzZ9kp4kBkmZDQ3PjBDphVNm9HGGTIGxhIIvQ7ll95WRCL+Yg+2UMgfl8/n1hpk5WbgEmNbNXYW4MMj1SP1WvgGJbXOPozGo6/p6en5w4HuA7fs37//dvDDfgYmY89i999qb+VKwALBlXtvrJ7VKYFsLndBPldop0jOcfXLADlDKzT26r8pIpSVPapFrekvRqZGCpChCEwBeYbkXzvkat7k7jJwMCHL+GRFfdHnqUy4dQN5BTSZr5G1P76TXsiCiKBtspqINoHbv//AN7K5/Hl13rq6DwMwhVRFMVJY2ALG/KzcW3RAECS6TycMDo58fWBw5PMjkfjrc0W5XVbLU85zRU1xR8LhK4qFwkuQnuHHNVahRNb7QZCwpu6OWQce9hKwzKGH/S08ugeQKxY3DA2NvNzIdavx97F/Gr4tc6taJ83IlSlFN7UNk/LqECfKwm3IxKjrytzAha41p7CRud1X5suD+ZNtNUOYEwDO7ZKVo3ExjMvAYEovsXsHBwe/XizrFzttfH5eTU5xEgDYMFHWMM2Yt7s2t57WQWPh8AdxvzRZLpVdTueBjva27yu6/gvQ4k0IvCEA93q8PYh85aBlcg3BEJdJp5tSqdQLcKWdi9V3q52VLQFLE1zZ98fq3SwS0FStJR5LvNCGSE4y+gEJmLmMTIEs0R0aHzPtTQagKQMZJ9sza7UedAQzbBnlk0gjlOwi6FcQcELt4nuWJjHbvoR30wRBpAuwXEDq43wA0FxMVBcVRK5aGRdzvE3Yaew0bpKvkWOJskjEAXpCHkw9izlcwcZHcE9l4/Lmgof6hg7UBCuxoBlopKj1aAebjoiH4JhoPPGeUkntmtwfhAwpSknmVeRb+DxeLp1KcWDNeQKpH48sZt+ttla2BCxNcGXfH6t3s0gApqtNqL8XoMOMidvQFpZqM02jpBJS1CWHuBkWJTlF1OhS9WGqdsEQgyR5B2OCQUoDJ8N0yP5ezn5VtW/OB7Pia9HP+xZLBgC0pwPBwL25onLJ5DZr7/ZUyjbyCk9JJpOvKGn61Q47T1yrbAMRgFJUlC+AmzUFmW1EOw0dHR3fobzDxeq31c7Kl4AFgiv/Hh11PVQURVLLuhsTOMvahkZXBLnzQaY1qAWe/v7+8+3QfCihXUcuHxW4pZJEpomDTYqTSh4tVKBVIERDtUBYTZWY4QJLAUp0XQI8UoSLpSKzuhIoLt82HgnEzKJ003QdJOW6bbbcv9o+AqycROyN+60hAKkkCDY9ny9KYJCR/X7/rsHh8LWF4thp0McbjYAnIyeyFgSpNAbTFFmajLHhd3F0JHxFQ6jxBvxZBUH6DYWLY/j4DHyJ1Az0R/uESiLLJ0PrSodKAhYIHirJW9edUgJ5udQcScRfEYvF3wj+zg4kUmeDwdAdiUzmDqp4IPIHUbcYkYiVmdDIbpu0MR9gzZQ4Ydqc340wgZDNnBWNcLYcvPldafaziHOTthz8WmQWNQJ3lnmrir0KSdQJWovMmACPKE4xk86el0omX/b8zp0vB/WbV0CRXVEQI8/v2p3D718paeX9DlT2CDU2/KWkKV3QMq+AFRTmTbLT0jjNiF5z6UM2Wvra7AtzWjrBETut+wcyo0YsAFzmx2YlXM4CwZVwF6w+MAkUy2VpeHTkvYgw/ELA53ezeRXTEpigz8N++YnHH/cyfDNSIy46pEoESj5AeOkM3yCbIA/2GU2dLD+/G0BAqICBBZRdBhCiJ9NFY9ajJdbbC3YN4vismEAVWeEKhQILjKkGx9Tb2NIeN2MoEMDN3z84/KV4PPFuiDJEvlweaSiwAnAqxkTbrr17XwxGmt9D1v8OWplUW1vHd72+wCMJLJKgNYbsYJtpamp4YGhw4JuFkhyg6FGWGsIiY43oWErwb2hquAfsscXFHm4qm+nEfbCNjY29C6b5Lr/Xd09HW9u1C7mOXNZsks0+53qRC7nm0XyuBYJH891fYWPP5fPHUtUDr8fnpsmQ/FsGkTVb7W9JpFKXKHr599AGzRV7dfU+nuRNNJ+UE2dof4ZmOHkuXlyfIXFxktpjamBETWZu7EqL5KM02WAY2AF4yQRK1zKo0Iw8wEO/VWVdhGly2koQpAEOj4U/HInHP4Y7RmsXbONGbMCXMRSeD8STqQ/ut4vKqq62L3hEPoNv75Q1/W6jzCJH1GmOQMDfUhgd+6RdtHuJSHycRo5SJ+w9AMrfOiUpvdjykRwObWRs9COjY6MfR9uOcDj81v6BgZbOjo4fVrTLui4JC0hLOpt5MUA7FI3HbMlMehcS958DEw+Za61tCSVggeASCtdqem4SgC+wOZfNbkA5IIPk2UAQKHQs2sWB305vbAjeiD+yFWyRwRu5vRSOlkVBMmbQKhDUgt/EVIm59Wr2oyf4CGGKLKPv5JdazM0EQOYDAwiaPkDSAAl8Dy0AGmZJWrSAbxT/1kpej+fhmcYPBphTRkZHr1TUMly65L808xDNezgR0GEe/5jkcPbh1+9Ru5K9mu5AKw61UCp+X7QLwyic/GFZVU/AkgAKIV/w+TwP+X3ef7gcjqfqvR/Q6AKoJ/mCQrG0mc6BrLs9Hs9TAKQxAOqEGwsCBQUpFRfjWg6KyhVtdg+CcF63qqvrh/VeL5FJvxCk71/IF/IvgQzZcywK9nRLY9P/4p34NjhaCfitbYkkYIHgEgnWanbuEsAklsQSHrxnxHlp5J8ZmwFimGigcI2rO8j70vKK+rfBgaHP4ee2iXkQS6v9TR5dLRCSmRKTFzPFLZYWSCIwtUpGE4a2C/n8CgBAUxKs8BQLTnK7nE9D8/r9dE+AVtbt+3p6rsRtbqJE+4mhLeYdnwiCdDdTqfRlpbL+U4eNL0xuG6kZpOVdlSsW7kHKzKtB9SYgOGjQ7XE/I9mFA6BEq8vfB7na4HO8ZGBg4EswpLbQdaBpKwjMuR+1Dv8Xfz5ae23cdzI6aFSyih1r+GQzaIcGNiv9WlGRG/r6+j+Rz+UvNp50Y9xYSPlTqeQ7goEAyXHP3N8m64x6JWCBYL2Sso5bcgmAD7mAkgJpaH5uM5DFIHM28BABICn8PWFikQT7sA+FZFE78LVGB2sDYJa8yxMuUBssg9U7Rwwni6ERmjmApAEysy/QIw8ANAitD7UJdFzexGdNhYs7Otr/F3P5QUBlCgscoJuhLV1AVtB6N7IGqKXSBk2lAsnTt+0B9yd+/25J1QSHMPdIT6SWdPYPDH4N661N5HelzeF0cSVZuSgaiyVhoXhesNtzZr/hg8wAbJ8vFAtUXcOFKFPJ7fE8iILFdZkCFFntQnWMCxgVXE3AFkX3Qk5rMtksSoJZIFjvczKf4ywQnI/UrHOWRAJOl2OgoSF0w+jo2BVOt1siLUFVjOR0gMq+QCBwO/yBE4IbNAVBD8HQ34pF+XSlrK1ipXBr4+YPmoomB9Uv7lAIoMiUSy8WpW4gd6MaLDNfwKI2DTJsOyucSz7AlREAU2tyNv6NaF6oRja5wlE3JRDAbJgFeNjqjfywEW8rEJbXFJ+uqgSCkdnu2nwAkNocGR37N6RXbGJlftmjYsf9pOAavgl0cOeWSjJphz3m9RHAUoKf+n3pTPpMfCdJghj2uT11a26QFjybNpdh+Bhf0KSSaWoM11YbZhur9fvCJGCB4MLkZ529iBJwCVIqV8h/0+VwHcCq+w2I7vOjRI7m8nj2ol7cjfDLPDb5cg7JpmTzyv3OZGqHWsivWoTshwWPyARC8tVR+gKZuBaSUE9apekDLJWgAbIcuLoUjQWPZU4NkCZY1vhYLPovAVSlx7lVjam2HQB4Hh475eAsv1mupnMSNK3gnPo0x4PxzFXar5jjaxRtMsdjARKY3GQlbeegZ7OeS6NNqqUInx9PmmR1c7ndoHBLUQTwUD3tWMfMXwIWCM5fdtaZSyABj8s9pJa1/21sbvodpnkJE74swscCs+eEJOfaS0OzyImikLbJCEqh2ne0iK9ghJkqZtQVXD7TITONMo3NCFohMCQgnI82SBogaX8I2KhWhlgC0S+4SQI16iuCSi5HlCT5zr4/VaPEAwqzNtx7xq8zyYSyQumuVT7Bg1Cu34Y6jxFRjiLVJkS6BWdnZN0VjRDPj9Pj2oMFyaxa6Fwui/ZGGkONd8STiTfDllx9RItY7DQ2NjzmdrmenUt71rFzl4AFgnOXmXXGEktAsLEIvOhslynKZRfMZC4QaP8HUisuxwxcJ87Va4ibrQcz/06DMIGPwIHqErKkjTojR418N4MrE3ycFO9oJHywFJDlA/S5SKHSL2F4ZPg/kdrwZEMw8ODk86EJarCGKvyEqh91XSWBo6bULiefjVxDRh6D/5uTygxrwxOoWr8DfTyOSdsMQuX5lMvlfBwa+WhdPa3zIEmyJ5LJ7NVaWeXwDL8IpmTSCHVQxD3T1dXxFfgGycdpbUsoAQsEl1C4VtNLJwFZ0R1IDzitr7//f+SSfA5hAksirwDF1Feu9WHVAuHS8sgzrZBVbKcSTjSxGtGdtZsZ+UnfUVUDp9MB0CMtEgn5VEIISXG0rSwArNWua0GZ/Lh8K8CEIh4PAkEMRUO05f5YInmMkd948N2aDF0KfKstrU1/8Pk9u2Z6qnCcK5FIvWbnzt3/Csah0MDQ6NVItr/e664PvEIB/61IqXhq585dN8qKugbqvJ4vFMTVq1b9X3Njw6+QnD9t7uN8n3avz32nx7f2gTVr2TO9mm4zLBtjbqdjUbXO+fbvSD/PAsEj/Q4foeODdtQ4gJI9iMA8h4JEjFqC9W6s9MFEWi126tJpV0z7Y+UYyNdk9HUqQKPvHABAVEhnpl1M5BPBckVqgKbcaGxk0kNgEIKCEPV4saqWvwUO0Kr2hvEEh0fD74fJ9OXT3a2p7oITeX4Bf4C4P2fcEFT1QSrlBPcdC6waHh75XjaTPQ08pu+qRyuEHxdENvrw5s2bLy8pcif6okIbGxJEMY4GpzXJz9avmX4X7IwKkAK+aH9+IW1Z585dAhYIzl1m1hmHWALQAp3wOb23UCy+kABQo7Lm5L8xZ8+KH4kBzUF9Nb+hz5oTqsctHRASUJN51AGAA88LK9Q7eWNFamHWJQ2JNMB6TaeH8pYwiRk53kbSPAEhA3B5Nfy7PnzLQBDgIg4ND38oGkt8ApG8UHNn1sCNFAX4GUWh0NDQcC0YVJ6daZyyptp379r9OklyIoDGqK8I/54NpOIvhFZ6Ms59ph45VbS9ARxL+5y3oqqiMIUdUbIVkeBmos25rNLmfE3rhPlLwALB+cvOOvMQSQA5cmdgUnsbTbikLZm+MhPTlg7GFjZgAjaW5qAZfKO01ZpFyZ/GxkI+QATBMARfqYOpFQXT/sYTvc1xIbfPhaGwgZKPLpvLnQK/11uQQgKeUFNrnF6mxAWrQA4upzeM6OBrHRI/Y8I72FbskCeuaaSUmBv+DmJB0VkvCC7kLsvlsr1Ykrdks8kXQAM9HW3ZdE2zo6bhzeRvdDmksYW0b527+BKwQHDxZWq1uIQSwGTKDwwOX14oFTabiePjs93BoDFjEfkl7Od0TVPuIAEc+QgpIZo+FVmmIrCUC8n+XQXGwwEA2UBNtDaUHcO/SZZfm0Jgh3sm2PF3NBZ/C6jIjiXeU0Ntn2aA1ahRY5HDjMjg1Z7tdoEVRn5u+/YIsy5WAoqIYABqWRSaGaPam25DWS7ibrMDP6mrGmjZpk32n6kdqlsYicY+lMlkX4T76GCRwTghk0m/weFwPpVIZb4UCvgO8pPONjbr96WTgAWCSydbq+WlkYCEieZljFh7UnAJm3srrr5aM+JKwhIFWqAN5k4CuiIADxGHzERKqRQMECtVKWgsRgWEldT7aW4o66IR6EPmXFR3AKiTpsep0Gw1KIq2bEleH0vE3yiC9JuZryupB1SN3twmGwwJC8ENiyLBSls8mb0If/5utkeqqbnpt4N9gyfbbUIL0ddhwYH6SeKQ2+3eMflcOP9c8E2egwoQVzy/fcdWl9MFLY0vNjU0XIfn54+Q/ZyCYGStHDjQ3f0+mOlfyoKaKiRojMBB5wKlUvHCoaFBIV+U3+p2SoOzjcX6fXkkYIHg8sjZusoiSQCTiRdBMe2ToysnNm8yMJo+wamA5NCAiwnOhi9TI2osDiw5zP8HzkpoLULVD3hYACAJvhLvUwUzFv1KEaLwDtpslA8oQjM6E2wr7W43ODaJ/QXgNwcnmRSPx16bl8s3uSXbQcWVa+99S3PztZJdioyNhd+bSWdOaWtr+3VLS8s1Lqc0IdKyUFJaRsfG/nVkZOST0MIDpDFmcrkTqC309eW5QtOx6P7nkaZSdz4NAoEuRE3HVxglnen5qpAaVNCdfKXQhM+PRCLvxY9fXqRXwmpmgRKwQHCBArROX14JjI2N/iuAxF+ZeyfUTTUmHqo6YWiExoaJqIp3NdPu+JfsmOXYCABZRXTmszKu6HaDlxLmUVUlbXC8Fh79driAIJO6KdqKrMvQ9pqamm4kHMSvlPjpsKNaBKzZ7B7VUoTNJHvWLHAIxNx+aJiUQzcjCCLHlLS320EucAeAlrcLU7OzpTLpSwCC/wmNzUsLD1M7pd7BBGuPRqMfCgWCt+DPh+p5NkpFuXnPgf1XgmJNMMp/mVUxwBZUkQnuLrXOZQvFF8D8ipqB9QNsPX2wjpmfBJbn7Z9f36yzLAkcJAE4h4Q5RUyyecbc56B7zCJ7w+w3ub3xa+k0cQMZiAREw1vGdrIQsnOYeYyBHIEfgSBptj6fn3MBFFmAjOkvW7wuL+vThFSDNBK+/4GLEuF5xf5pJP6Tl4/GPztnAEX9mrsGscDOWueGFA19OgBUdF0AyIGWr+wlXyxVfqCGKZyTtDibXQQo6v5ILPYOCuip55Lw52YBvB2k3h50yyhylu3VltxmwFA9bVvHLK0ELBBcWvlarS+yBDARYjac1CjTLiay8E992UnqCjtnfq8ARXFSlKfDgWoRqgzgqlCiMTXUAEMTCKtXRccVDbEimHh9Ph8CYSScqzAthNqS5RIzizINsAKYTHus7HWgxiJLe27NUT8pP5A2BP082uj33wM55RnWq5qLglyI/o2RGtSOa7rLVH2N5BstlwRxPN9wbj2beDTMss1Im9iCgJkJpme2+Kg8XMT7Ch/e8UiYD9ZzLZi2qYIEiqAYlT2o6hfPi5N2+g6gq8g+TVOM2kvWdsglML8Z4JB32+rA0SoB0KTNGOV3sFwMzWt8pyMW7g8kf57T6eSyOeqOrgPAClqZMtuZTsG0QOO/SmI+60OZczqc2B0APJmB3lS5gkSXxiZjplUsVBWcPPapnpzFOcaOYBhaEGBMI+3t7d+RAXROnqU1qKgAcjd4MHcS2BvasCGnae9XrQYPWeL8eyTwVy/Kcw9ERR88BuAZhtnxWFWzb+xKyHHU63IZwaeYRy7jP8gUapiHp5KpMV4c92e3JNVF/7Yo47UamVECdd1gS4aWBFaKBAA8uw3PCk0oponJADVzSjUAyJjgJup+BvcmO5ZRmBn/Nr+dCzSWMZnzAsob8Xxkzdq1n3A4pO50JnMWtEAfAlxeo5bVLpjX/GBMkShxnMrxUAqEy4VEeWClIsNKiOubBNtGuocBfiq0RQJLwOSUIFnPvRiXyCSgqfGFknSQxM2hajvVABwulkptACmsM2qmhaqzb/p2DCcsS4bnCoV88sSTjnuN0yk95wA/KPXVaeNVMLbsdDqkZwD+FHDC7o1ROJl5z6r3odpvZi82gFIUxKjX663LN1ePbECMXUCXUY9ZYYFIZroG5WGw6xOQkdlWUwVjKTL7BlacYiqTuwblll6D2oPtxgqGTh1/qoqFEqJdxWTA7ydfo7WtEAlYILhCboTVjfokgFD353BkAjNMyAAwU2OqnW/GQXCiuXPSfGbOTzXOqXqBkOrbIUUj1tXV+aVgwH+zS7Sli7r+KDQMsaWl+SeYYDuKsrIhm82diQrwZ+WyuQuQKM2pAD/SAClah/hAJ/sV6fpkUqQJmkCTNkRZzkN5ZSE4DEQmbuMjZMsEmCabmxuf6uzs+DTMlL6B/sFvybK6qZpszubx2dsxQI1Lb9y44cqgx/345LsJyjItmc19t1DouQgmxtap+jYRuKvLFa4hFPq5y+XaVt8TMvtRVBS3saHh76Ph8L8zGRAQkwV6wnOgc6jq/ncsUuq2PCDIaRv6+uPR8Nh/o03mYTTkbxjcnA6x2Nba+g2HJG2fvZfWEcslAQsEl0vS1nUWRQLI/0rQhEjJyJSLxoIPJxizaid9M8CEVuWVyZ+0xKm0GwAN0yCJuxPmSvLNMYg1FEqWyydAa2CBFAAoHJj3+X1/aGlpuhraHjPTwfRHkYlaHgdgoou4JOe2gNd3C0BvUzQS/UAmk/mAqiAIg4ruIvjCBECja8Y4qPdUykdW4GdUQRkGQCQ/mnmsoTWx4rVopxInwhSqSUBVg+amD9VQTMi/RpMyxkp5iDb++fXr110BDXsPzdpr1q6J9vf3fxfjP8P0b1HwDgOJSkNE/4ZoTYOVhWm5GlhdnCPBYOCnTY2haXP5gl7P090Dgz9HMvlnoBEKRB9ntGEYjk3ANizBdI0y5/V6bgs1BK9y2IQZo0Ln8nCJdl4DefcdqAZ/bqFQPItppibY073GeESH1NfY2Phrh2iv+7qi3ZYvyMrPUZ0+mE6lX4F2msjkABq8JOS70+t2P9DZ0fz/oAHXpV3OZUzWsfOXQL0L3/lfwTrTksAiSyCRzL68u7v3bwAPMHzQI0z5WJjBafKs+JL4CpclfZrmTjbNVqI2DdgBiNCX+ADw5T0e945oNHIafgGpCfg7ySRWCeKABgpTX5Hy3xRUQLgDPqq/t7Y2/xph7jMyixR1lYxrYiGbP7u3r+8XiqZvYtdGv9ilKxGJNAbgWmUzwI3q2dFBRh/It2iaDdmIk9Akk6igsZaCOCjPjeZWOs7IoTRMceN/U3oeovdxEVaVAk2DxuvvnZ1d/41FxbPQZKm4K9tSudJxkUj4ingi9k60HyAyb2rHCGYhjcbNwJTkgern+VAwdG1DqOEPMAk/7naKKBA7/YYEdTeRXIfDkY+jn50ErIbWOW46NMgDeM3hEB5Yt27dFT6ne98iP0KcqpeFdCr14rGxyEdy+cK5MAOH0Bd6VEp+f+Ch1taWb/r93jvrId2eqm/5khLSVCWABUcZ5twkIlWzgpUSsdi3cVHas0BwUcRoNbKcEijJZd/I8Oj/IIT9A0TCbGqDZVpgM0J+QGIVBMcT5xnsMRCsBK+wyRYVKIBMLc0tv2xpbbkqnUqeCy1lfSwWezUm/RC0BEJDzNdlGWCxp7Or8+vw6dwDWq0pJ/uSztANYYEM4oCZqs0lOEuZXGZjMpn+l7FI7EvoB+ycRi4ZheSXmWZGWW2mFA1FgcxzzFRX+dpIq2B/lNvbWj4VCjXc0tfX99V0OnUptCrk0BkAWIaWVt0q4MVOxFDoUpjru0Oh4HVNTY2/Cnjc+6e6dwWlHCwWC8fCv3l5PBZ7A072QBYU/Vi22aQ85ZZDHs+gjT+CBuw2gEUVROt5FlK5/LGpZPoVYP+5DKCMhYFuVlZPiZK4D+3+rqmp4QbJJsyLvqyePtAx8NW6SrLcXiwWV0NCVJBSgda23+1yDNfbhnXc4S0BCwQP7/t31Pa+VCi39w8O/ioWj7/MCEcHFRkDQaOyvBHigP8n4KD/KuZQOka3aZwGoNArCeqNMLd1dXZ+FfX+kmSqIoUApqwAwLCVsIhiVaBtpWjHH2lUuWcBH5O3olYOpVKpV6RTmXMDAd9jgaD3Dr2s5Z2CM2lMuJpvb/f+X2fSudeRyRNhKfgWDDHoO0spr7yNjPqStFDqIz5ZtGgFAenfMJE+CBPmeyWHfQiY5ymCjxMUKVcUC4XzYHpdZfrwCOANfxcvY4/BBHsAwPlnaLJ3utzOHWQWnO0BklUNOW067VSZwYtPVP4RMkZQjT3pkGwzan6ztZ8vlprgg2zDiEUE1axCAMwz8K0NAVTrzgmc7RrW75YEZpKABYLW83HYSiCdKZ40Mjr6k2QifTb5uQjgePITVkCQ8VKSGbEChDRQBoIsehS5eSDqJL/Pqq6OLwKUxpyCfd4Tr1zW/DDR/gxaxcXgumxETcCsx+3467rVq/6NSLEdDhcLsEDR1LV9fQPfzuXzryvziIwhAKyYck2fG0bCzI5luBqppwTo9KIChPMww/4SIfa/B1A8C/BzI08xg35T9CVApLgRuW0boH4GAFYOaG4iBWhAszmAtlNul2c3ADx92N5wq+OWBJZAAhYILoFQrSaXTwLJVP408ER+PplKXQrwEwSRQGU80o+lHVRD8JlySFUFoAnqIyBK/h5A5bqg19W/0B4PR6LvGxsd/TY0syA0JRb5qQINAbDva2psuIboTsxroFi5s29g8Iu5Qv6lilo+lUizGdgBwKn6PCWVG8BNn4ZJFCDd397W9j8trc1XCwjxX2h/oeGBeYdieWBARvOQkwbXYg7BHbNqhwu9tnW+JYGVJAErOnQl3Q2rL3OWQDDgfgo+wndnstnTw9HI+6EdnQP0aDdytIzgEtKwyFdGUX+Y7EsIgvl7c3Pzj3w+70MOOz+laXOuHUG0pBtpDT5JdDLy6EIuT1GgYrEor4W5z4v2qmZDu8BTBfHPZvKlX4O/8uNIo3gxNLi1MJc6GX8ognLINioKdkqo7oXv7ZHmpqZfNyBgY679mur4kqJ44Ec8Lx5PvhapG2fhYgIYbB4NhUI3YnFwez2mSBW+UlVTA+RohIlWBkhn7Tzj7bQ2SwKHlQQsEDysbpfV2akkAL9UErEt98MP94iiao2jI6NXIB3hNTAHNgKIiGuUR1mdHMyCfZIk3rN2Tdc3MXEvWJuq7YsbSfxet+cA/GSb0+ksS3MAmBQQMbmfTJZT9dvnduzF9x8sqeUgQHB9IhG7BH9LpBPiU/V53Y8DnJ4EMCah/S0KwBRV2T0wOPhZFLd9DxL22xwixaMgwS+dPh4lgJDsr9Hq4Z/TPWkASXs4Gn7HvgP7XpHP5U8DcDeiaHoROXW3R+KRPzc3NN9kPaWWBA4nCVjm0MPpbll9nVUCmKR5KHw0s9MCzwbLokBeQJZ6BgovYFMJASHIVl/craQqjUODQ99MJBL/IgiSB6wwRX/Af0NnR8fnEGm4YmrHpQu5rfv37/8TchuPI9OrUQZwPPXC53f/cf2Gte8WeOEgGUGDdI9FIh9JJJMfLsmlLlK2WXQt8iYRAISUC293R3vnxxtDwb8trnSt1iwJLJ0ELE1w6WRrtXwIJFDJ6yJz44StpMq8Q4CStUSbQxBjsqZ+NhDw31GS1S4k1o8i0ftet3NlhdrDbPwCEEgfR8n6RNnG/I9G/Cw+y1y+kD8bGmIz/jgIuHHueZFI9CMQYicVja2QjMERi6LsaAdm3/XDw8PfSKbTI0G//8klErXVrCWBRZWABYKLKk6rsZUqgaUEQHPMkl2IaHr5BgKVevxqh0JWYJ9pItYb009a5c1kORqoAmFnlaoOqnAAc7PU19/3cqRJdFJQq5GxYfLXGGw39P/wbx6XyaQvxj8tEDwUN9i65pwlYIHgnEVmnWBJYHoJIBBn3mkWyyFXMMsUa+kD6JoGMw6hGlmMbRGA21TBQkIhXzjVoLuusPNUO2yAIG3UDoDwvOUYi3UNSwKLIQELBBdDilYbyyYBLTPstPs6inoxDIJPUKAUZQFEmxKoUDTOLoCUUwLRJdLNUbnbKOVKLkGUtnUgwd2Bsj5lhdcV2WYLdMyJ4WTZBrjEFwoFg7fHo/Hd8FkeY17KBEE7EiWCoeANyEdMHtQNKInwIzaZZZ7MUk+1x5Gt2el0waRa3Ey+2flSji2xCKzmLQlMkIAFgtYDsaIloBdyNlSipeqzQuS+W1/x8Ff/33k3v/I1J/zzZe8OaL3hLS5wHVP5n2IhbyeGFaPALQVssORybpXo47KazGVCzozcGhjRGwKR1ccd92zu5hvudp+w6Rmuo2mEd3Ye5ENc0UJZQOdA6r0v1BD6TXg0/HEAGTHisEhWmElz4My83u/z/UUSxIMrJzDKGkZKamSfEKtNldDNILxmuiBj2kYapqEaLpkPdgEisE61JDBBAlZ0qPVArDgJKIlRn1CKBPoff/Tigbsff3HykR1nFPZ0b/SVYli0GQwqjA6MTcaMY8xILq/wjkEDMcZE1Q7IzFfh36Tz8gjiiDgD+Ap+MQSQHnfsCX3iRaf+7cTXvuJXXKM/wq8/bsVEci7VjVHAJpPPF05CmsQrymoZuX5EGh28w+2WtrmdUnSq6yrIYdx/oPtXCHp5M5EBEEMPi7mtAUI6jypstLU3/2h1R8dHUWvRAsGluolWu4smAQsEF02UVkMLlYCejIncvu6t++664192X33t+0p7u1tsDoGDfsehMi3XVQQ5NP4i9GPlb/D00icV2GUqChioGX0oJmeDAM1QWYieGino7D/UT+AyVE0BAGi3OZFAD6D0ubg9mSjXccEZz5//9jf+vOFFL7yVa2od4IPNR6zJFEDIlzXdoWussFTZ5bDPmjaSSKfO2X/gwI04tY24Whn9Tk3VPLofVG1iyzEb3+BzOG+0QHChb4R1/nJIwALB5ZCydY1ZJaCP7m8YvfuBy373H5/5QUe+6PeD3JoSGmDj5FBhllGIEXSVwflsEEobWqBZ79UsiGpUw8FPNCGbIEnUYxXNRYB70FXNjSNtkOec2Iv4PebSuWGuyAlbjhl+2ze//R7bmaffx4eajhpT6Ww3KVcs+JFU/6bBweFvIsUiZINGiGhYZnbOFwuomu5idQ5RpPfrTQ2hr0i8bVZgne2a1u+WBJZaAhYILrWErfZnlYCSSrr6fvrdL1737e9+ar2s2ZoLJU4k9xOBIOJbbEAzRnlNAMcscAaltFGI1diqJYcQE0O6nwmEpCkyQGQAil8o/p+BoBHESfniBIVUgknFvzX8MyP5uL2ci/v4r378VvGlF17PexpY0dyVvIHGjCm8bKg0Luamo+K7ixutCrBrBCPOZalk5tJSqXQKTKJNiDj15/I5zu31MHMo9sFjj9lyvs/p6lnJMrP6Zkmg8q5YgrAkcOgkoObj9tidD7z2rg9+/Hd6POxoRBCLl4q+Tko0MEDNIMcmra4CfQYAsu8IxxCeD+aSgXUN2XRJ5ETVKbmLRcmBAq0w09kQOMNLOFUqqVyDz8Pl4gkkxAErRJXzayrnxm958HaGC6CVgd+weOLa4Xf/5uqL+c0n7Dx0Epr+yrKmgwM0fWEmmzsf1SlOAj9qCDRxKHeECoU8n3dIYi9AMOrz+h7wBwP3ok7fCEyUiwLoRVltVRWtBXIP4Lqb9nd3/xSgKKEwMZLmS6ObNqy/KOjz7ViJcrP6ZEmgVgJWdKj1PBxSCQjuBu32d7/nrWIk63BBJ0OCg2HirICb2blKGVxDzamQY1cPJM2HHFsAQqEpoFxx028v4Ro2dHOyHzQmKRenI40inQ5FRofXZkZGV+d29xw/0t2zOdPbvzY1Gm6x5+PSsU54CQGEKilUAFsvfI8NTpCS7tt/MppfUSAIRHegIvp79u0/8AYAz9myojrJJGmsao1SvbQpinwKachIifhXh9u1PRAK3JLM5292OlxPOxdIHeeUhDG1rMdxGQnq53OoLn9mKpV8bT6XQ81h38Mup3vPIX2wrItbEqhTAhYI1iko67ClkUA50h/64xveuw7lEwzu5kps/ZRXo59Z4D1N8jCIVoz5pk1fJb8eRc4Eg1EFqRCSr2Ny4vpTDEMTo8IJyHvjMkWf3N236ZHf/PaDB/50zVs3g0xaKymcCEqwVW1t3I69B9q0cKJJiZZsYpNjRSTBx5KZy7Y9t/MbALjjmJ+TBQhR+aXx6FgDDI1lBNVUdDgQAFQuHx+LJ45PpjNvDAZDv0/mi78Mup29C7mrgo1XNKjXWplzoFzUL/w+713ZbPYY+AR/7xDti6JxLqR/1rmWBOqRgAWC9UjJOmbJJAAOSs2pIV8BG2W3G968yVttyhmb7dkET0eSYZS0QMPvB/+hzQfdxJefAgCrjfKhNpqgaaegl4h+YGTv2Zs3HrjlK5//olDUuM3HbOF2797PeRr9nB5PtawEAATa+EbHwh/s6+//IPycq21I9QCwsfUA1UdkGxOLCX/GQoH+X6N6hRQ5C20R0aDrEonUJwg50wX5e37X1CkR9d5w1FEqo6Jv0eV07MC+Mxjw/QXgWDcAgtA7pBTVDdDjJVTc6JMc4ohkl1bEgqNeGVjHHd4SsEDw8L5/h3/vwejC5/I+mw4/IJLdTXAbH1ht7JaR8mAGtTDfIP5ETAsLaOFhyuQLyHuwe+dUJonf0B7V77n3rqLT9cVzNq/hBvtHuJZQkCugzdJotP1QC1ku675wNPqu0UjkQ6iXuIpxf1aWCza7wPQ9I0fSCAIaX0dUAooAgBRRa4AiCgqXdReA8MOiKIZLuv5DB88vCHQEOzNgzzkSNFeShWgs8sZYOPYxdDoAX2a4ta3lG2jr+kMtc+v6R48ELBA8eu71yhypLvLeXNEvluPw6YkG4QgrfFTV8wwlh+ZZ4rasSc6maE+a9dn0jn+qqMxedEjgvTSdhnMY8uqm4bYTj+0J7x1Yl0wmOAlVFlAplpOHw526ghhIcekSv0tKOZDN5s9UFLUDw8GVkLsHvPJ4PNucLrE3GktePjoW+SB8f6tEVv8PoF8zRGYSrWKfCYjG2Bm+UaAtSx3BIoEdSkWGOX80Gr8SQS1CVtaukwRbhH7BskKGJjdBHS9p5RAqSKC6hNxBJ2uK6kGdw8dQ7/Ap5BrqgmCbV2FiFOUNpVKZV6IvW6lPdsHeXCqWTlxsEIxEIufl8/ljWltbb0JNSfJjWpslgaoELBC0HoZDKwGbXS8Ws06RTbuUD2ikQVQUm4P7Zto+q9O+Yfar7jo5F+cxJI8nnc1kveVkhgu6A1xezrHcxOjYcNtqLUfIs+j5gtFM5qxcOvPS3t6e8/P50imqqgUBVhSZQ8ocyG60TCAUfDJfKBwLPs420gAr1k78akbIzjxWpjsbK4uaA1n2BAJnlDUAiM/jp5ZcJrsWBwATy/xoNHEboknvwmJERQX6i3fu2f0xRJ8eC83RQQWKlVKJ8zjd3Sgk/ASA5ccwzz4CTbNuE+h4R1iYL+owVTfzZs7jBk59SiwWO6O3t/drxWJxA/YtOOqTi9a41dARIQELBI+I23gYDyKXcymlosgKtNLUT1RnZqZ77exI+X5mZmBV8zEmdppJDUOqudUHEBOkpqn2VDrpdpZVDvUATQpMLp2MBaGFTuWonLfQC2VNRO29zYODQ/+VTWdfRmqfgX1wjTKzrqHgQjfyIx/vQsp1pMR0WiAAo+Z4XawJzACiWiBk8iSaMy2YTGY+RcAG/lAWaJNMpF8fbAw9iD5hgVI8A0GzHkl0ViSMPEtoo7KqrZfT2fVpVIxYtXr1ZzMF+R5JEocddrAZ1LkF3K6xvfsP7CplC2fiFIdSLo+43O66SjAVSrLN5Zjdd6hpGqVwuAVBkDE2a76r894cTYdZD8XRdLdX4lhtmGjzORSxMyMaaztpanhTY5AJB0zbqXCIMgAxcHGOm27z+fwZvRz1kJZFbZOvMTo20oQi8aStzNnnNVUHippmR17fhd0Heq4qlkpdDgAKVWdnqt80PSYWlnLZADOTH3WOg2OHm2ZT81oGJvJcqVjknIggJRCk9gVRsMdi8Qso7cLpdFRrBxo9HL8njJ1H5zpHRka/2rWq69P4ccfQWPR0ji9ToJMSCPjudUjOfnEGn2NLS+sv3E7PXuqJy+3Y4Q/4H5xubLIs24pyaXOhUDwBNQuLmVz+OVEQo06HmJvunFAodD9++3I0Gr2oo6Pj/+YjN+ucI1sCFgge2fd35Y+uf/cWoZr8Pt5doyaBGcxhRH4aLKE1aFmxDZpaIA9mUMQ8lg1i5zlu3lCK9wSSANE2M7aEjJL5VMojxbMetJaZY4tTHl6S5a39A4M/BvJ1SQAeUvnYWCt9rrjs2LnVorWkCVZ+n+yZrIJiFUGnR9ODAJSJEjG58BmWZKSGSMSlqmIvc5JIbK06Et9Jpiz0tnI/jM/atshX2dvb/zv8kAVbjAuaM3CdL4XDQh8+B2Pp1NcDPu8DAm8/SEsM+r07NUXfQ9o2mGF1AfWcppNzJB5/x+jo6GcA5p0wGJRA5N3vcDiekeXyxyTJNuX9gQmX+F//XtkX4xZabRxhEpjHivkIk4A1nEMqgczIwBrE8E/ZByPt2wRDI+utdjP+qnCF0q+YRnle1mAxnDsKik7Z5nBRQGg1B58AxykKGl8suhdDSKA2s4cjkffn8vkNMNEZTdYQUJuz/2QUIMAhEKyt5ccAcq5gz1Tm8Z3VEazsMIuCohX3AQsSUTIAkFHRVVYEFUW7UrCjck8qvkZDI9RtKKjrhwkVip8dhTxsbpD3bC2V5It7enqvTqVSL9F0zcjon7TZRV6zCbYyTJbTAmA6m1+fSmdeg35sRq88aL8BfT8ZZAHnZnO50xVFX5R7tBj32Wrj8JKABYKH1/064nobi0ZbEQIyMW5jmlFORrYJ5lA6hyZtNs3PHQOhmZU9Xg+0CcZSyoCQQJVCUYqFbGAxBJ8vyMcmYsm3kg/QsNiyLMfKvhhXmLkN06s6/jl+PBs1gBk+NGYWJR+kDaQBE/to9JX5L6v9r/k3A0XS2I1IVEI0u03kUMB37cho+IsIJA3Nd5SInO1ExfozmHe2qpWicGGZWzM2Fv5kOpW+OJPOH1MsKqS1W5slgbolYIFg3aKyDlxsCejlBA9fTbOZIH+wYlOruhga2uSdYV+lY+OgOA8QhP7oDwSTZlkK8gfStZRiwZZMxloWY+yIxHw7UiGDqMDAchorbOCL0fSitUHan6EBwjeIHEQyl473s8ZETdrfpN3Qyk0gJOoDCjfVkcwvcPDjnRtPJF9NGRXz6awgiAlRkCLMfGzuhhnZkcsXLu7p6/95X//AD+DLfP182rfOOXolYIHg0XvvD/3INU7IjkZabKAqm7iZ4Mem0QrMGd+NT8PGGezbCuaZqYTzVAV1VZDkEgWpYKPpn+lBKONUiC0cBBVNd6ZS6QsnmzFrx7N8OuHst94IomG5e8wnaIJjNbhmqiaqJtrKSIySHyRF9gmAeqOiqcHprq6UNUSIqk7stWkT7HCX03nA7/ffSf8+6BkwikO2lBT5RZFY7M2zj846wpLAuATmtSqzBGhJYFEkkNddQw88fV6XaufK1SfRDEuZ6CEzvq3UDzQvbsZrTOzMPNRATKwej/rUF7/Sk3I6uRDUQL4oM8gNCE5OPzC2vp7xqnpZHBkd/Rg0kxegcsOjmLTvkARxH7QpmXBEFKWsqhhkNmbQCwPuyY1XvpjWQVZPZxZwjAl41AQCVVi9QPYd0bTVtDuVT3Lyd+N/M5+mWEHECb2Dr5SHqfi4kbHwJbquuSAROZKM7/D7Aw/aOVsOyfuaJPKFaCR5RyqRuBBRtccjiVJ0ut0a/IF2pFWwZwMUbnbUN/QuYOjWqUehBCwQPApv+ooZMkobkf+N/mNQMCECser8mbW7LK1wERCjpbVtCJnpXAlzNQrCIlPCzhXyaU5NZYOzdYIm8u7enm8nkomPuD0+2+DI8OXBbPa6tavXfhRDS0NJwvwMBk/kAs4Wz1KtojEvOJ+tp/X/TqBH4ZwEgmQalcsUaLmADdkYkxNBIDehpJZXD4+N/kc6nXgDwNaFe6khSGbMIUWfWr927ZWoVjFYVuBltPN3Od2ufwHwnakqShtQ1aUMKx/Q+XILwBauVj4K2U2bLrGAnlunHsESsEDwCL65K35osiz29/d3ddZoRqDAJq6UCiYC2WrArTYQhmlT9HONNmhaRec77o6uzh7Kl6OE/SLSLcgc2ij5OSWabp6tTVzbnslkz0NEpK2QJbYZ1CbMFV5AgaqU5kfng/ElqeukYRqaoLlNHtds11qu36mfZhQr+fUATCxoZu4byydELqJrH0odTogQLZbUzbv27P4TOFGPdbqMhHzIQ9A0vbOQL3b29PTZNqxb+wEoeTFB4AmF99GuyGVXsSS321cJeweHBq8EYLsll2NPYyh0Yz39K5RKTSj9dK4gihlFViRUwbgLOYd10b8heEhCqsZbAdhe0MfdFwgEnqvnmrXHwHTrgUzsTklKz/Vc6/jFlYAFgosrT6u1uUhAlcVgKJDGNORWtBKbKClzYJz3bHb1rgqCzF5KAEplc+e32TyeDAWCFEoFaD9U1R6zMXyE2bFou64WeF5wzdQhHVGQApkPa/xmSLJjXHDE700lH/JIoFMxiSL0chwIZx/l/MazGGdR31i1CgyDxgYkZBGkc90kpF243e7nJVGIQ7Oje0RxNcLQSPh1iPw8lpLyqV0jIpX9ygAR9QkvTCaTFzU3N1EeYnUTJRvZlbuRENPvD3gfgMwlaKw50W5PzNY3ALu9u7f3I2PhsX/FmOxYnPSJohDDeU/Mdi79jn56x8bG/hXX3IiixueAUu4jLpcrWs+5dMxYJPzSvfv3vzmXz23esWf3fVs3b/kcTAQLIjGv99rWcQdLYN4ThiVMSwILlkBO9q4rCP54KUVEmdXmqiEwFIpPVKD4NGjFjN2GHb4iCtZnWhVjEmPh+ZigRY+iyUWDZXqu2ylbnh0pAwCpfczzIiUc6ionDu/egBpEMy4YkRintba0/Ab5cGYFi5Lb7XoAuJEln5ZS5sSW1tbf6TY9AkaVakCPCeJmgI/JGFflCJ3rGJboeNIIgd7wu8FHWAGqGYNkWD8o7tdImcB904Oh0N30LWZ7O3aB9mJR3kymVhvFtmC3YeB0ZyFPdp+Ru+hWQeA9XXkmyW5TPQ5pxCFKAzgmSbKeTQR5udgBs/VlqN3UbhOFFt5mWweC8HNnO8/8nThVIQ/k6TsiuVxuExY2s17TPBeBQZ7h0ZFPleTSa/Dd6QDCV+/cs+vr9V7bOm7xJWBpgosvU6vFeiWglQV7vuQWecIsMrOZkYQM2ip/T9FYJZikFjjoVGT3cRlVtSPvuu5JaULrmD99zc1pZyTnLxeyNCVzZdgyc5Eh5DLOzljd2dH5EzKvYYJ9eUND453BQOA2TObMkYZ8NsHv9zyJCTQN8GifQJJziANh6r1dLI8Q94mIvEnepLmZ6RTTtWEubVCBgh8eGv73tvbWr0LbI22N8aQTUsLUyVIpxtlvTMO2QfSNX2a9n6KdLyuU46iX7WAgmvH4mqIbRggss6zrdS+cAHoZEIdfBdNwy5o1a26GMpmtV4bIdTwGclyNCwcq5zSgP0HyKQusVIq1LbcELBBcbolb1xuXAEirZRA3BxwSEqpp3jKD3425YLKmMZkIpkxJ9tAiFFXh3E43l82VuPWrWwbEUoGcS1wiP+YMuVvrr/4ARdPj9hRQvMFvapploFcyniA+sVnDVDARFzGZ/RIa4TWVSZ450HIFJUATfiKRvBjkYE0TeKxrngdzRl7Jj4jpI2RAiA5rs643jHtJVGyxWOKNgUDweo/X/QStWSBusMSIcUI6YqxxEFPNJCHADxkHMfdAPTKh7BZNVRqy+VwD+lb0ejx9U51nR5tul+vRZCbdBK3WicduFP7Auq5B7QH0qJc/wSLAiX/X/3wZTzU91yVon7LT5cprqhal/lgAWM8dXppjLBBcGrlardYjAUUWy1i900Rq1BA00wWMQAojKYI2Q2dgXqLKJ/1AwRpZ5Bh6g14un85xG1et5eJqyc/1DWzUh/cUSpkUyLlTstMdqNffoqNQXlrjRlrh3INySiwq6B+FS+RylLs264RXmcyqZNvID+RB71WORKNvRvrEJ4EFjYxmzJQPDdv8oxLks5L1AaajVyjfGBDS3xTINONGVTDsFFTTlE5lzgMIPo2bSa2AYq3C0QPBHKwG8RzSJB5Aqsm0pNq1l81lM8cM9A98FVplF56WMZgqP4qajD2Tu+YWpZysKh8Nx6J3IYl/S2Njw+1ej3dbPY9s7TFzB0CO83q9Ozo6Or8xEh57J/yJ6xpCobvWrFn9/ble2zp+8SRggeDiydJqaa4SUBSpDIRBblildBG59sj+ZSTImyV0jRCJ8UhQ8gES56WGskcej5NLJLPcyccew6XDcS6TiDVf9eZ3/i3G2eVTX/2Kv5z+6suv1wf2P8E1NoV5d3AWcxMqzTY3RXT7/k0I3uAoqY0uTOwxSiJD5qs5R/JhkreXCsXNw8PDn8L5G8zE8Qn5dLPqmHMV7NIeT0I0gmWIFg1ASEV7cc/YParJVZk8RvobpZnW4VARp5V7ewc+Hw5H/k2SqJIGg1PsFWsAk4muNzSEbkbR3mQ9I4I/9sV4ao5BPzZgcRUDyLwQ5x0EgtQW8jfJ9HBTAQsxl0iFmJdnE+1CUdbU6xsaG/4C7diBwJyswy4sMPdkefp+pF7FAsEj9c4eBuPKDg2uoXQE0ifK5PapBLiYepKJDcwMWtGSzHJ6ktvBlRGun88Xua2bNnAonMrBxAXtrcBtiNkcG7iyg/vVtW9//s7b/6VbtKdOfsf7fqSPjv6Ak9xpvsE/teoi8KoQ8iUyMNF6gXyGgRYBGphVM/sHN+PPuk1mJP6SoiF/m7MNDA5+1gDAI2sbT58gnx7uIbR6+m5C+sckgLfZbUUAnlooyOsAUq9AVKhE5xCWEpAaEqeN/b8CjTwG7KwrL8MhOQaQ7sBLkjMBM2MGEamDs0l8oQBIRYZRhdENk3wjLQBgVh2WbPYZ+yvZBQJdZl+YrX/W70svAQsEl17G1hWmkcBAX+96+NEQLEl2UFIn6MBKwDKzCRpaAdMwaCcgpB2TZkEuobiryG1Zt4UDyDCfYtmucB4FqGNWaCAgGk5JDblS8+4v/vDLe6+5471rXv7iG/XRvq/wbWuSB3ULfr+mlpZwVqI0AKRssLmYsWdyQ8MDBGJ3zeVmIuJDB3vM8SB3Pl+Av4tts+iis/4+lw4sw7F0Lwi6AG4sRaVaHWOqa5MPEX40kefknd3d/wPM2MTCXkjGTBU07jTlTlQWQlIymXphIOClUkizSY5DmsJzMDfeiojTTTChbkNKxpxNnHMRGVUFGRwb/bdoPPY2jDuAcaSCPv/fYGr9PjRNM0p4Lk1axx4CCVggeAiEbl0SM1oxbX/k699sBH9K1fM3WS61vrHaVALSBhGezm3csJEbHhrjdACfHekRKNvDUREgc6OVuT1f5jo45KABNNM7tq3uGdh1ZXzPE6frT979ae7Ekx7npcbxSEKXqyA4nSUNTVQqFxoWOuyZTCo01/tGJCYoBNuJ+R2BMTWmPsLWg6Z0MyiIrmIoqgYF9fw2c+Ew89m115z/dchvSosY8hHacaMYEDJFbjwvnrQ8KlTvdEo9cln3FIuFzXY7KgpPwrZqakhFg8R5dUdt+nyBXlkufolKOSGgJkXyn9+o6jsrkYhfDHPuh3D0sZTiQyEvyUQSFnrnLkVR/opF2vxvYH1dsI5aBAlYeYKLIESriflIoGwfGOxfbcxTgBzmV5oYZGFqfgR6BggacxoxlwRDQW50dATmUNCcofArKZM6tMoCHHlpxIbSnnIg8R3LvKhD42LOEs4rcG35FJe6954X/vGtH7m195q/fDCTGG0Y7/34rEn/MqpbGCg4NDSweq6jRM4a4TAtNKEUVox8s3Gm1XmR2XP0jGT8OdccrPP6tYcxKZFGCDCke4P0c6P2Ib43h0sgCE3toVCo4Tb4c23Q2J7GHaP1xsEbE5VB2o1Nnqky/eSTYQrNAHySSw2Asqo6UAGFyLo31vSBB/gdC9/kRfgkH7K1HQYSsDTBw+AmHZFdzGhuT3dsXcAf4IpxJMsb8x7bKOjF1AjMSZI+EU6PfHgbIgb9nNfl5vrGejGPSpxAvMwIsJHLJS6CA1/8sx9/MOdtiRdyGb8nn3aHe3rXRfsG140Oja3NDUfWC7LmVlOK51cf+OwPXvvwvgv04cTb+I5QUcnaJKGpY1Rv9KpclOCzAiSUo/9sz7F6FsqFN1C3doFEbzsmRA3BD+T7QcFZMv0aQT9Vg18lN9Ig0q7ob3WQh8jQet1guAFSjJCVUZZLjagGb4MfzIsJ2CkrMgMkti0S8JrPIbWL65EJtIj8PydVmSAtEJBPjkGW6F7GDYTmx0DYLoIxIJ3PtKxa9Quvx7kD1ec9HW0tP99/oOc8JMJ3sH6yiFkjL1CAg5BAE/49BbRkj6zE5x+5jcB8vgFDlKADV0WsqiUBi7K1KBnF0nSsbeVLwALBlX+Pjswe6mVbuLd/vSObZj68qrmTgYGxmX5A9m98WcTEe9zm47mdO3dwwyNjnNshYM5loStMk8RczPFOO9d+0Ytv5dcdC4QEOmTHxA3eVkUvxkHfjBI9BcXNgakGoClF9+4//tprr/+3/7vi3X/BoS8ryZpz1fqNzz8BAPEClSih3QRjp1qGpZVS21i8TF2bKAgawvR3uVzOHeC5PNs0/U0fDFonvpKMbHyuoaHh+83Nzb9BZ4C3SiO04pMymfSLkbJwnlv0rFcwDia7GdnF67xmzYgL+XwZWt1TnV3t3w9HIm8BtdkllQoR1aNY6gNuCuUHlmQ1197e9gNwbN4DA2kJApR8ft/jyAt8nle1VpyE6g9GPwg0Ke+T2GKQR7cL59xfl7CX+SA8a2QDPigABgsRDlUt9oMHtW4atWXuunW5SRKwQNB6JA6NBBRFiEUije2IxHTUuKZMpUWjFAUk0cvIA3SAWDlZyHOnnHA8193TjYAYBJlA6wPnJLxODmgg5Fm0cxppbB4n7G5SNZ/PDgBkk6uzgWZZyt+jPVEZ9AF83pwbGGr89i9+0SRIsJeChosS5E2thBlhSdUqo95TqUTvS90gSNdwOp0Dbpf7fgLB8TAfBk3UK6MbVeCnv6lcFJkCWZSlCjsqUg9Jq0JIJcABWp6KhP5nWpqb/tzYELoOIhpEUKaAqMSI1y3uaGny/ymeyL5qcGDgW2gL+XKzKIIVlDfLJ1HOHwWpmGZUkgX9G0w47PoweyZbWlp+2dTU9AenS+zB37kxVdUBuKcgq7LTXDUYsUkoESEIeztbO77X1Nj4J8HOMzMlUgRkGmlXV9e3+gYGGwCUJ6FtiZmMmRZZRqSve39bW+t3RYFfkWCC+1IeHo7cNDJW2AS/71aMC7htK7tdzoeQ+/cX5IAsW9rFoXmBj5yrWiB45NzLw2skhbwLE0ZRLOadU6lXEmb3LADS4/JweQDgsZu3cChVxIAjV8T3EkyjMBtSiZ1qFCnmUMyucObVYU+skZZnVSeRJ3NKLssLgUBcUcp2CnQw6EwNoCqV8i5cbM4+dEqoRoTjX9LZ3Osw0W9iRr9Kl1nL7Bq12hiZSvX4qtVdX4CmtC8Wj74yk8mcpZc1EKfYk60tTbf6ff77HCgyC99bFggpA8BowrURFyeJwON2PB4M+W+IJxLvJ/if/sEg0DE6QBolgFfJZrJnIoF8K/IAQUht40TImQC5UMipbrfnMWJaaWxs/C0AsBs/F6Gp3eVwSAdyuezp6OeLSqUSpZI4MUYZx90A0/VdbrdzNwRXhJmUXQwAQiWVbD6/9/GOjrZv4HonZ3LZsyEGL6BEBqfnnsbGpms9bvfji82koqhGko0oUOLLwjbci985XFJ3OpV9CUz4VMdQCwZ8d/p83ocX1rJ19nJKwALB5ZS2da1xCeTyvhAK1pIfiYGgGSFfOQKaEwVScOlCjjvh2OM4kA6zIBhKvANhMlIiUKCBBa8QYyjNZ6SxUIAGhYTOzjU51a0QPV5d3/5cJMPUGNNoySJyOD6bC3ISo8ua8+bxep73+32/Ahh+HL2D+c8M8SFApEhKEHYDUSi4BH/HWlpbvunzuf+Oqu6R1d7OewAM5GEDLuuwHCMPgfoDwm4y1iqq7j3Q0/sFmF1P9fk8T0FDu8HpdB9oamr4Xb6Y3wyAuRh4g9gS2O80w3pnFMklU6VGaSYZ+Bb/2tLS9AWAqdba2sKhasMl6XTmXPTHh92JOn6pUCiwOxQK3RbwuLbj8qA3YOmTulPgiTdzO+1FTbuB8V6TLktaLLI2AXyKgn4DVA01F5vA23VFU6gTWktjw1/R1q2w54YozQ7nlZAbmJTwOWdBz3BCUdX8kMWxSGfYQNeIp1L98Dc+LaKqx3yvA5JSGs9DtIMZiB7NMv5vXs/IfPtgnbdwCVgguHAZWi3MRwLJXMCZKTEtkPZqJCHNrPiLWESKMIW2t3Vwz8EHGEQwjJ1K0WHypqRsqvRAvMqABhxdCdGndlTQlE1gp55j54KeZMEJBhG5WEnsM8BQSGUbgcBzbMw4HL7BHBLnfwKLWT4ej70LFs0TgWp2MjuSpkU1+gpE2C0KPT6v53YA0lUOUUhOcbEJIfdUkgh5iMcAsF5jt/ProrHIcfC1PQlf2n6H07G3o6PjW+GxcCKXzV+AGJMu+CZZk+QrVFSZgDTc0tr8tc6Wlv8rAV1ddqqdwbbflMr6b/FJOQ7s9pg1EQF0PlUp+1HvD6XwxAgALgHkYhM/iDSnJJI2ozvh96M1D6yiLPkdOrwOYjpNF3mBzNcj8xJuHScBAH3haPTtY+HIFbqmtZK2LAr2nWvXrv1PnP5sHU3MegjyXedkJp+1QeuAZZOABYLLJmrrQqYEwOfpKj/wpLsMHxOBWFXpmiAinVu/fgMS4Yc4l+jkFGiGZhHdiYYsI9qyGnSCsg/Al/mvxl2uYijUmCqns83UCCvtg3/k82kXV8BeB3/oVHfaAdaakqJeDW3qjkQicXE2lz8rl89vRb4csMeWCgYD26EB/r45GLwP4FRXfhlSMMqpTJaOLUI4OfgLoSlqsCByChxUBb/H86BjVVd/WdUawpHYm4qlEpLTOZvT5UjA1Pg0zJEPelzubaS1Te6zw9Boqt+Xypq9UMivi0aib0okMpcCBIONjaEbOzs7/x+Oi8/2dCvA2Hg8cVE6k3kBzLwoJ6Xn29taQTTONL7536/ZLozfC8XCFtT/e78sq8cTJyyFUqXS6VVDg0PDsqp9RBJY9K61HaUSsEDwKL3xSz3sbDYboAKyYO04aIIBoXUhcf1NDQKFs1BovFkqEFMhRQXSBi2GgxbD0vSolqCGFAgyexK8zWxwqomymc8gFVloamkO6/19rJo8a436ZQNaq0rdidtTA6GQwfe7EPSzD2rDz5jhFoMiSyWuw3L055rfBo25u6Oj/evxeOTSVV1d21wu93a0qEJf1hGcQQBJjtQeaGHbSAsz42CAO6o4S8mh2jEQMEci0dcDwN+FIFmYFDlUhYhdgfu7A4Vtr0Vdv2mBuyirwZ27dl2NGnrn2m1CEGZXqo4Uh/9wfVdn1zdxneR8blXd55TBoVAutxBhAQuiwhrD5/EQj+lWVK8gX54FgnUL88g70ALBI++eHtIRYWJzwD/VCF5IP4Eg/EvQcoKRyZ1KxKNtkgjAI6PYFDkDgwODnE1ADiBFXxRk+K7gQmJMJFMrDYzAeXH0CZ2A29Qvqd+MQFspCko0TAnzowsVMPxGpGHN2xdVe32XQ0wWSsqtDQ2oXWi3F9BVqIJVs2b1UKDtgq4pIelvX28PmYjbzUbhT6ScxM7Z8hCRtnEOjnsB1jDN5n0CiLYV8oUXQEtbi/aeXahMZzmfnozJJNVkvqxL417ivlnNH2IJzM/JcYg7bV1+5UoAwRYiJmMFQS1pTJIg1lDdYNZoqe2xnslIjmTRr6PcOhg/K1GY40cY4fpljhK+ZUSCkoGTyLIZpTXRU7HfxxHPDDOptLAwKPQ6s451Hd3kV6S0C8MlZuPWFKBB9I2tW4mSBxCmJUFKwWcqTwWAi9VnXGMY7Q+LFDWKvVTIyoJdTyC3YVowKSiqWIAZlgrQUj+o+gQLDMIHqqw343khTWxJN0SCjrmdrsexmCnpqDxCaR9wgQ63t7X8Bg7KugviLmknrcYPmQQsTfCQif7IvDDAaRw5xr19EydJ+JvCw8OdqmK4g6bSBEk5NAJGKfBldngbz+tboFwFQVm3aeO+5ygotBLPyHyRcpHr7z6wdYGtH9antzQ335jP5U9CYM1xNBDk+d2CKNSbZhoUngcz7omWLgZTDllDWU6gESCz1ELxut3d2Xzxs8PDQ4MlWV5FHkgi1/b7fHejF/mlvr7V/sqWgAWCK/v+HFa9w2rfDrMXgjc1Ko8jUJkZwjFMeBOL0SKaMBIea2HVI/AE0jQpHBRbR0njZqpCTeBLjZ5XjbmfKKUFaYK8s0kf+7/vZhldDDbyQ9IuSXYOkZ1Nh9UNWeTOuhxSAoEkn4Im5abbijp/aWGWWnhuSSzF05mnEAzTg+djI5itGQDi+dAQxptwSS4iLFjyzekQ965bs+ZztLaiBwShuXkEJC2KSXrJO29dYEklYIHgkor36Gkc4CciWZpMXqDHLNsBhMR0QihGwTETV9uqKo6NDre2AljoiNpQlnG4I/AhCK3+XwWUll6mIHmO6AwEjfQLSszTNBmRqr2r9VKY5x0tdQOtnkxTXgdFAKERVeQKqgBVyPiO0v8kKjGL+nM2+PGo0Ctq0fGSt+72l14aE6+ASEoqETSnMkEgy34CFG9XJ5LJN4L4ANUj7CVEpz7Q1tLyAyTSLwsjDPhbSaaW6XO5H5jD4HoWCB4GN+lw6GI+n28AELpBk1UkEKRkbgTGKPALpj0ez0RzqFJwpId7u9qJ6AQ+GmYvoyoSFRMkzVYVIpOpsydmFsgUYTZzlKAnkCYCaFmn0kwE0mUupZe4TN9wB6eUqeD8tJXA9XyE5/Kqi+sfXj/82DMv2fvN769PjI51DPX0bkiFx9rsyUFok4iB5SWbKmu2nF8sudoaR9uaWqLru9YOuoOheOJv190bXLPhOa6zcx/f2H7YRy7CZ1hEMvn3goHgrdl87iQwxhSRD/kYSNApctXaLAkcUglYIHhIxX/4X5xMoAiVXweOzEEEwyTxtwgQpGoGOexTJxDnM249Hm5SlTzYQ6BtVbRBinUxibQJ/ern3qgoTuzDrEw+f9na/Y1xuw1J7FAcmD6KDhaQLW4fyzSD/pnSJKYEQX3bPSfv//H/XfbgNTe9O71z/7q1gQbUMwQ3KgIxmmF46wSo2oQ0Ix9FDWDgqcDlEjaHNjS0Bkn+a0Y0/jSqSDDic7yb9zaoDS885+74g/d/M7R166N8Y/OctK/5j35pzkQyOfX/mcq+NBexWrUkMA8JWCA4D6FZp4xLALlWHiSA90Hr06AFksZXAihS1B/N9bl0Jm0D1+VETRBZE0o67ZZ4EGSz3ECwqhB8MYaySqxnhWBzJrWOBazgPDM61PARMvK0Bd0im9uTEQVJF8HipfMG3jnAbRKPJZrB6E0gSPl+Ezb5icdO/uErX3WvI1MK+LIqtx7AF8rkWH6jESlESI9oV3wgfpYbBQqC2QXWT4xdKWL8sIqyehg2rgHxQrZsWsjcfMclf7jznktOe++bf6IP93yJ71h3UKrJggZqnWxJwJIAK/hpbZYE5iwBMOeLyAl0Q9vLY58Q4Yeq71H4gZhedhAA0peJZFNHIKTYolmRImZseAo9FKJQ8f+xeBgCxTp7ZUQdVrd6T5u+dacrl06lecqWryiXnBtVlHgZPr2SfFDCvL531+qr3/y+3zdmQQWHYB+XoHNOgJqmotwfcsiLADoV4RgIxuAcuovLFOH+8wQ52evPpAsZbxm0NHbonUGHkzHUyADJdkBnO0bSnIxz+676xQcafWJJj/R8jW9etyw+tDpFbx1mSeCwl4AFgof9LTw0AwAIuqD5yZMBkHpjAuB0PUuPjXVJoIzUdJWBl1E53gidJwWQFZitA8qYuZSdSyqhoRYyONSNSgHz3pyOgg+V6/UEFC+ig0arIcnN6XlZ4FTt4HcmnWwS9nYf21YocgKVgAKISzB6knZLgC4D4JFmCDZpaHtoIhf0KG/841Wv5s48/jGOF2F1LXm4ZDaUHw13ZUdGV/Xffd/Lxu6+55XaaNTlEgtcB6ppPPDrq/910/ve/d15j8k60ZKAJYEpJWCBoPVgzFkChUKBODQpIX5OfqpiMWtzOr1lZSzR6oVd0AG/G1Uip9qBjDOMMK1i4qynUwYIAjihZdmAe2RMJH4zhloL2Rqd8Ye4KPcyu4MYyLgGWERV/LfZ3wY0Uz2Tm9bDQx2tJRWcZEA7wC8VyzNUYyPuleXEUYAoviwgSFEq2kU1GEiKjZtMzs00DiQC6Z2Vtn8pJ/ubbjz1ggOhvn5/CWVoHYmch8sWfQsZlnWuJQFLAgdLwGKMsZ6KOUkAlGg+4recKwDSReAfI/cYF49GmlVUMbDDIebgBYAHPGYVLZBpgnX2yAyBQd0IBoaswjzzMC7MJ4ikQLl9VdcAKzlEBW0r/UnGE+MOyJo+Dg4OrlPkgqGM1sTomOkebGw1Xar4LmccJRyspY5V6w7IcK26cYJGkTS5wpKzq9QpeuswSwJHjAQsEDxibuXSDwQpEHZEf6JizvyqZns8IUWHNljIZ13IlUbCNCuJx+I5wRzNAIfVgMBQyDdWT3So6bNj1deNnWJjFqYJioLa3t4xgoLpTEOlCB9qENXlOXkSBRxJfWRkqNOJkkjjxSymh3Fm6mVAP3OlCETbFgKBYA6FbBE8A48haOO4ZOKoTtZf+ifcuALyXTuwd4XD4fNoB2k4qn0UfZQLi3ivetdoy9Vd6zoLlIBlDl2gAI+y08ESIsy72GkxG8fzxnPZTNqnk4ERZlA7095oq2hcleCYerSlcZ3RaIF0QYApwdbCQBAFYFevXtNfEnefKRMQEgDiP4fgQrCLUqkzOH7nUcevUZdzKIs+1dNQ6QrDPMO/aKDl7H7Lzs6OoRGUm0KeHYdK8qjklLZAcAlfOACdF77uZqT4kLlfB/H7dqIBxHcB5MEeS4Tw+F5AhZQ4cl8PEBkEFicSgNGBILHV+L2MY1vxmYOlZCd+L8BnvkCzxBIO2GqaScDSBK0HoS4J0AoYLzxNDsQIM6/FkxO5b5xi59V01kcFcQ2zpQkS4/4zMmsa+uHMG/G50DH2SlAMaZMAK50rZD3F7Agzvc5n492NSsPGY3bzCFslSjfqJRF9o3AtJ+YnllPS86N2EGt3GlBujMHYzE8T9BjwsZ2V9JmSMXVCbzV9dVOfgkobOkDQCcwsRJKoSm9tiykBaHfsRqVSKSL5DgC8wn6/fxf23SB6SAHEEgj06g0EAs/jb8qDDcElcBqqpJwFwGuPx+Ovgo/8FIDgVrS1GotEIogo4N+r8P2x+P4gH/Ji9t9qa+ESmNdktvDLWi0cDhIg4IPpU8eLb6PqEJQLiBVxEKvgaRlTZh1XSbeXkplAlUS5qhlRnTdyqmFOYvQxsytzpi5FleyMKFP43uSCwI2OdToQiqnH+9OcraHAB71zXo23bj52ew/COnmkNRi1Lihyp8ylB4fXTBhjUXGJY4lOHgB5sHJXOwbj39QagSDKE86I8bzQoA/88v/FFYEWBCgEiL6kR8NtupLleXHl0qrNev9X2AF4Dl0AwLXULZigkwAxxtADrTCE34j6T6/kwGZB/9dL6T8Atnb8vh7ndQEgd+G8vkphYlT7KjsqpOH4Z1kAUHaiisrqpqamO1fY0K3uVCRggaD1KEwpAYCeLRKJbEVF7jJeYhu92Jgg8lgRDyAZfjVWut1Y8c4ZXECTBnNS2iMR1k24cg1gmOUbZrs3lQbGda8y5ywp3Lfe9M5bnFJDctXW43eefv5L7tQfePRxbnV7Nxf0xPlA09QsNpOu5Vuzdi/FoggUlFIBWNJeBwd71008VOPz+azHRUV/jWx/tk1VGYO+5wHuEGZdAaxery9ZxHg0MvSCbrRYyLsryu/sK4TZZGf9ziSA57iRTJgwfT4NsGOmfnzngKbXhWeeTN9EAViGRhjBnsEzT2C4H3s3nYu/E2QyJfAjIMSn0wRBtFeAZjkE8+mpeIdeClKJe7ConP8C0rpnSyIBCwSXRKyHd6N4uSVMAq140WN4ieM0CdCLTZRoeKEb8DIP4rMRWiFNCHNKkyBIwbmeporB0/QHGrkRk82Js8/1ZmAMoQ9pWW2CnRPDqaZgQW3io89ufPBv979Kdgtc2iekLnjza67W9z73fS7QPsi3Ns8MhkiM51kKB5lYqdfUP5UbHOhdPfHuwvpagAuoAlTV36jI7yRdr2LwNXBsQn7/1M8LJuaoDX0og1GGVXIPR1o4OzLxrW3BEiBqP5g110Kja8HC7jkAVpGqnsCEGcD3Xny3HYs+JmsEyZAvVsDz3orvvLCEjBDgAQDDBHpog0yfxxBgsoUOz8sAuySO20HHQQu8FcE1F2B/Ca5xGwvesrYVIwELBFfMrVg5HaFVMF7gMMw8k1n3ZbzwGlGlAfySmCyC6HXdIFhIxx1cVhGK6UyA6MHGccCcEyp+MzP5fQaRVGeRGqCh04h5RsqpXAcK8qZHI9xazEvFosyNZpXA7qt+8/FH/3rLG9a+7k3X6CMD3+TbV6WmvYQL1eWBPCJAUGGec3gqocENDvSv0tNRnvc3GV2Aq1AtlCiLAdvMcxv7VafaUVREglHMzbyBvk0SHMgvRGFhXCiTTAQ5Fdn2y1CDb7auHe6/A9BWQQNs9Pl8+0ibI9J38t8B8Na1trY+Uzs+HMNYerA4DAPsWmAhOY3I4aEZxnGeG8DmxmLxWVosVnaFNENYU0iLZHMsQPUxLP5OQLTpa/DbzRREc7jL8EjpvwWCR8qdXIRx0EuLSaAdL3dsCgBkV8D3RUwEPEXSoTxOBIEB+Ggwk75n7IXL31DStw+2hAbT690lgyWUlVmluoIVCDFiXKYHE9OTxsJQagCQtYPyR6hSBxIW1KxD9KlgL3FZBPRRfGcjTmgE5GWzmc79P/zef9749CPnxO679b8dJxz7TNnvi/vhg5vQeU3lU24b15WxcQUohHa060OkaHHfwBZQv9CK36hFF463hWKlIGa7CX5M1jWogkZlDFPfhd8TTIU2srLJcDbOtvm39MoljAWNoPIC5yuCcy3BEubrkvdszR+NvwOASNvrwPPbDIvGNrpLZOUAwDlJg4P2/fx0cqmY/0fxO+0zbuRPB6g2A/i2YMHYTxohrncftMFzca0G/B6HtmgB4WyCXIbfZ38Rl6ET1iUOvQRociANEACYxktb1ZDwnY+ADpNGdcFUSZSnl9wOjTGNFztYzwhSqVE/l4g06SxznB49czfPNqInJ0SN1tMwO8aIuYyiPNOQXyzvcju43T4v1+cJcBFHkCtyARBV+7nGopPbnNI4z0PPnH/z69/xj9RXv/cN31C6/aDLtLUMcygACz2M0Z9RKoeK7lL6PLO8jm82VTHo32bbZF3jBqQiNwwqtFKjRCwxM28eZ97mdDCwpwLD6XQywGoSWtu8JUAACBAKQLvrBhAR8Kl4tgOU6oDnOo/Al0UptEsBZQDNKN4rHVrnWvIbotM6NMKnEFBzPt6dtfMehHXiokrA0gQXVZyHZ2PkAwSQrcYkEAUAVifnZBKTrmF6EwGEHTAfDbDgD8zJZBaFObQRWmAY32fh+G+E7yM2kwQCgba0/ufbWmsRwzARsll+zsIz3YimHklaouJ3cFve/rrfZLJ2XbI71YH9eze5lbIjHc81OzLFJqeKmoegQouGhxz2giL+8/v/+6/to8V2fV//B4ohR8LV1GrU73MIsuh0qBLHC5TTrwKbC6h5KyFYkEun/DiCmci0sXA70wIpUb82tqc6mvHvQcLGbSjbuQSKU5TTYUp3mFbrYKd7nXnE26MeBYs9xWXTQQDzokzScxb2YXwCAI7yWwmM2smciWeWaYA0JDzjmwB8LOhlsYdY0RyfBOgdg/eljUyl6Eca178P1z0P38lUgmyxr2u1NzcJWCA4N3kdcUcDwBx4GYN4OQvk5zMHiAnDjgmjBPMQFXqgyvBxRIq2w18yAtDkMHFkySRKx2MCoYk5Bn8HioW3HGQqyuRyNh8K6yrluD3+61vadWhENKmP+/XmDoB0XbCEcsTfQeBHqhm1orgdhdM+/m/f4nxdgxwfkJmtlYALvjuuUHJy+YIP2fq+4r49W+++9porBp55/vTIs3vP/M77Pv7nD/z0m29AEwYIupxF0eFEvoXNR37BMtI2FLwtSgkcnrlMEEcwEAyPjK6hftC1px8FjdawfFFOY0tJ4a9+94eueeiDH/nzOW95xy+4zWv2cm5bMQ8xeqS28YAdsHGXKC63cl4hn/ZyBVwfsj7iHsQlHFAFANvwTHfAJLmDzJ/Q0CSYKtvxWwbPfWIJL0/+wN0Awi24/hpca4CuiffqEXx3DjRCFe/SrObVpezf0d62BYJH6ROAl0/Ey6dglezGijWPvVrBHBoe0aOVGxsbCQCrG8AuTH/gWModZHlQo6Oja2ASTVCCMJz9YfgUXTA1TQiWAd0YhZoXBUUVytFYiyBTJDrN9YYGNb6Z5tHpIcXUtgwTYQV5KohKHjdZha/N5c7wDasmB/XQZRiY0z/0RGrfK86/4A4uW/Ald3afsL2/75hrb7jx3emhoR/4OztjHIA62eweTAzyW8n+qAAEPVAHAynUg8jmg6yNdIJ/7hvf3koBM0YlDGMktSTg1dFV/HoFHOsEb2rTQKSt+xc//0DqDze817NpXc+ZH3vvd5wvOeufWX10xMu3Gdqex1F0OEUVdegFMofySWigKYC4tdUtAYoCxWKuDQu2BjzPzxC7C+X9ERUa+erw7C5LjUZcay/6sAF7F7S/EdII8Z5sqyTU01Ingu8nlCSre5DWgQuSgAWCCxLf4XsyASD5AbEaDeLflOtUna8xMUyZPoBVdPV7Wl0DCAewug0QryKFkWPFO0IACFOPs6JBcphs3EFfIF/QktDGFD0/Fu5yMI7rWgRj0AEUqQXBGjaZGjGPg8rB/CyIzUM1Ccoun92vw4cChMS0J7EPYP8HXebtV7zPAJlSSfCs79yf2bFzq0dFmgQu7MEUFST0TSYa2TGKKsW7B9eaJZ3MKAcaHttqhmgQptm4PLqn4lNEAqIdwOYt5KTcM89vueZjn/l5y0UX3P3q/7jyP/XR1B6+LZDREQkqNXijyhjfhQxsTkLEKwhx6nE/Hr4P5iL2nJ5vMoHiOfWSBkipCVTsmZLjYfofBOgsm0ZNC0dYXfqw+NyIvQPDpLzbBPqBFJvCsfg3VRHZsYjDt5qqUwJWYEydgjqSDqPJgdIcsCLW4cAvUWQc5UfNdYxUSR70Uonm5uYhgF8cL7cPABgkvkR82mA+lQCwTJvUNVCtlZGAHx1toWpH41sFKao5gjTH1zfP1x5lEFNTGgNBEOoVzXNztDYbviFVt69atRrgWCH3xlek7dkBYsVMqoEdQ+MJh5uN4Yxf8qCLV76gRHkHALVkhyg2rNujveCs+4ZOOeGZwumnbM843IW+x5478yuvettdA7fd/To9URRtvubM6uO3bEegPUIYyyCsAQrLMOlaW10SoAhQAKAHz2YvASClQQAUG4GDHjC9jC13dCbV3sT70IPOF/GudKIfXgqeARD2oF+nEv9oXQOzDlpUCVia4KKK8/BpjAriQntrwYuZpAi5ikaHxbFzggm03hFhoknSsWjHBe2vo7Ozsxc+FwVmIAYBbqlB1vND3lg02qTCp1i7GWZNA/zqgz/j7MlwafB3zhv/JvappSPX+/++MxwnDY4YXtA/ouWmShf5fM7QFpHrhZyxJkq/qCR7GP0iQJ4kOPqboNmL0khDIOK+/Aff/zf+RZfcB5MqAm0yDVwyikL2mrj7gYcu+d2N17/9FAdguJC4ce/HPpWP4hwCQUyanNzfvw5NPVnvfTlajyN/H0DFj+eynxZ6ZOlA8NYJACHiBt19qOSC962IRecB9G0TMdVQPyjpnthkoKGeB1dEEywxTx+q/h2N17VA8Ci666QBQkNbAw3NR/RnZMYkLlCiQ8NkMYzf6KUks8ysG2roCWiD/H8TouqIQQbtq5iE+IMqzKMqO6JnWglBpoYq+nYcPmaDM/N3pomRX46BFf0xQdWcdSzTHdDY3j7AEvorBXt10KZRvl4iPIbquthAY5YcGVrFIdrUNKlMBeLGd4BJoGMOJt+8CDgUJUbRxftDZEWlIJuoro3Ytx7/8ef0WOrHaUV35pLphs1bjnt+j66/jtYIROE22t+/ed4DOkpORFrPKtL6AHY9RFNGADgyMvIiWCwepZQFI9To0G0AvSIAsBtaaheRcKMnlFSv4l16FgvISxBgdioira8m3+Wh6+XRc2ULBI+Se01pEND8GrESThMbDDFeYFJIVvIDm/AbEWOHsVqW8ALOym/Y1dWlYuVaRupEC2mVlReWyIbp38PQKA+eaTKqq0FwlG2SAz434xIUuDnu5aJTGEFZBQwrES8zQaZpimRamsnJuTgg6NzUuZfmSwZw5mjsSJ4/MLxaj0YkbmSgaZOW9XL2HOP8nnzViYBImiQo1kC3ymuINS1rB717vL2dTXp8Y4ACiwp6LpHPnNr5bNxLSfvwSYJggB9Lteo5zcZ7VnaitZ7PIrAW/xVLYgl+ZxHRtrbmJlDwSUuGQBTlDABci+ePTIzDBIDYvPiuAQs2igot4/mfthQYBXrBLUDk2FQOCR/FdoCTRqkNdFugibvxXA9jcbcfbeexzxukoBHmAIJ9uMax6N95aPNZtJfCu3cj/j4fi8gX4XqP0HWOkinqkA3TAsFDJvrluzABHV4qKhMTrwAW+UfYHE1+QQBkDOYZCbuAl7DueoGYWCiiNAcADVRKxhDRsAZtcGoQRbHaTCbt91Li3SJs5mxqRGNWNEHSB8Ecsxib0Nw6SAgNP6MRtIN0Zw1+uZHR4dbjCRXtBvUVM8vOfWqf9QzeEyrpz983aHIKkLdzYKBvzSpNpsTrFcc2AvOtwGWKrrGHH7lk8JPfeMX+J585N7G7d4uYLXHrTjq2V9qy6vnkT6/6R+BFZ9zJrW4b4gSXzEv+xXkYIBAsytZRlDKVQyIAxHPtJmsHLWHwfaYCZlM+GjjWh/MperMDQV3PUBoFPgk4qyW5KK2C+EYBUicCTEfwzMfRbnq+FGh4F8k32I1rbkS7J2IRug3vzxA02HvxTp0DK805AMoncVxyMZ5nq42pJWCB4BH+ZBDpNfno8HJlqSgogZ4JfubQK0m98/IFUhsw46RoDppVlNkMipYWHUZhWWObJ4DMdKnFcwzCfwNNgnXSxtuho9oAgjpyA4dbEelqR5CKVGY5Gcbvhil2+o3GStKfE2CKApExMzlRUSVGoo2ApFllvcQHlEp5m1TUpFI41soN7N+Q2bntjPvfecWF3Y8+fZYciQa8koRo2jIXLJQ5HxYSiWceXpvdxa998q/XXpZ1iYVjXnDm48eecdbD+j/+fh+3ae0ertGXLLuFXEaRhaBvXd18tDRMSoOgavAAuSiexUEKgsFzT4VuKf0nSylABISV/SDJAISaCCxJe8T5eytlkZgvuFJI1zyH8oL20GML0AzivToHC8Gn8V1kvqZLgGkS17kBrohLoIVuwLWpHuEYNMOnAYxnoF9nYCxPAwiXLZJ1iR+dFde8BYIr7pYsXocwgVPUJ0WBUlQa+e5I66MkeBd+K0HrW968JLCwZLNJfwNy8A7ezHndDHeZHctq8/KM9gxzKP5/LvE10wvc7SkFAiHOlhoD4yeaBHqV1RI3NjbUSuqhnEkFJVCrccBJxl06hdl2MiyaQTNTxM5M3Q/JUxAcLk235e2lQoGzaSUwtzFK70XToGZ64tI6ODDhFPXAiuu2i5q+b6iNC3ev7/vGd17z5D9uf01xaGytlM2IfD7LeV1OLpBOck4JJHMy+koRrcDrIowOAm5WAPVr7bj3eq7sCj9y3wXdD9x3geD0XBlP5p1bjzvhwHlvf8PPAueedofet2MEZa9ymuREQa+g7HA4px0rASA0s05iMoKpMk7+P5gRqfo7lTnKVxZ/lBoxpXmAGGSohBKsF0P1lDkywQ7AlEEwyxO4zlbIz472I/WcP5WsSUPFe3kfQO9sqmCPvgjoe4Q0Q/TvBAJCtH/7ckezLt5MtLJbskBwZd+fefeOyLDxUvloJYsVLq02iTqKUhfc+C4HAJzVHDfvi093oqxJvoLsFtVa7K1m11XOmh38Jjc/2XNYR5Wi+oYGd2U56M5Ec5qvDXOoCC0QpXq5hkwJhKTpBj5f8AjwETLSbzKbTmq1OpIaSKYIUdbfqRBzql6BtUYWxKKicx6vx4VKEqlGriDDqcro7JZsyyaGGz152c3t3eP1DY+0P/T3v1/+25e9/PgfvuFVHU3h7nV2WbXzqM7ho9xMhM1CDJyWL3IuEUCH2ooSiAVMOyJ9Mg0YyZZ+pJg4QXCu5PMcs1MWCs6mMmT43FMb7v3kM99SvU45D5lLa9sGmzZv2nPOyy69UR/svp/zBtN8sKHqH6PFHICCKpoECJio7Bct9gBOLjLNU0QoLfxMy0ctgJArgJLmcXnyAfrIVDpXAMO7RG6DCK5FzsM1OL9IKYj4nBetXaUa/WPozxnYtxKokxkU7+4+aLnnAswpKvjAkt3wo7hhCwSP0JtPXKA0MeDlyZNznwh9sWJGrjdPTBXLDoC6lua553eEXHi5HTAd6qjNN3GbqkuLo9DN+xbDdOxpbIiER3SfBq1GAl4T9Y0jlQMIxlvsZQ357pS/R7P5xP6bAMiqSFQ6YKZJ1DLKzNo3pzdXllxZ5Mh7eBUyK+Y9nFxcchJtj1PIPfzDn3x29Pq/v8PWO9gkQ7PzAOkCBGJKFqsDGIfJXEhGWjZ+4kilwRL4AQgJ+MzB4R9Md6UIVwiLyAdIKgidMRYQxGwHP65Pw5nJspTO5RsTI6ONQ489c9L1v7vxjZm2ztTmd7z3Vzjp380mCQABFn5oThT0QiZQxB0Z1SDoGFr4zRS4QsAJ8CJtMUuUgbPeh2kOoGK7sKq0UWUI0ihx2FRMRXU1T6xNaGsP+nUKPldXgm/SGBss7Trx1VrbEkhgcSIIlqBjVpPzlwBpgZQjVQFAFtkGUGzFi0Rh2IfInwSVIZMKMSroKqVK7RirsMEmyBWxAQRFJDjbkdxeRAwMwbaEvovEpo0FRS6bDhEAGFP6DKpdxcJLo6rCer2aICdogoTCxVg4UBgOWGRE/GPpVweioBx4fNuZ+oHBpq5ckdsIbQ3s01xTJs15ihrnhQmYGHTc2F0wVrrQNwcGSIsEWllXtF2jlBT9jf8j0CQ/mwKglPEtxQHX6v3mg0l8PyFwK3Si5NQWtL9mLB1IPfT4i5E6QrypbKNALmhIrQgiGSKtjDQ7gCIVv+Ww+KMyRTOZi5n8cI5EgS0LedbIlEkk2FRcl5LfyRS7kPYApHG0txcabQhtkrJsQx9j+JveX2u+XohwpznXEuoSCPVQN1mZAHSYQxsoQAAA2EmAiBXzvFepizAmvhiNtpVgClWR9H1YbDZM3ciOFwCCBdgxZQoShdYSkFwcl0g2RSJjnaWiEUxrpvnPZsw1mG3mMnpb2S46ADk2JJMhMEdVRE5YhoKsmmoPlUXdixoWmp4BQ1waY1SIP6cC90w0jE4OOQQoM2XsCv0bwyvXLHRovGQGpqQOqqJVwjkFyJKY85i8KkCZB3xk4ENkZYMJpogmDgWFnfkc5xE0JGOmqwBThpfUbhcLlHNHpn5V1ZxIAbQ7nUwDnNEkSdGclE5BRBGkvZmR0nO5K7XH4nqkTeYJBPF9NZp0nu2pAFbqkxPjkvDpIS0Xn9S2NV/PU6gznWYJdQmEuhKabG9vf55WqWA0WUsr5UqE3KHrGlaxqaGxLq0E0JhSE1y0ri2elsTbyo62pgERUyoFxlDDJcoHRJpEKTzclYrFWlNgvzGowKdQsM2eVJDR9F2ySE/Ckno2yaHoggh9CJyjIB7nVdSygC+ynlMXdEwh73I7xUKxXERyP5iAsIM6nCtip8UAJWnQjhjZyr+xSKCFAnb6jmovMvMvgRx2WDrZ96TDCqQxQmgU42oKgb5n5+NLBUocvHacBiHlcE4eduiCpJRUp1xdPiAeBmkPTkOLAzbrRU30SK6o3T57gjkF01DqA5lC6XTTb7gAeVFqUAQgGCTgWkA7dGqtJZkS+0W0S759MtkeIivOAke0wk9fkOq+wsd21HSP0iDgQ6CcKD8rk42VLgJgeHL2o3bZADndyYdySAWCVbqys/+EALMWkUYx8/prTsrSUg1M4NTRDtdII9QWJ9QVBZQteaLBtmW5SN/u43Ky6mgLwGqVSdiIDLt2m+wLNH8jIKCx1ZtmzfsCpT+97GXRcoVWzp4vubholrhLh5Zi2HoW6XRe+IyLOUdaKKqoJYVCxJPvlTHW6j0yFGb2DYEZ7VBnYB41QpTowSMXsA3f4eGklAb2bxuNiRyq5CPGf04VRDpQD8lsSj5CapMurQh2TlAVm5CVCfwZ8CHcE95JPOxZ1c7lNMEtuoh1R1ORsoLzAJDT88fifXEiqrMNaQij00WNzkW2lFJBZl5YXk6iQBYC2fnmDpLvHmbeY9E3osZjYE2aLr6PzpTnOJf+WsdOlIClCR4BTwRe6FZ6sckXAh8J5TqNEjMMvkMcQrl8yAGQZIz5bvfu3VtlWLUOn+WsTW9tbh2ViOGGzbw8fIK0HIc/K1fwxrv71/JFFvKB8c0+KprzM2iK9ryjfjF0rV7bSwIUyNQI8yCnKQvVNqZ86nU5gx7mXcrYrrb8zj2nZnfvOd5LJZwOUlpZZqRxUydtRq0MmFARDirgP4UDZnu95bTbBw3PAxOoA5qgEz5EB+fXBc4N3x+REZQrJlWSJuJOoUlCxgBXAkoX8g3tI7FV+t1PvEhPj/iRlI+iQ1m3RylInF3ldVdJG5XHOuNiUUqj8hRpkzNtBFhkvmS3dBEo1ChuhZrCTlocU/TnM63Q+pVyAykohoAPbVClF4E4YwGCffNp0zpndglYmuDsMlqxRwDkKDigg0ohYQWamtRRygtc9GrZ8xYGJoqxsXCLuz4j4Lwvs6gnoq9eny+dKBU4JyZ2+KEYd6gd85McTrSW+ke7QpjIZag+NOnXPfOhos9cJt+WtvaRYQABzYsa0g8Ke3cfj3E+tZCx6qWoobPJRRc3FmsbfXL7+Tu++d1jBp9+/rQn77jzwk2CyG/IySzVgbyec9PMSTOkcxBQ5G7gLvzkB/57oK93ffS5XWfG+gY22jI5uwORrk6mGcK0DC8iHS+yed8IniEokRCB2gQ10q7JXOLp/V1/e/e//yFc0Lhjzj67p+vMUx9pPmnrE55Ttj7Kb1nzfEgp2eV4ssXf3EllsabdqMo8QIXWhuwYShtaiBxrziURVZNdibu0JqfQjuvQPYfvUiWTqUBpSuT7MwN48H1DLBZ7Od5lSvh/FH0kMvtuLHCp/uAjWMhahXcX6UZNbsYCwSUS7FI3S1FoFB6OT9EEQKwg7URbttTXnmv7+VLWoRUTqC4RafSxcErSpSZu88FG1gZN5TR14o/FjpnkbYFy5ppfjIQFqG1q0bgO6UUU0JErBPLDY51YpsPcZ4DgbOnrdJ6P1RMu29XReJeeybs4yV7iHY4ZJ+KuVRv2bIOSIcJH5nRJ3NDwwIa53gM6PlvO8m65LPGpkku+Z/fJww/e/9Kdf7v+zaN7e9YEOZHj5TIngp3mLF7gnOB2tesKUhsIfCeioHnvqpGfEzpDdxI7mUhJLi5fOXDp5dcGT9u6W1d6JC6RC0af3nHW9jvvvSR63z0XDe/cs6mZc9j9MJNLMJmSOZRZVvGM0P2MwxdJzDNUhdGNBcBWh8iVnnls3SNPPLhOaG17k++YdYP59mD89PPOv90RCg3pe7ffya3ZcIB3uKak/6M6mIgsZaXl5yPDGc5hrs/K70wbJNcE+Qhxvc2gZOsCifdW0vaofBIBIu3Dw8NU5LcE90WeQBPvbz/tJAF890JYd54GMI4tcl+t5mokYIHgYfg4kAZIJVcICJH0vo+GAH+gG6tGioqbFwiCONuOtqrn5rNpAX4Xzo6Z1+kOLGjCQJClbg/nGgJZxeWENkX0YsyHZCz42WZOrLOBockSQ8ebvDBsCU7NzXbyPO51eeOq/WMoidhQqSRBMT10ncLI4JqQkrcjfoNzwX9VYDw1RtmlqTfD1+XG8Q7I9W/v/dj1GcfncptO2rJN/+sN3+FedMHtvL+ZuFgP2qTVa/dnYZZsRp6eiKr0ye4DG3QVBkRhZqLwYgHwrcBnllVdZG9M/exXb/vdz3/50XJ/eI0rWRS96LMI5+Rq4AE4S4x4JeTwQYVBFCdpaID3iq9z8qhqfZ4Vd+V4v/GFADCjbP58GQ22eOP0Iy+uI07ZMPa/0a5Hwh6Ydm2D99330hv++If3lB7a/pJQXpWceCrA6MCJSobzK3GOhCIhBU9An8rQLqmfQQTLZNL7bPqwvHqd+/iGoev/ujE+FnENdPfabSdu6h+56sffbbv4gps5t1jgXJ684kKiPZItJcmjEol2OZUZ1gslO+9yzOt9mXyTkCfYCI3tANGe0W94N12Uf4j38jiA34fgm78D79dfSaPD+0s5f8YaDv5E9vwjAIb+Dc0wSX8CNM/E4vZx9NWiS5vHezuXUywQnIu0VsCxBIAoVXQifH/9SHkYhfbnqBQLdc+HXzCXz0uqphJNU5U7NF8qippSdNolm+J0BebNKWqKy06oB5JtEf5AEbRZVPePeZpqELBe/KpqIZXGzcl4EvbU29ysd9Qe8MfzvKwFed1uQg5pdOHBgaAEbcXldnNKQYWeBndQJfdhOhxkcSA4V8D4mzIKF8jmPfr9j5xz80P33VRobgnv/tR/Xr/lnW/5MdfV3M8H2serB7S2D4sev6blEnYdKRnDe/duNjLTD7ZSorqFg8vKXi4bD4785leXPX3P/RdHdnZvVcLJJm8262vAlO8HFBHTC+njOboXRGXGglgM6ZpJ7+OAXvm+ckE2jhrJTRY2/Y1iGcyvV6Z7PzlqqHIu39xigv4N+OoGfWgwxA2OdIV7erbc/peb37zz0YfP6YzmW9wcb/MiFwPkcUizoPR8nXOR5o8UiuyBQc7fssFLQTV2h8Bl3QDJp3etfvDfv/R9xS99zd7kz7jaVo9tOv1F9x3z4vP+rPd094CSLQ1vGx7E8qzVUmZ9QCoHIEdxDWjOqE4hExb5HPHdMXBXnLp69eqv4G8K3EF2kEaMTRTcw46jwBd8IE6IBdeI9DcWs1sAqM9iP5QpTfUO/bA/zgLBw+wWEk0Utl68IESFpsN0gko1qSaAWHI+TDBqSXYHQkFafbKtmMp487GUL+B3x2iSLGk5WwmkIDTNI0tb9/HEmzK3DQoMYtzzboofID7JCbP33JxN1QubE++USDC37s14tCfUHHE4JE0vssoNDLjJ94cSBah6SwEgWMiTRkuTMplJZxgP/QRZshiaImIbC8Shiv8FeImTRuItT/30Fx9+7M7bLn/Vp//jP/XI4M18c1eKda4pEFXsUMwpoAN5e/Gxsdapkg0JAG/63H/9KPf0tnOzu7ZtbSpnoDlyXBfat4N3LYML4znhdPCdFmFiJNCj3YjNpCQ+k3W1IlUqTTXFeJgWbs7i00iPmYzZTTLm+npuCd/ZlcBxtD+vJ8J/5Qo5d3H39pMjew+cMLptx1m7H33iHPee8DpnUeUCHi/HZ1PIH+S5bDjB+dsauTwCkG0gQWtMFzk9neMK2ZRHDUc92q6htp33PnvSU//7w486uprTTZvWdJ/91f/3DltrM/kPq89+PX2cfAzlGJIFAMCVhhZH5ZGItDsDV8UW7MfhXb0X34fpuArgUV6j2QxJiN4niv7MQZtsxzkdOH/IAsD53I35nWOB4PzktqxnVfKayMdA0WMicSPixZOx8kxDK1wPEud+l8czJ87CZDIeCgYbEqoiM5opPV1wcTlVohwAhwb7X1Zz2rzOPFdUBdj8BFXUVadIPCFz38hKKKMaO1VHJ7MliyusmEIXorKxiXgR2plxRCCNdrldKpeWWUQmc1dVpnWa/IpgUWHoyKay2WVD46ekcPeJG59ztzUOl7NaIJ3JBlOZaDCbTwVKY8Mt13zk0788/8qPbtITka/yoeYSyDl5zuPOcynBb4dvMhsJt+i5NKULTAx8ysuu/bfc+rqN8WTDqgIUeFyH9RdKD/UVyWbkjwRYqwyMWSqCuTOcqgyi4gSsUdSnHFgdw51dINMcwYda6FmTi8XYA11nn/XAqjL38zNQlJl7qvfkvtvuecPzjz72ouGeA+sBhD49nuLWNvhASitxfpvAlfQSJyEZ0VmpL8kj15HDd34kLyrdCX+2d+/J6Y9HWkItzT3z7mDlRLybbryPqylPkLQ5SsDHO3oM9hMAgI/BnNnPtGwkvNc8IeZjRK8Cm4MpGR7trIHGOEiloBbaL+v8+iVggWD9sjpkRxL4wbRCuWEatL0RvDBU7LM8OjKyIRQI9kjOmQMrYumUvdEfqPo+ZCVjGxkcaCunIwU5Evdozz93PPfUky3ddz34aiTXt0QjkeZMIesS3FK+dU1X/9otG3evOmbLU/ru50e41qZR2ADzmPlVXhxvcybhIIidV1PZEIW8K1RUHXMty+KqSz+Y2PLkibkKhASGxo/zbHmaEYCZxOYM5HUu7a7tMLGf1B0NWmmaukfnyU4b96r/+sTnuBeecxcXk32IdimyUMjwSBcXjrX33fbQa6+5864L97oYpde3kRuhuRobYrZoxG9DpKSgqnYtliS/0kQQ1EoOf6noaiiC5xNAl8L8avhKjcLFfhTlJaWc9D4GeVU1j9Q2mqIPVmWnIiOfTQs05VTReCqNz+/1cTobzeeWPinY5SHa9WjMxRWz7tz2588YvPWud0iZ5Dq1Z+CYkGyT4gTm0HrJCoskO0bebYyXCQP3AKkuo4MtwtYNNn2orwWadoR3BOfxNBrgBe1tKypK3E3mTLyn6wCAx8Fd8TgAkThNaxen7BowidaCIGmILqofiJ9kvN/d85OUddZ8JWCB4HwltwznkQmF8v+IKJgiyYjrEKbPdqwUE6QdBoOhgdkAMJJMeAGAVd8CcsEETisJq0WheON/feWXT1/zx9e0p9LuTuRm2bBapo3mQsz4bPKgWfg5zCm7YL7LuxzlUZ8rd8xFF9/1ov/49Jf0xPAg53ZmuLKo8q7pSbkVTZXUgXAXQjQYuwiB4GQzW71aRfW8mhOq/5zXNDbLjZTcJXfD+jG5Z7CJNFnz+g6yfZpgwmRmFHGafjN6STIl0rOCX8y6fe2sgnzNOVSrbk8hl3n8C54v5dWb/iRyH/93RIUIihjwpohvk1I0wKfFCfIUtDs88bmAwYYpfDawspj9MXCEaM1q1whsJq4ABOs7kWCbK4kZ7Lrjpk6j58ahtWM3/k0gyPLdloDzkm9qLMgj3W7POac+EJSzTXtvvvV9flnh1Viac7IgJjLzUjqL+axRLiLs+nDBaYh+/duVH/q52tYYedsXPvlV4YzTH9Tj3RG+YT2ZYuveoLl1ALxOAeA9BT+fDDDcRL5B/E0aIJEZTGmdoYR4Ck5lssHjAFPqaTg/gwT5++u+uHXgoknAAsFFE+XiN0R0TnhB/JQwS0TBBIZULoYiQWFqqStqzA7qjXwxT1GCgq1UcqXuuPfSx275x9tyO/ef2GkTJEEW3AFN5BwoHlusoIk50Zvp0GyyRL6Yq6zYnIWyL3L9ra/5y/3bL3a1dAy94KPv/e/AhefdgkOmnUBU+ANTo+FOCaY4RpW1iGBVq5XUC6RzulOgLBMa/WHwXR43m+Y6q4ZUMd0yHVInJvGpN5fHx4JihEDAKJeUy3sltycnQ34SBZvosOvlUqQJTtwo9QTUMgRKTNs7SM5TCH7SV9NHt0661CTYm5NMF+Fg/cC+rue/+/PPP/O3216/uaFVD6qaz10oOuIFVLgAcxrlctJGODPOVU43gMBH5RoTeW+xpHl/9r6PXeVeu2p09cUX3JXZcf8PfMed/8RM3aOUJNL4iCINC9LzCQAp5QEAeAzey064KHYCAAcnFeOd0CQtYAn86Bbj/T6FAtvwPj8IcFzS8liLIPYjsgkLBFf4bSVnOgEgdRMaIKOMwgtnR2Kto7GxccpcKHNIKJ3kxrlpPZl2cNFY16N/+P1nYw89+vKmgtx6vCbyxbExrpzNgsGjBCVAA80V8rpq+EFMc59hu4EWoiAgAYvbAJnV9g95uP2xzbcf+MI1vpec/We9t/tjXENDmPcHD+qTz+1Pj8VSzS5YgZwAQXFBBjJjdKZPkf5N2tWco3Xqve82Xgt1rerLTuPwIwwhPavWz1mbPjD1ZdgcWP9SIBBI+ryBTBwX0il/DkV1VVTkOLhtaBgqyjuR75VJZK4G23qFUlnIkHWRPRuENsa5U6Sp1D/OOi6vJ8PO2D/+/vpfv/F1X3EPhNf54zmuZauTw3KOyygxLoZn2YcOkWZObDNVLbWmkw5oux4ECpWzCucFWub2DrQPjtz0tqHHtp07et1vvtb84hf+1d6yPjK5O9D8AuSPB2gxAMT7dw9VeMDidDOitFvxfh6oBwApRYJ4SykNgmoGAjifoPqHdQzfOmQJJGCB4BIIdTGbxEvnQ9SYAy9N9SVBAm1dodNaGekT6bSy575HLn/yJ7/8H3tqtHGNKLncShFh/TJ3YGA3QuQRpY6EZLKCkb+KqLlMBjDTXEZmpTKVEqoQIIvwS3lh6PFAM2kbk7nhP/zltb95bu/pF3350/+hxqO3CQ1NDKyrW7HoCPf1r6VacqYmOHlmnM9MaU64ZrL8Ysq92pYoKiXBpixKDqLpwGSmx+m5LQ8ah4ywJFhi7TYH7gQ9BjwH4oHOg46z2TVo/kSduSSiONSNas/3rev/3P98/q7fXfUugZdtWbXAbTx5ayHdKIKXvaAPJSK+YisALk6rImZpxG4E+zCeUoqBxcNNAUH0wNuhETrxDBOPa+OYykmZ3nV/fueVVx3znrddl3ni8f8trunoRSlq5I/YERTFi8l01uNwO3IwSWsNTU3/pPVioVRcV0RgjMvh2E+8objItAFqpPFRp4glBgB4NgAwjnd511wL+h7q+3CkXX/plopHmqQO0XjgKB+E1rcRyexrwSDRMlM34okEi2DM5rOiXMjyQd5W2n/TTR+74aMf+P1qNdm1ilKDURyVgit279uJVTIqg8NPRBE3QexEaUazrUBBBdhZSgN9Bw3OizJ2LgSPakR2TEEhYBNBgUBOFpHQDKqPUM/OVfe9823XPfmfX/qhPpahsi/jm9tVGBobaaFKDGQIoqpotbZAc8pmGpS5TzNQ83cW8MGmNeMck7h5sW8T7/SqantjeDHYaDD7cRpicdOopufKKm69WGerSCGT2kLDRWg7xLvZjHIOgZGBVeDQnPj+IoiHRXsSCK6cN3tBiNyXHWEFhPXb7njxNa+99NHnfv7L92xMybb1aZ1bBWGWUlkXCj0pMFeDQsnGdUUdXAeqTTkZx4yNczgCeIZR+gp+QHpYKK1lAAUQ46i2lGfWR42TkKpS5mUuU4hzXQDWkZ/99F8OXPmJPwlDgxtamtvCgsAXdFEoODzuIY/b0wc//IBTkgZKihLCIrUNKTT9AEDy52rTVaSoNYHCQnMGRXfjnL0WAC72Gzv39lbOqzL3vh8VZ5DDHSbNAXpZoBEKeIEOumfh4REWpd8QCsmJYgbvrK4hMV2IPPLopY//5nefvmTDZk4o5GAmQsIxEKN39z7OKTrBPUysHHbOg8IELuxlTLAg5gKxhruyE+ExeEWwg0UTuWYgPc45uUYUuXZiUUt+J7eKAqvImQvlC9yqvMztu/amd/zt81/8gT42Mu6zUktCLhpvohI604GVmYBtAhuh5FRmxSrwVQCwFgwrD8SiuwY9DQ2xBc3klY6VEQCKtQPXCl1hx/ev+txNZ7982y0XvvpB/S83vUof6QvpueyUfac0Cf/qpv6kpHBpF3RBB+oKptMNXL5E8UvjG/CP1hgIHGayM4NcVsCLMu97ssbbruhPP3bcbz70seuaRsZabKwcL55S3Hg/FgM+2ESEhOJs87bqbqGBUxAVFOU83CDv4DJNTVwPtL2cy0WhzBADlmEQDMU0gbIUwUVU1gnPMRZ2QC9WvknEDWoAUPY9+HDnLV/85g/0nr2rGhqaYq2h4GjQ7UqA1oUSLEsFTXEpqO0oOhzdIEx4jt7TyZUjKLCNZF/RAOkdtWMhew7e5Qw0wJ0LqWi/Au7pEdMFyxy6wm8l8QnCz5BFuHWOSHin6m5LR7sWjcW8HpcrV5ZlBMHIwujDj7z26T9e/5nVPN/kRB06O3KospEENzoIP2BO5ZLQAkWHhyuhYGwGK+aSz8EV1zT2bVi/cf+aNRt6oANSwRttpH94dc/2PSeEewdWe5Ck3CWgHQ0ZEqDvklj0nRFEz0ACE0wTfIz9f7/57U8e03FATye+w2oPZYsuLZwMOokcA1GmKoryTZ4Vq76lygBN0KlU6Dlo2Iaf0tgmn7vYtzQYaATbx7zn8WovzehRL5hzYg88eG6QCvNpJe5vTz96c7Kzudfe3jXwj3f+6+BZr3rpnxtOOv4JUGoWYKoucS6bHP/dTRlVy+klVJWnVJOx0bHWtXaqM1gLgjD6sXz3meNUF1s+S9mevuvZDde94wN/ahyJNot5EL04UV0CKKbDOiEg/hOWfdgXXcpArpDPd3XmRuPZLr01kOo68ZhnWjs6Bjq8weSjv7/2Qw3Rgs0BeQtlkfOAXYasETI0cxmsM8T2Y5IgmA+UA8uJ1L2PnvLXKz/zF33v3jdyoYYRvrmJBSxlc+lQLlvY3N7S/hhkXRb4qf27pBWaGiA+XRQ4Q7RpAMBuAGFtVPBSitBqexYJWCC4wh8RKtNCeYKVci3T9lbygB8R5X3AyaQkH3v6okd/8qv/7ihrqwSsbDWYfYrRNJcYCnNlsGm4MBFkPSIX8zv1tjNPefSUS196Q9PpJ97Hres6wAI2EFwHIyiVktU6USL8dAV/p9KBxFNPnbv37rtf9dhfbnpDCy/ZQ6gST6Ykqg3HwAiA6MH1UG1WuPW/v/nVgKcptumiS2/govEg0V6h2htW5ABA01WzGLIn944JwjWfi9G02Ub76rW7n1mEBmm5QIVpqYZeUUvC7AxNGn/boaXzPem19n1Daz3iTu7v1974Zi7kUZu3bnhuzSnHPb7hrBMea8gWQutsIq8VM1wRSs3o2HDr2oqmMd41Sr5gwaFVmZiyMd2E7O+KKXkRhrSkTej7e1vvuuKKPzieeH5rMxnfHZRjCvMltD2C+RI0wnC5BGB0DLWcffL9m4/b+uyrNmx6kgv645zfm4IJtMylSoHIn2/6F7dNayF/twD0c+JZ7LrshfdEB0Y7I0/v3txsc3IOCm8iNZ2ldZCbnOfWy+BIeOCZUx/56nd+cfbXPvMWDDYfzcc8ZQSINTc1PSqhbudMAqhogsTV7UIw27qKBjhAEd5LKjir8TlJwALBOYlraQ7GChFOC1bhWsOLQiS6VOqFFeas5BIREM54cb/TWcZauGTvi7ZffeUnrurMphqd7e2chMRsGRSJsd5elmqsQ5PLOByc4/yzH3vbh//ty/zpJz7GuYQC72liK1NZTfOS4J/qYin83I8k5X+c9aH3fOORX/36o89c96e3d+Zikg3pFW5UWhAwuUiYnMR8ijureT1367e+/rVNHW29lOwtwIRXyiP2lCoFTGGEr07Wk0c5qSe12h8dWnse+61WRVys29XaMmIUjZ24TeXXnO6SrCYfxcPgo4RESYUqqOMLptpjKnUXYVIuq5wHWjvo6Tg5rgr5x58+ddeTT576zM+U93dg4RIEbyjVVqdFRHFsqJMbG1iDs8kXZWwqYnxhNkdyvIMnUmxmUqaqF+Mp70w8U9zdxTD3TjP2eTWtxyKeez/z5a/zTz135hrEpYA4FRof5EU8rQLIjQBmcP9x+Q2dPSe9853fPe5VF/5RbOhiXKT5xLAPGrMtKEkZjpd01eXIlbC2c2DwFJlMQTLHv+v93+W2rNuz/Zo/vm/btTe/zzcy1uBGeSd6zcje4iCjawm0bLgnj/z2ly/uPP/kd5eiB65Oloul1kAn8YDWs9GLTAC4lkonwQdoAWA9UlvmYyyf4DILvPZycKp7wdByGnKOqCRSCKHWq5A3tA4JuGvD4fBZPT09FyOKrJOqRdRT90wSbNq+P992hWuovxEMz9zIzm1crqeXS27fwzlgyrTB9xH2StyxV77rRy/90fffoJ93wd18U1vcBEDq2zQAWO02kpRT+c3H7zr7a1//8Ot/9NO3FtsaMppoh3Zph38QUXhwg4gIQsj0d3Mt6cGGHb/63ue5VLy17LIVFVSkBY+oEX1aE9hCjVc1FZrka/fJwGP+VvO9kXRlJHqTxjyb1jzXW650tEQ1uw3F0sc1XqONcRisxwBJ8aAeGdoIFgs+uxPpfyCuxMIEnJdcHm0noRWOQkkowPdX1ovw1Ra41nyJOzZX5hqIBo1AE8fQeAcfePyUq1750ocHfvGjf9MHB0L6kzvWcjnF63e5SrwNBj7i8za7x2x9VLuPApOYs9CQVSWDjkXXzlUoS3i8nopJ6rYnT99/zW/eI2VSLIK5SExDJVgdUGU+DaLsbiCVesbxz7zjumtesvU1l/96uCxVCw27Qx2ZksNbiuSLyOhRBVQidih4qDQ8ePDKUslfLi8HNP7YU/ad8I1vffqtf7rqIvHME7clnQ6uIJAOSAZSqnQCfyJq765B+aaH/+8nV+r79p7mEuFHqGMjkgt6DvH+ngZXRgxpEN2WBliH4A7BIRYIHgKhm5eEk/xUJMl2V9jjRfgKwlgt0ipTR+mV59va2h4j2iVEh3bN1M10lgxkmOeGox2jzz974ZqONs7tho+vKHMIpOGy6TyAReQiqEV3yX994vNbPvzurwlrVw3YvY555SZ5vA4F6qXe8qILb7vsm9/4cMIV0GQqLivZmamOAMEDomaPwnPb7nzgXPnWu9/oKChOg71jet/aXL1uVaWvMoMbrF8VlpIF3le9lBD1fMytp8M+UQWFXNmMaZ1rL42OUBfJIsy4UyGDWKbAKT6RO/HyV/0jvaZrqK/Rr+xqdGv7Q04WxEGsJsRwQsfnILgMQK0Au00ZAEec3S0wqK2LKQ0PfPRLP/35xjPjv3vZa7c99Pb3/tOXTDeJCPLg4QOm1QYr74Q2EANV3Ym1p1Rh76HvWcTu/IY1o5Tn3WQ+573pu9/9r1YfRXWSrmwYeMkL6JP8XBhmys2Xv+ovb7r6Z6/LBdxpR9CjrmlqSdR2ps0ZLHo83iRWGshecCr0XMCswp7NMrnwnHg4za2ts//l//ON93rPO+fhIrRM4popMrkZBTD80ERz/SPNex964tW+Mkl/5o0CYSjxHQvZS/E+98GnP0I0h7OdZ/1+aCRgmUMPgdzpJQEAnoBLZxDx6cGqkUCMin2uoigzaH1ZgFc7cQziJRoLBoNjAEIPknOnrDdX1nLO/HB/k/LPh1/LDw8ds66zA5SUaTSe5GQEodgkFxeBCnbOR6743453/MuPEv768gxnEg3fHCAALen55LVv+7bdeefn/+tnhcgA58OqWQDPMZngJFQBdwAc7/39DZe5gSHG6pq5XaZUPeaS3labLF/VaDD5o2Y4fDBEHDb3TS+lUWldcXKJ0ZZd1/3i8oEHHj+f2z24Nr+vd0NIhRrLOk9z4DQDqOOSKoCN5aYBhOJutbzl21/+8BYVtSGGwqty3f0bM3v7jtv225s/OBQd9TS0hPKR5Ji7GcqHW6F6ejgPqEgpKojtQJJahmuCmbRFK3BSMe3nowN+xEeytknrI9BgJlFaINVo3mz2N83rdAAVsq2j73M5xOTrrHBY132qHg87knfcfnHk/ofPbc+xSoLGuazikM5FZIXbfNnL7zjzm1/+ML96KyORmG7zOBt0fbC3lC/kPc4SVg2IGDVNEJpQtOmFMM+7WnS+a30MhBKpl337u+/8/dvec0epp3eto5hChDTlzsKygYobQinH7X/g8Red8LrXrUYjrIbnVBveZbge+TLe1wsBfqMAw6wFgHXf/kNyoAWCh0DsMHduJFMJXpIwVYfHtsPMLwIQusA+AaXQPYYdWJimZHnbdABI3Uf0Yia7b/uqO35x1afXilIwm4hxyVSKK6N4qwATKK36V19yyQPrrnjvt7JeZ66Br5ISL3j0vDso62PhG7oevPdlB377m9e6c8hDFB0s8Z64K6lqHeVi0Qqc/T80GYNjZfLCeF64Ve2/4esihhCEm+iMlmrWTdVzmKPLdr17uGv0iefPferT3zlr5JFnz8/s3HZCazllkzDh2hQAOQELQTiYzoixZaG2Q0ZijWZGoJ9wTndakZpTtmBHxHfsKU/5UDKp47Of+qLePdoxdteTFw898PTF/U/+6SWZVH/QCfx1Yi6XbBLnxKKmAF+vYpNhIjX4YYiIgBK/SZMxksOJLJvIyinWt5I/Tsa+Sl6JaQI1Q46X0CRaP8bCh/34LX9/Yxesn8i+YQwOVENQZeZuGzcsccpln/7Y57iW0OhsNzhXjPNcTi61d3QMu6PhpjLYZVg6BLRsxY63okY544N+VR9ND731f7/zpl+99vJHO7GQi2B2JDCnAsEeumGxZMsjt9z2cb0Y+zDvbJwgLjMIBhqngAXuyaT9wQwaphJJs/XT+v3QSsACwWWUP2l9YJhfS+HRpPFh1WiDOXR3bYItXp4JpMrIEczgpWLmzpm2sXsfvcSz40CHDCqXSG6Uk/IqJyOKQhNRktTXzh1/5ZWfh4005bM3z2rOme1ak3/nW1vi+p49n3r2nocv8oyM+CStyDQQ8l8Z/j2qXkBAwkiDcboRoj5RIzRBsWrknGs3YEa0cVlRUqVKrdQRPWPzI5/AI3jZhJXR0vi1INkHelar/ZG1o9/64ZlP33LXq5VdzxxvK+RESuanSa+RVVqnGuaYg5l6Cg0TPxgAOH8tkPpgFoX1YDHgCrUNc56mrORtoHsy+b5047uf6fnUVadp/+4IP/bEeYP3Pv7ixBM7zx7e1ns6N1b2+FA0PcBFOCe0fiI/pwaoTFOaIaHGBeC9IgVKRXkh8oSROdqOCZ3MshUCFSbjWWKu5nwf6ATTr8tWI3NB176R1eHbH3n55jxKUMIamkMDDTn4sp0AQVT9Ov3zX/iivuGk52zO4KwV4ZkmGB6yBRsa0r5QE8oTIhgJOa0lrBZA+qDzzrYJPePb/AW9mH6i8+Uvvpm74Z5XF3kUpa9w4olY0LWU+ID+7IFzUXKMcmBTpmBqEuFt8Xj8hagFOAwy7N3E+WvRoc3r8VnWkywQXCZxV0ygG/HpwYuRJwDEizKEvCEdATFVpz5xhZKWCDNotaI7zKEzhlTr+bjjr+/60KXuUpILZ2Io6kArWOREIVYggsnw+IvPvcV7wdn364WDE+0XbfhtLcNnvPH1Vz/9wx99tKMm0oK5QthUQ6ykFQCkVb3B8jzui2LHzB8A6Vxm1OOhumklSc+PiKpcsAtZxaV37w1wg+GuwS/94JVP/P22yxN7924idhwvpXTgHCcmRmblhP+JtDTSVWkSJ6NqERn+9Emaba0Jdr5yY0oY2qYcS0FjUSozNsWD3pywDfvttOu5FBXMc+iIAn7ytr+/8Zm/Xnt5fmD/hvas4HcpCjzIMH/DVurBWS60rQDxZDwLKmmxaMAsn2QG8szFBF3b0RnTLBhvp3EFZg6tEwZhCnUd+O0fXwVHNigByB9X0WLRhAbBaZ3NydOueNcP+UZmip91G4sPBFE9WBAlSV+1dj0Hhj9uLBqFbxVpQ+WpCcx5p7+s73r+E7f8/f5XayrFiOLVY8FIRjrL8OBABzc6ug4Xf7amA+zBJR8/3tt+MoNaADjr7VkxB1gguAy3AoDnwAuyGVrdAQBeC3x9OuqPIScPibfZrBvfhWiiIFMKNMUgwHE87H2a/g0PD7d0dHSE1UKO5yL9bUOPPnb2BqGIyEzDJCYQGTa0jQzyEU7+zAc/x/3xV5zMwxa0VFzTyAs+5p1v+fHDN1z7tvLAQIMRsWlogYy5v2L+NKrHGBPkwQpC/Vazg8WC8kIAfBR3c1BNPuWZ/Sdef+3177Hv6D7OHo21cslswIXoQi9MnEH0hWIAEd3DekWBJ4gbYoEQNNlRv0l+NAk7qCwP5ImaiAvwBBq9pfEWUQkdwZ/MJOmkCBhg1lweQd4TMLXG/Tjv63p27NtqMR4UUsnQjlvvfM3+2+5/qbp74MRSONE0Vshzfg/Yf0olLl9Icq2Ckxmlx6sqzOXK48eaAGjev8l3zVzKMCCjVVChRM642Tde4nbcft8rm+DD1mQQMuDmONnzAn+yLnFb33Tpb4BEdSeZOyRYVaJh1LHk9SxSHRpWdXIyfNaRNFUcZDyeU2+NDRHPhRfclrzzry8jz6pGhOQ434XIVJeue/Y98ujb9ELqOd4VYOYLAjykObXh/VUoEZ6+onSn2QdsHbESJGCB4BLfBQp6gV9vE1aIMbwoTQiZ3oqoz1vpsgA8CVpfCT7BWgd//0xdGhwcFLq6ulQCQLTlFVyebP7+W7YEC3kXZhuGPKDyZBsVEXW0NaW4Fg/La4J/cNFNoWZfFaCHuGFNz6qzz7wPIfuvNTpgJB6bwRn0lTFx1igHczGVzXivEIiDROqufNl+zZve9edMf6bRLdulgK2I4Bzk3mG6ImAjHyWFyMNrxsyd5KdEYh0munGeFSOnr6KpVvo8W55mPY8RzecEgqSl0RQpqYDeg8lz6mmqegzvbSUrAVU8iOilyLePe9v7fsSNRDvlwb41u3Y/eeb2f953ceqp3acFJMGnZDMgxZvrdvANIuWuqriTfOgeV5qtTcqn71h5oClKH07Zi6IqKUORVS6khRArDpmmWcURPEAiAHLdy190K+/y1h1lGfS2lPS+/cXde/dt8sIq0gDXQLCjg2vwuVMzgSDf0pl+6ns/uiN1119fxqwVRsQxp+bznMfjk/Y9t/2MTf9CBn1jZQe/fpAWuniPnybTKBFkz1XK1vGHTgIWCC6h7Cm6E5peB0yeZNrkAVrHAsCo9h69OCKZRKEd1pV3hGAZHo52nQBwdHS0A+eNQYOkOS0b3b739AYFaWxYsdLkShM+/uJKmsI1rd+wh3Ma9ensDveiQc5ksUmeBmai2v7lL+3uZcnzLFeimv/Hks3ZTGmAC/ujol0ZbRHwjLdaj044OTePTHA+gJt730B7u83DeRAAUVIheuR7mekZPCJIKViIgoZMbVWCvLTqTG6Y8ijvkEDL9J9VTHtsxp/VhFgDCrVyojFJuD8slQP/xsKB1LK6J/XZHlXe0UzN0r3eVyrGeo4976SHTnrP+/8f1zO2JrFt92nDD9zx8pEd20+K7O3ZYM8VPV65zPmQKUAFLTRoOmU8PDZWkxDyqlysCnbMNFm5K1UBGDKqBUCDQAzPHrWJf2VSo+6en//iyrFrrt7WsnHDTm7tqv1cwJ3i3a0Hj7uQcZYio60wY2NFBf8dbpDIIlexSGnwZZwnH/vkbDI46HenQy4hVWjvwCh38vrNnB1gGAg2pSWHs1RKjYiOQPuUroaOM058dIgs+ZRPiXBbyu3UQVYgFkqCkM67zULBiUQCLuQypTTtJW5fvOtLttCc89itE+qSgAWCdYlp/gfBLMIRUS6tFOHbe8psCVoh/PUNB9Usq70SaXoInGFlkwgAa34jH6Id7cqouits/68vbxJAYE3GTpsK/nyaOJBMrMA82Na+GtXfW9LzH0H9Z4LL35a75hqkyQOEKTK1MpWaBV5ZzhoDPxMIamFskntsGiCZ0JtJkE6TLhyCXAtj6c4jUAQmNTqBLdory/ZKRXjqRO0szOZ11p6hurK4ygqIm5M8o0Oe1K+pVhXTATgBhIeIm3FhGRcsCPBEkhNyCTaHs7E22GYvLkH7H/XMqJOLp4OFhx5/0a47778s/MyOs+IjI+3FWNwtgIIshAnfgWoVOi0SKNoU8jLJwRj5NHOMVroMOdGY2GKiIgjyn5JZOUtPKI73gops1//++EqUo9JLXme+3BSIrTvnjAczf/z5rY51p24Tu9r6QHOGQhAoATE4GJSTERdbQHFFcHvSc2KoyraO5iFOmEfNPZhjwe2p8QD7nj3d3LoN6zln0C07JXee1jMD4WHHqpaOg3yMTZ2tA7TgofJh+VKeWQyoLyIA1Z7JezmkXaBboB+1l7AgZe+oBYBL8CAvQ5MWCC6tkE33CPMb4CVh/gykQfAAxcRslwaAsjkcGqVtbGzsOKJRA3jmAKajVLkaK09CDh5J8Y6iDIYRRNDhWLZIpcRgAZOJ0+3OQ4VcFvMMKPXLhT/8ruT1eTg5g3D0qrvL0BgqEDMhUsIEjCVTUWcT8hS/T2v6XKROEmgYJrZ5dG6Bp/C+NrJKjOrZ0T+d+rpLrgO8CFwBESDP7D7x6T//+R099zzw8uHeA6t9uEtu0qxZekAlyZz5clF2CMsLKtxrKvcMCCvarUFMTf5UqkuJZ5ByG3G+VsrzjlzOg4QQT6nvjrfc+7vb3zJgd6pply3XfNrWJ97yiQ98yzmaalsbaJTFkRGhjIAkerrhL0B3AaYeAI3DXbc/sComOKHxstkFAJkdq8TR7n1c4Jg1IjHyOoPtzAozPBLjO9onpjwILmcevD2gqINf0+viGgIBzh/0cymMRwNnbiGVasOpCRMAF3hbrNMPoQQsEFxi4SNSLIG8wM34jFCKBC6Xxr91JNOG8O9pNUEApQjAE6ENNuLfJeQJ7idNikwvFECDNoP4blTP5wW7YFfsLAwegR7Q/lgsGy1zmS8GACQjalAi78rSb1oZdN1lTYeaSutvNjmanB+GxdMwezKdsKKhMXCsx/659N2f8QqHQRfrlhDvbTMXRmQOpP1h2vXwcIgbGm2PPfrEBTvuvO+ynseePFfM5Rl3i4AAGxDAwveKdBcK+8R9BFMeJ2MWIdAjMzylFPhYriK+B4hQjiqqdVHGBrhx6WEoMDIFCinxyEVBU+wB7f4nLrr34WcvELzuohBNu8nGT6UWmZ2A5dIgktYOMyPh75w3OzleNbuagkZLZnA74shKLccBGs2mJgMg+x7R2QWowGQObW5u4BpbWjFW5IxKKNGUSHpdHm+9/KFz7rF1wvJKwALBJZR3hQg7R4wR0AIRB5OjorgjxjvmgjshISFKdEqfIPx9TQDBQFNT017SIk1eTHK8E+coASBLrYDmh3U5i16kqgSkfbGZYlzNWFaVgzRQk5dyCUV7pDRdMbCunOHwLR1koaB9Z17P/PTcRDik7nj+lMzOnuNHH9r2on1g0bEN7m0gFjlkmzNfK5EisFqROImqZBjUcFS2SAcoGukaISzINBws4z8NzGM6AJHHbxRCAuWK0+BOU+WcyPhnyfhoms6Z7RwhXzn44TKFJlxiRhfCQZIkljQkwNjh5yTfr44MmkI65RwaHFwz+djIUMze3FkhkhAERYNZ2AntL9TRCgxnhKvcQF8PF/XA1AEz6Mq5a1ZPFiIBCwQXIr06zqX8QAJB0t5q6ZMQSo1gs7yAwBkJKRFVIMR3HoBbMz6b4TPcg3OIh5DmFx6apARzZ5nqCyJQxgY/oUyaIE9l4IkcmQ4ihmriezpEm01BZ6j206QEODNpurb4TG0vSUmos876IRrZ0XdZN++jWxTHfhft5WLqR8ejgDv3XM+mnnsfesXYw8++OLuz98TSwL4Om5LiCpqMYCzUqQTDHLk7EQjLkJGeSzJtkjuWpZ0gj5E+6TElLZGH2Z6CkexY0FFKDZXNFfAwBIvM2g8+Wo0r7nrkxOuOOab3npe98qFVp576ZNtJW7Z5Nq/Zw23cuB9kENlsPsd73Z4pHvwgkmK8UFaRmlLJnXSky1xTMBRJh/ud/pbV1XxcAsBYIiqoxUxAi8dF34bO4dWNreCQLTWQ4ju8e78tmwDn6xrUdEK1l6PviTgyR2yB4BLfV7JdEgk2wAtEEs4oRYSaFSEICGHu9GN34XeqEk7qoh8A1wIN8BnyIRJ4kl5HUaYEgpRrCPAb940g8IbCB1jQCU0ybAU9YdN5x4SgmiUbcVHNCdnf/15AfUGmDEzshZEqcTRtdB8OBzNvvffE5mSJ+7Rvp10f7fkZC91MJkIHHnr4ZTvvuv8lkad3nI6k2JamVMalEiBifcaWcJUTKeIzR2ojSzAAKw+QkejgHMw4yyTGQmYZ8ynOoyhdMKuyKFHEUbvLd91z8YF77734aaq24cR6q7lr5JnPfOO3joee/Ic+1Leda/Rkgaxl3hcyrlrOCqipiTgxG2uL0jIJeBX4CRtrANCUQWOoicAtpidG/M2BUEbOF9Z4dLs9MRrmcqAitOF1REoscmwsQux6n5uVfpwFgkt/hwigZGhvUYDdZpg/Y7WXRPQni9yE6ZMiSD349FEFCQBlCQDIkozxXQjA6PH5fL0AwINCuglnzUALMkdOUsIWfYSx+JjPAx4xh4C+OLN2Lpv3cYJb5p55bl362e0nqYqKtGJjmwDIh05BXXQZWA3iKWtbl6rIIYnPn+j56E9BQO7ilJLrif/3g89sv+fei2LP7DpplcvLhcDfRnUnqbCtU7Ah4jLDIk0Z6ylFM7Pn1uBAZY8J8xcDuFjQMBXSxVcgE6X/iLwgiJ89iK0tZrs7t3/ne5/Z/pP/+3SKV0sbTjhu+wWvv+wa/cl7HuYC3jg3uCvUrssOKiRNkx3VcMyLyAqBuXPGeyiKSkh0yeVsWosBAFPYHWDjwQoPhaTJr320LemO3CfeAsElvrfQ5hSYNyMwb3YCwDIAsyA0ugx9b14a4AeqSmKlKLugHUZwHIVcM+pKAGArzncAAPdDk2T5fhM2ZAcyFZAmkklZBjR9LDaDvZqK+ew2gF8WYeLde457/o4/vHX7/Q+8RB2OtUmpoptPJ51uLJR5xvo/aTsU4ZBzvL8mTh+stBpayvhWDfyd9B39aUzl1bmyRh08kpVh3t1EAqJnNK9nE58+45OfcHOpjC8/MLix+447Lhu4/+GLRnbsP86dKYo+rO88KvkHK4EzzI+IHaIzZaQCcHKIeKYit24KsjLwkslXID8k5cTimXKCxlMoOm0BlM9Vn3nqjBvvv+sMbm1brOAWsltbOsPS8PBqKvZMG+V9onwUyJRmKYmEwLTePfvWKmMxj1jUOCcCzwjAKXWGol2RTHkk38o5vjWH9+EWCC7D/QOoJQFkBII0QUhEsQQwJLAz/RFURR5GFzv5+zKU/kBvOkykHgTBoB6np3tKAKS+MzoWeikr8S+TgGYhIKiqUcluh0OmgMr3uaK7+MiTLwx//X8u7N255/j+nbuPzYRjDR45ZXPDJOvAyp0vyVi5UzoEkY9VsLnyacxsZLKdWh1cSUriZFow9ohU+j/OH2r4YFlKIjNB2zg/6k3EEf0IpjquuYxarkgjyJgJdOONzOuJU3NFm+BxziM6cl6XW/BJvDfEcuUr+7BeiD90/EeyQS6eCaoH+jaG9+47oe/Ouy8d27d/S2Yw3BYEg1wI7D4qykMxGcPaqIDsgSI6GQ8pkzMpYEZlDDPPhjhYvfA/5otpWCgpP7XAdaCWYnEk2qhLQmNq7/AaPyPJI54go6iwaZ6dbpDZ+KioK0VhsHfYtwoVUbyoJ0jpHiY8U7zqIclvWfBdsRqYSgIWCC7Dc0HgBkDbjbSGDQAl8v3ZAW6t8P8VAHBh8vsRCGKTaKe5FdpiCHyjG6EB7kQkaXKGbhpJXDRxVHY61gSbeqqs57Uc7wLRcJnX7HZ3YxEOSAeYhlvLDz1yXOTA/uP2Pvj4udvueuCCYDwdas4YefctALrW6lq4Em3P/qb5wSRrptV9Bd7YHDI91K0U3xnT72hNQZ8sdrPCHEMTKPuR+WDZTukexMyjYhGgIqUzB4aauMNW3tDSkFb3DQUpl445v6qWM5rFD7qTdWkU9kzRpUcyZXBnFnnP0jH/LNXrwLsa6CEhVwDtB7D/U4/GfozyRMH+ux96xf5Hn37x2LZ7X1hOjDRmIzEG9wGvB3X8FNwPuOAAQqwCRvW+GGs/qlEJ6ya0QcMFbRTqUslUygnI52NFnAGStFAh8yvdMyzrmP1kurF6G9oUXUmlvV4n55CpniDMthUQphNpiWdpgkv1pCx/uxYILpPMGYcix+0G8fWlCG7ZS/4+yh/E550ASIPGksW18BrMoz4c94r29vYboRmafpdpe2pqJxUMqh7HzKP01s6yuTJgv0hmArbocGf+d787dtd/fP7F9990y2ub1ZxLjceFRuRGnYDQchFL7RIKk6pgAakuxads2ygdMPnKUymBs3Zuts4vyu8M7VhLJiIZ/adgCjvGawRrkHmOKo6D9gBmNQkAiOJ2DoRtBDxpocEfaT9+87OveetrruZisbbbr/iPq6SMUmUaY43TImUe/Y3ce++FX3vVZd875Zite8644LzbM3fe0efdsnY35/GmOFGA+i0ovIdpXofVxjc1mmXDfpmPjv7JpXzAgVwJR+S+h19y/01/fVPv9l0neguKx5bO+RvB/u6UkSgIJiAJz6EA/xyBHwXQAOqYmZII1G1GfgZL0xmHuUr9korwKS6nesNnkBjLs6UQVkqtqDDhUBOGJmiZQw+rh22GzloguMx3sqWl5U5wf74SATHPQ8s7gPpjpwHoktD83PRJ2QVDQ0OvBMn2X9C1enORquvauU6yejEuPfKdH/7nI9/64afXKrpAYeoSVtzr6JNWv5j+/RRTh7B3BblWAlVcIMfKdNhqTvR0yCyyZV622Q6qow3zkMlNjRuwZrvJtLY3LI10DtUOZLXpMZEqCpGvaZwn2MalYYpLC7wsNIUSHcecvO2Ul7zypuazTn6Aa/VHc1zJ6XE7U5yLL3GPPXtOSrdpjTRdkzZYIys2ZnOvs5xDk5xzrY0Nr47ctPPE66757RuyWIS0hVrK7rUdB9aef/p9Z7760j/p+3fs59z+FOdx5/hAYzXsf7aRr5Tf3U1tVWo/+BN/f/kll93EtO5C0cEd6Ft/y09/9emnHnnifEdhJKBE42InqmM0oiqGCGC0IQmChx9apIof2Cn4ZULYCnsWWZof+zRu7eyLQ2QjAXSNJ6PMNEqjXWikpIBOjH5eKYK0+jFnCVggOGeRLewERH3CJVi8k7RAAGE3vY8we56IiNAnoRGK+Pd6JMLfiZe0AFCsazIzODUq5tCDuzeLsqXbktu3n7oK+o1LRTwO/DDE/EFmJYE0IcR5FssFwx9DvhnyjcwCXJM10vlKzER2VtVh0mb6hSYPjqY2mp2IyYS2akWICvBQUwdPf0bRXGY6wwFZUFcmQJFCk5/XF8xt3rKlVzjngn+uPvWkxz3rO/bxzYEo52+N8p62CYFKSinDC2VEy0ruoiS4EEpRMuIdayzCJEdaQ1Q+61OEBbsqDfQHV5clzuFwclkEangScZucSG+K79iz6c9X/fF9Nnuj7mjrHHZs7Nq59yvfemjdBS+4Q9iyZi/Hw/jn9uV4n68uovb53qvFPA/+RPKJkz+RNvqMqrnEm19OxujBXevTe/acsPO+R17y/F0PXMSPRDtacrzTCUuFXUa4KJ5RG8CTqlCwQsI42SBEx4a0ebr/rJjIbBuzeR781JHOaRjILU1wNhEeLr9bIHgI7hSCXFIAvGcBeJsoWAZpE09QAAyVXUJ0aD++SwEs52Leqm8ynWqsxaKjxe7QPGAKLiH2HCV9DZJk+h/+pmrwLCSv6iSbev6oBRYTkM3LmWfMrZOTTVpGa+bUY2p5JhjWmhqJ7JhYdJhljAE6IZ/RC/b/BwGhMbUV4TsS27fKrjPOvDtw8rpnN5184uPtJx3/KNfWEkcdv1m1ctHBkstV/dlHs2le1YOIkMEHvqqMBf+SKysWFj9quBVnF4tSFhyOgC5lC3xRR64a7HkoAAETHWi8cLZIFQ7UAV7v7e9Ue7nO3jtvuHjPN4T/0to7Ei2nnf74prXH9ynX3Xif8NoXXcdLFUaUQ/DcL+SSgqfKrLQL7dB+fT6R8Cp9fatj/7z9dcPb9px24L7HL+LjaW8Ii5h4boxzOnUuBIuGHysiO3YnmbRxYmz6SoI1XcTzAy2exZzRvWKBZ+O7WUViIWOyzl0ZErBA8BDdB/IRIiViFxXURVAMyD15HZpfiSJJzWT6OXRt9ol0usaIIRg6ECUkO5iuUIl6NKZuBh7kb2EXqN++OIeuT30o8/FQlGmNI9GgjhsP+qmN4qTvmZJKn2DNAdEchcIzZ46N6LmQgkLVNYySShOvmcNbQNqv6HBz69/2yp9v/OgHv8yvWhfVc0me9wTnLlu9TAZVqrlQyX+reFCnVmhn10qM7laPo3HlED5FuXNuuGcdlWSbao4dWwSoXKz7/7d3HYBxFFd79no/9Wa5F9wLtsE2HYMB05spCaGEQBJSSEgoIQWSAAmE9ATyQyCEDqH3Xo2NjXvvtiRbVr/ey/+9md3TSVY5SafqXXNIutubnX0zO9+89r3K3DV7Kk874FzJ6p4zX/Lt8z58Ee10ZXPV43HszQYsubmUSrQ50FRVUR6L6o5Ben1kT9XYVU+/cHW0YtfIhv27h9fv3Tu+1BPmTKk09iQqyC9Tmfdm99W2B4gEVBDsx4GgiFBcnmip6FDMP9nuUaeLeDgS1icQaEDh5nKgqainh55wKjZZixINddxcay2wqzdD30ciM2e+oet6wyHmMJpZJNKsiPH+pC9j8u+ydoWFLoFSRfi+2cjCiOzTQswmaEuU7MzLTLXqFKX2m6KojQDQdVt0wfo8i5+jTncAUMCVHJMk7qHHBzZItElCoAYdSNZOMhsoxai/Eb3EiOhZIBuuJ+9WjAD+EnCV6Ux61MDzs4RVZwZxZkY6kNJff1OD3Zqb31vzssdiURqw5JbzUkbysQZRp5tZIoKopZCe1TYWP33ehZ+G9x8sIMpsYqwBqTcFMGdhYLJ2C2pD/SgB1bnbj8LP4qU7Bbp2r0UBAohIDSPoxQszmw/bohBFgWK5JI2D+wLb+bIw9LU8p/XfncNmy8YVbW/8+AkoWQOOR3sOCwEIDYhQlUnEm7/AWUWa1zLSDKnPMZghE3otKgRF2JiZ0zdZiosCFNnZ3n0QdRf9C4dwHX/caI7resYLyYkCqHRCq3VW1kJT0byH4nHbkkYkItItcAM8RIOPSQj3SYWAKX9ND5OrkajH8CLtkF56IiyguEnE6TApRD9bRuh0MPmSAZdh2aNPftuys6E86YoYkpGIliqRZHG+9mpTiDoNS0WlXmnY6EZmL2pMmJx+IpgPYzMUIR1dOH87Xvt4ERZsBWkzxXc14nf1GHoSUDXBoTGmPQVB7vxImQnpd77ciiNdu2vh30sDSMVXp3yeWmVo4ZfBMiNRY6EJgl5r46YtbMrsWezTVStZQa4D5aCSYA2h0nek56E6ASrHuxAl6cNS5sPCpsmBzy43p2naopPfHDHxiA2OMSO2s1Hlu5DkpXnrsmteSx6sHcuXPX5v/I5S3bFAa6L+G5D6YDWawzZHfseUWp3dSCBuTCT1YDxAjlmrc9Plwz/KZOQAgAjWiQb1EniGyKlIVddF/iFYMsUC3Uw4lgLKKJ5uCzRcqtpgiqOGUJLX1ur0AEzoNvz3iW9tWv/zB8w5Trd97OitWqe1yf2fx19wzJi8kg0fvYMZdWHJ7hj4plUrjPzIw6WALgqWohfSKIhmsGNZdK4rZiTLToWtntDvElBBsN+HoJ87IIeK80g6wUmVWpjTtcDWa7VSRDX9/Nbn8L/JctkFICT6OJTFgP9Gw1av38COOHpO3ZoNGwsLzE7mj4JRxGRjMaM+7iwpqbNMGL5pwowpa4onTdiUN2XSOjZs5F5mNPslR04qEjLZtKUwgBXQyBGQSvTIN5i2BpImGIUWTJTI5Mnr8RGTtAa9PhnHvbQFgsqmogMlu2UXQA0bRDQMOGNgCqWKCwSvInyRB27wBpWthlA3eZo+fiVy6jD8o4gRRcHJzAw/cYMmbvd5cmzuemZpqHXqdu072ofm33j1jdNZji2UKCnfP3rm9K+23nPvpuEzpqy0TB2/ljktHoRlJpImXVSjLx444IhhYAnYBijVgQQOmXDGmExTHGj+immc0X6lx3NHbaDPJaCCYJ+LfMBdEIoEURIf+pS3BwfKotBMIdZ8T4qJtKdYYoQ/z4X1a9mu3ZaTrrzm0U3bd090lJVWjJw5dc24BXM/0gwr2o96OA1IxUOJgML2F90koJ3zmhEAcFWwjeWsORmjrQSKroxY0uXWs3WrUck1Go5LsUOfL8UkKjYHGSFuRG8Ku+AlzdPDrQcGFRDqQRNGqViArCg82yovrlWHCYwTcUAAUuoyuxe+faEgW17bz8iQ044BNUC1jLu8Jk3tprEN6zaNrYIvdaVWyxod2nDezCNWT5lz5KoR2JAkl767iZWN3wnKlyYprzCjNJ/M+tWNs4ScNZygW06gT+cnbbdFMofyrYYMgtwsqh5DUQIqCA7FUaVlXlYzOrW2ka8J5/I0gk6PNK4puf3WS4NyvXQQ5OtPp22nn5BkrliQBYtyvdf+9c/XsPknfDKWEvnMIBA3aCOSw5m5zw6WMLH3b+k/bNmd5rhKqg4Q9vs0RqutyzydyYMeC9tfMYwd2DM26KszE/8lD6unhbgH/qQGvTYWGFa6s+pg3WjJFzdNGF7KopU1IIuBcschvS1gb75DmZy9C3GhBKz0fQ38aERChvRz8qnye5CYA+ZYOxVvhm0xiVd5g2SMfPzl/ANLV87fB3+sH59VmZyhaVdd+lDS23QTyhr1zLzcpbnT6mQq60VBRfIM7Oo4pG/40t3PPemS+t2BJQEVBAfWeHSnN4fgi0LsTEnZlELWYaOkBHJFsL01v/nrvPQNAWaa1TSOIBpFoeGJ6ryihWiN614UjkEhGjw/DtGZlLjMtaGOlZKmWIxpR5VUsLnTVkpl5XX14bCmwGjsMjAhQgZLNxklU3v6Q8TB6b5xXzGYDUOoU9cpwzIBjwchRDGwZMcTmvWvvXHpp+99cMb/nXrOpKjnYEFRxOMYHZI0Zog1SsWOW41QSlvO0MJWdsJJHyd37TyVHTg4gnkacze8+tI3Ql+sP65i7+4SDa5P3GxUTQGOL17hgNJBSO0TpNGky3EQ7sJWRDHY0heFr5hMxnwq4T8f0jMoh1SMozC52klBxc8EShY1gMElGNaY3Fu3zUBZJRNa6T8Q7M4TJX8nfdi6tonrwUXVr/a5BFQQ7HOR9/4FaZEVjPv81YkyKCIOOwNBItsgUFU0TF4IFS17oWRpQRzNS4xiAaaSNxQb6eWV7pGWgL/IHVXvQJJyxMeK0Y6dAhY70eVyDSZW7wk7mMHEcyO6BYD0RRjCwACAnuAFXyMPhqX7Ta1qyI+k0HmAhcuuZXqbWzvZ2JwVkPTUwAkZ1sWQcxBtcuXv/OzLkw5u2DT9xSsvnhDYsmty7GBdUT7iTqYgFSOkBdUcZEAFYvUA+ThRzLVQgwFNtEcgWZLE22QlaXt+SGPH7ccn9EKmg+sd1O0zza1ryg1u3TWldsv2mbUr1h5ds27zkf49B0bm4CJWmEzDSKwnzpqoESMS52XaM5x8CmCiQjz44yh1RtGIKBmT/m4+KJIYL7xnItAPQfvVGViJEaUw9foYbjgjE2zSg3SGWNiIy2m1kjbMdIawZM1aMei2noGOhYGx4VLgJmHhS8xUehkKWT1tgEhABcEBMhA96MYhD7iiacjM951aRNu7No8W5WWRKL+uWZciDYAmDi0Oedjji5ATVFLAMhGm3D7wjHrwigMcTVE9K1owZ0XOpKKNi46evjK0ct0xXz701NetSH/o+CDVEabMpKJ3dlNC3IrXhhbElRqhwwZwiTj6TdpMmSdh0vqCjmTDLi3bUTFh7wP/PrVu++7JNZ+tPjnW4CoEmTN8Y2EAAdh0LEjED/hZodYCTQkFHug9NEiJ91QN2Yc2I1BC6RrtlZCij7p6Z5I+hzCUchn9SW9DzcijZ3868sqvg2czaoq7A/YDW3bOcC1feXz0vfcvWL9l0yikjWiMOjP2JIbOhC53het4/PcwiAdC2DyQP02kZ8aZE5G6nQFCTo6TOUaMrMyk+KzP12hiAY/52ct+9PqYnAK/c8aYL0edPPfNZN2BLcxu9Uqion13j7Z427vblvq9ISgBFQSHxqB2eSHt/LbFeimWO2hQ8rJIFyIlLgTQ0yN3L4Fdvw8Vv5vA3QjyZmbPzffljBm53TBx+PrRx8/7YszkGSuZLc/FRtmq8E2tZ5+3PAQOTCtayODobK3tvIlEQpNIxBAdgzgPohpTTLn4RQks8QOo4qiF6ARgx5dtOvGz79/28PZ162YGK6pHFMS0elsImhVSDSh6FuEoPC4TIYcsHqREfCr2GhBeOZnhhn6nqBLONtfZyHT2eSd3KNl5OodibqSqDE14VSTdodfZDdfddyQiYqqWf7Hoqy+Wz5ecOZwEoLNDZMjIar9I++/sK/xz0hcRv8sKCoqxE9CxmprqUrCtd5qgb7PlheIVB52NW1fP0jQ2mcNvs1M/+wO7LaSTwlMXHv++59FHX9aMH75LP7yk0uB0NMQRKStBU9RaCjrnQ6USlp1aQ9q+PWHeb44OFZvC1LmZCSUjyakn9acEVBDsT+kPiGsrnp1DrVbpzztFlFPtPOIcIe2AWc3IQXaGVvm10qyFJ71xysnHv102Z+ZSNmpYJbngJFueP/q3+/WSwcEX6H0I8i9OhOErQrxIjEomdgKCIp+550YoVOVAbCQUMUJAKENyYjwPWJGVsBDKZdgNZlYSs7CmVdsm7/r448mjbAbm94VZnhYpCVwPISpsoiMTgaaAVs6xSj4/ChpR0knId4biRlwbJPOxuAMhSb6GKiY2wpYeAmBH00dygjiTsVr5nKfwk14ZHRqUCaGIStLxDbgJpFfIINcMCC0a4jdCLw0bllfITEW5bMXmnSzvqOlI6szMHIpqDRpbzK/PDzXBjBvH7EjCJipZKl586Zyd/3vpHB2Iw40WSzxkLvHNPfPMFyedctzLybVbt7IRJZVSXg6Bf3YPmU89PcCsF4cru31XW+uSBFQQ7JK4hurJ7W9qyTESBfuKh8LxR46tDx8xde2MBUd/OvXYeR8gBN6/qKisiuU63aAoO8TLp5cBkKQ2UjKjsHCTBrEn3E3X2UHcmB6KzVfSNzr7QtrnsZBbq0WRW8lgizNXQ34J8t4a4xHE/9DKhvvgSo6cZ4fF2wp7oR5oVQefZSyuZyOMKOYaCLBcCpInsOROIZFjmCrOKsfZKMFC1J4jLMyqEQqwwT0SEOoIe2XxpvxqXbiX/jhVQjpFlT7qs6P8czE8sg4w0hig2UVBYkBKFQ00GNz47/RPgxuMgHvWAFIDc4Gdbd6ymZltuSzo99tEDaLOD9o4IHAqHtXHEfOqYURF7uCatQBeXQgdCYW1Qcnv3PHoP67e8MQ/rk5ajKG40+p76rj5B2cefczSSQtPf4GdNPMjyVSQNhdFHxUmIuVn5z0SZ7SYqRndSaYtq+cNFAmoIDhQRqK/+sHj3tuOHFSeeaquoHU42Bnf/vYfjd+49i9SkTWQDICd09K1wAUE1ROmaTLhLUGZe6qOIKrWZHgkgwENq64tY/sbpeDaDXNeuerbS778/o9H1W3bfoSWqowL7xxHJQ5I+ElQaCEfF4/U0QG4UH+C59+BYEW2CMo6XItFkcBNqZibgCOQJGhEugCBJG6Sl8KjSM303ivWNEXa/LPMby9DKfT8NMSyJK6+984bXatWH1u9fNmJ1WvWzGraX51vQoCRBXIBwTuCf5CxAhMx5zEFgUHSAP5Vg4Ft374b5yC1AmUugH8KBW3nnYJTGTJFKSoRicqJziEoCiQSBnmetohgrABD/BGzYIwQjWOKuiSTxtVUsG7d1qkfP/TENee9+PeLcdor6RdsZ8vVqeRbaIE0Fzq/C/WMQSgBFQQH4aC10eU2N6yy6a2Th10x0LVqVcYLvk6j9WAwjOgKAxLGYrpko1cPAOx62LvI1+Ik0J0dpJ05o1rEnzRDpjvZgEUyIVEEKi8VF40aWAhEydUNpY3bd0/d/8C/xlYs/fLYvWvWHKWt9xbYAUq7A/tZrtnK9Nys2awgNPt6CMAAhnyxFU48MnzyChQtYE+8QQsz1whTJk5oRjztI8kCoDLj9esA4BQ5y42Erc2eLX1MnQuiM0H1wucGSx752j5Jequ+HHPlBQ+w+vpi/56qcTXrEYW6bffEXes3T9+/t3KsPRgz50BNdtrtLDfPmdy/d5/ksBSD3y3ATahoBCE57ebeHNJzfEdrwBApCS0wYvO4mra1MaGJGrXIVAlFeRRrrsMs2XWm1vOyez5BhUVQBr9WADhYlPpemB1Dr0kVBIfemIrFOu3Vk1ukdjREYwbKLpQogl0MldlybV0HQKVXlEGegfoTheYWCyO2MkgMmOJwNHlt7EDNcOaLWGvXbZxXs3LD3OVvvnsOcvZs0Ay0c6dOOli3/quSPGiuRvBF28isJpkQ9IKcOZkzlGtjWFhF2I+S40jAR+iUFoSYYggRyx/XHdOESt+n6vP0jSjZ7PB7GMhHmYwUg0lVzilFP30JbwPxBiQIKvKW7OXkuA35kvVNxjETto45YeHrY8IxwzxKDnW5c3e+9+F51Tt3H+GvrhyxesWyY3ROvd3gCZrznTaAEoKF9JCLPmMy8iQ2HvGoFuHA+BppgrwsLo2DvHFonkJicnMYRE6iFsCZY3GyBn9IZ4jRqKQdFBjThhKXqeD5RqYnD5D63QEvARUEB/wQda+DGbjdRMOpoIa2r9OsJ2I10WujDH6Y7vWIrkU6ElnIOl+CKMdOKyH5zuvJi7z+wcQtn311yhPzFn/dV1tXjLrjBmcoIZmQZnGk2cyagk3MjlqADetWlcw/YgzbuXsn84fDLG6xoIACtARaLEmDowUtpVmIpY3eJ79ejFRBrO3EMcnrD3IOHVqAm02acoYh9/tpEzALUuAjvhsBrkcRLLTPYfEZ4XR0RJMGRzBssuLaBkoy56Y92bIrm1hlLTGj9dW9a+cYvS9gNZttHpaXVw+m75DkgL+zjw6bVJDqZ8DviVicDvq7Gq8HqAuJxkr76cTkXe8u2PLq2xev//SLU/au+eroXKu1numMnRYj5rcBR3FMz1DUC7E4PPG/mXiBNhKU+i/M02I8lPlNvknuno1iUpBGj0jgFmKBvRs9OzQ1pLMsD2WcFE1QNYf20Wzr+8uoINj3Ms/2FQ+JwlcUFlrXecXCDg9aSzm3TMuz8L0U0wlfQigKEiGRPShIKknO5L5f3KWNgQ2ms0OLMkiW2qry1844bk3I7dM7YFsbgbzDoJESuJGrhmCNGEArEPcwHVQuH+oNUhL69r172JQZR4bWrlpjChBzDWY4983RPcgmXiWoQ6TzI/CHgAw2ODrXjOAWeijicDyBcIvb8zQQDzHeMIuJNYaDjCdEIIDGpM9lUkmue9Qxsz+ZuejElxMTj1lucGi9bP/usY98bclbunDETCCoDAH9JD2F5MqT5UVkSaeH5cDu4X/92jXPl8UMTmdJYaV55qTlFc++8PrwmdOWs+KCg1B19VJ+aZ/U/bNYOQC2xJm84cq1Pfjg90l/6F6/y1MQj+NuDzVPtn2/CF4yJLVaOzCMz1teCkpsUEhmUbzJTctExsB7IDZSVL6YztMiaIfejyWQ55J+4MO2QLDTDP420io637p1OpTqCQNQAioIDsBB6WqXaE3gFGVpdh+u2AgQ7PTZFc/7oauxeFdoQ+QFk2NUOm2vvf4nwwcN++/5v5gGKQkIaujw0NPuHxGB8bikt4Is2omzi+HjqweohKjWIfnl5J5wky2nZYMfCovhmjWrTUccMTG5fv16yWBAZp8cyUiRoZxDmTQzkpi8SUDdI+7TC8GEqkFUKTxTCAalZH8tNEQtr1R/wJxI2MqKD5aMH7tl7IwZq3OmTlqnHTt8l3n0yO0JizYYgZnYrBkWTQbcGta0Z7jPhPe0khm2Uj42fMFu+447lacuFLLk+oI5hZGkPtKwZ+yBDTvG+h9792vbc50xQ3FBdcGIEXu++OXPl09efPJrztGjtzKbzZ/UaQGNuqhZ40hWJ4NSBL0YKZGnsvcPycrTM+q6dCWdBrq1XmeOGUE0IPIxSf9zIyqXCMP1smGZb1tS2pkARtrhcI0d4yuqLbaCwTY6Atq+TmQhzLDpT4bSMN+8qMeQkYAKgkNmKJtvRDEX8WTfzu4vKbhfOLtMapmG9iM/5oJ6WM4HEG11ugAEox6NnkyKpO4QBvg9dhYJmiJbN5fV1e4dEZM6diny6unEUINdP90LVEeurNahqQYwUYZgKyNqMgve5lqBrOHR96B98Pp6GzdulI5ZsCC58qsVfNUkvyb3BSI4ptkcC+pP/l18jl/i8CU2GaFdopK9PmdYk7WkaH/xEeO2jJ81fYXjxBkfGsahjh6VCdSSmgj1E1GUkiG3BbZJFmci+eWHSB2EDHkhVmEO7VRoHY1TLGgyRL1aG4KTdJCrA322JCMs1ODR+V37h+/dsW547EPp+A/u/efNMaMpWjZ+wr7iuVOX64+e9JVv+TvrrI2VG2M2YwCXoNeAO/wBvzZS75c8E4at2pjwzkzWe015UMudSFXxRvw8YpciTokunP7FKedT2QCl+MzERi3TozPu2s63jpleST1voEtABcGBPkKd9A+qTnLFD28UG2IZoZSlgBLDNWTC7PCgXDjlm4eemMqg4HybXCXsVHMxBSPmWG1DYbCmobhq49Yjdz796hV127ZNCQZqTZNRI74sQswiHR/cIweg40ES+EmOnjDQhFIn8pAa7QSOhoHNEcxg7rtL6xUBoRHclWvWrJWOmDCR7d25j0UBfhEspibku0kRyvmTgR8/gygJRJpgA0ysRyw66ZM5V3zjH2z2sZ9TqSbJ6Yywx7s4SeKSxhmRTEaOsLLACAgp/Zy0UNqckGkvAy2dvo/EfE1QG6VMRWhEMfjLRGFgDrBQgYlZDqZqvI9X0Kf3rHOPC6xfOy76qPbr9QhOQZxs04g5M75M+rxnSjZ75kjRxdvu7ulWi5W2S3XJyIGFiYN7R7g275668e2Pz1j12jtnDItY9NHGplx7OKG1wAdMGqKQadvWi0P6IKpMHTpnRUmM9g9ee0JYF2iDqGws6RfBQNOjbU13RaV+rxckoIJgLwi1r5tUkIkWWE5yzc19pN/xpRJZDVFJ0lGoXhuHsCQhp4vHR4oFhkoAcZOTWGp0ehijAiHsxuGRIVJk+fBG3QZbsMnElxmszazqwMj4sjXHfHbe5VdsWLtquhSLaU1aSVPojWuLaeGmIBREDSLuM2WWTO9RKn9OXuRJyyONTwTDwy8EJCT2Fgpb8cEfGIepUmH4opswIWEbKfnIsEfF+SgqGeBLVRvWsUuPO4N9uuxTZnKACxtcnyacG8PFomiDAmIopsOOvDatxsgKp8/6ip1x6iuSvahzSq52B5q0FirTSPmC8GGRRY8PCFe304+MVlINM0X0CQM5yRAImUSRXBpjUTjXQEWI+WItdgwJALkELZEOIiYYDmenPxzNDQZWH4+dAFGaZsyu4g77gKuaeI7eklE/ezrvJUMZaapbk9HQtuNPvOCl4+9GPUaPz+rbsmPSmtffP++rdz8+o7SpZriusdZhgW/WjvGmpNMA0iT8yFmssSANxuIgv2Snh0iK6eCQrSiUpkG2djE3eYIPjSPVyOp0M9hpJ9QTBoQEVBAcEMPQs05Q8ADXnOSdqwKKBAxaaIJYONtX9XjKt5y7l7YsKL/SN2NIV7BCs4r5Xc6EZ1+OlMCye6C+tOLx54/fuPSLE2q2bp2SqG0o03kDDuYPGMNeLxtjA510FIsxro7lmzOMKKZLjgOChkV+iftXVhX6qcSx8FPxIuQVUZbibwqUkHgZKDm8hfoJrS7G697pYbUEEEnw7ZkM7O3PPmVzpk5myzeuZHkI34+jQj3JTAC9SMw2UG4gImuiGqSA9AgAm8dSuTvlvpR7agb7NMtshwuyPqFNUuyjSBhPD2NSfMECXAVfKf3K7w0f6qEBm8HtipsDMWqr9IEOrhk/UOfUeAOJhN1AwNRnkah8Hui5T5FHbOFF3uOlSZf3y+O+/93fMW9NCfPW58Qrd49f+9H7Z6x6/5NTWG0wzyJZmM9sCYJm6BBwaguthPWjgwPC4xGoNJ+4QIVrgT9IQhNUQbBjCQ6aT1UQHDRD1X5HwbvYIqtNNpZxzQCaCHQj8cCiUruUI7WqyoAAAc6b0sJm1BIziWiaNJq9H36yuGb1yrk1W3aN9++pHqfzhyzGCFxkCE8nBg8LaWYAp4TZAhcgKLYpwk8xJfHVjdYOATyKeUlJJm8OdhAgl64wcTARZih+aGG+TELjIUNvBKbPmA5BLEYD86DVcG6hz5Kf01A2YdyWMVMmrS0dXr774zvu/xt8hMaZk6awTds2wSRKeEA8oij/A7AkVhLhbWrmE+3RtOCk3QRI1LDYTqT8kFyjaH7Jv3Z8OdLWE8Qhltm6286OhzjIOnURU0d8Eb/hse/e8oDV4ymcevSM5eF33lxmKCvex8pK9kKBSki55Rlrkz2SY9qXpRw77YMa6JWMNGq0M49YNfushc/PDsXMbFv12Lpt1ZMOuIK5ulGTtrS4pjBntCG4jt0E9ERxTV6ed+kN8OYylGW27l9tp/ckoIJg78m2z1qGKZPzU4nFNv2gWLpEiqpTjy1tAJlY5EpCvbu4zgSOjqRcdb3Fypn+B/xwiI4MR0Jsy5tvH4/VndkAQLmUDE7ghJdybQI9vtwDGGEjFQkIvBirOFI/ZRWJ/y2DQjrQyRkZ/AsyXPITFcCMQbNJwj8UseSxsNkaiTvMvtzxI3eUT5m8ZtIF5z2pHz8GEZIIBJGgRPgCDs+9f/ltvtFStGPLFjZr7iz21fp1zKSDtkimw3AMqREUj9hcg7HHA5dMUNUK9L7ZxNyjNgGqnPBbAdR2UI5Li6/PsrAzw8xDuiZFvGa2Z+8Rml1VR7q27Fzw4u4dliZDIjps9rS1k46f/1HktRc/1yNKlpUV74e6HU1IyJg056fZEXp0t51+WTLk0RRR3Mr+pN/dULTgxC87/WLaCZ37Y5Vti3xbslwpR0h2NvTZ/XblvtRzuy4BFQS7LrMB942oTkpQVXRexV0x28gh48gh0xlQUDXp9yJKM2RiDZ485vY5/KiCFA6FtrFwPJagSMeUJsiRRwYggVLwnHEqqwRFfOIzpZYgrbEEhIKBkxoQkEi6JQc9bpqTV2K5X/yDtOUjHSBlix6/NtWDp+/6cHIIgBUzQnuTDHGD1RyM6zXRqUfOWjP5nEseZRMnr2Ul+TVAtSgz66NRI/yWpryQP+Q2Wk2F4aR3ry6i14RCyCM0IPVhzbp1bOLMaWzHmk1gd5GY02BhdZRPyEFW+Nl6fIDajRFXqawJ8q2I7OdUih3LJkvFYtrxJUnx1UvxSFyrt8DHZ4KJmfc3XZSyIClXkl9W1vkUrVPegmQEi3opKg0z66J50OobNqy0jMQoF4MJLfDJsrkbl6+cu0JrvxlljuLG0sKqk84980X7tOlfJTduXM7yHPWoLhKUnIXdZBTqnuQlq7N9QBL7gkMOot/jUzHYKCUO1I3UmK0h5rA1IUsjKhltCSkR0Ri5vzWNIA9WgxiYk+JJMJwmlNoa3euz+q2BIwEVBAfOWHS7J02xkD6YDLI8LHxU8Z3WP/6I4wHOTSLW3FNfGFi1bva7T/7vmuoVG48xukNO6bgJb1/9yGNLmNYWha4I613aysn9i2iFZ5gLMKPgC6GZUSI5RSzKPjr5cxGCI5v5FDxUjLSy5sLtUsIimsJBRalR/H3K9SxIU3DB1BkpzPWzCWPXj5l37NI5x5/7IkrnVLECq4vZ9CHJTDGibR9Wk1PORERNAi04YGgBI1iFVrsRQHje4nMS77zyqsaC5OwE8hB5Vho6Rl63WKhRqzPldcsPlnQ3GNlHH+eCzUarh8mVtDelk8REQ5ykXEeUX22b6lrdk9Xgq9ZE4jnOHBZH9p0dGmwUEUKUKC7yN2n3I/JR5P9SWrOomiAHdHQSEKlcFdbmWI7T3Fi5bwMrccCvCuYbPe7DTpp9OMrykXUoJZAn0tg0cvvGHT8KmPTMhfHwWHUh5+Sxm7/49Q+Wzb98ySO+3Nx6e/4UpZxTt+d3j77YDuxTFii4UfWsYU/J/edc8lZxVO+M5zkOHn3maW8kv/rodbZ/l8eOKGKiPuVN4H9hmo86pM+YLAH+EKjHkJCACoKDfBiTQa/205tvi3uh5WgSVOoGJk8s9Mg8ZmYA2cpHn//m9qdfuqwg1mQxoVrCGIRMOpAbWBUfTRZLSbIZk59+/UqeI9gcNU5gJTQNWgC4AQh/kOGUs/vLICaWYKGx8Wx1WiQVxU8GTMXMSeuv0PRksmrZtNee+Hclgix4xIiqb/zf3y5l48dsiRvtERbMjUkF2LF35YCpWIv1mkCOE7TAlEoljl4DAC44cjZbu3o1i2PVVzTBdN9jJpdJRhsQqupHFJCkOfDKBxd/cOvPjnUvX3msORDVk+lYiWyV19HmRO8UZKXrxe1cccz4Hdf/+e8/qvhi1ck7P1524v7KgyVUaohSJfS4hhbJE6j/Dg0c/lmqZ4jFmswC4W6u00i7SOzbt3uUAUMawkYqDiuDAewERJku0jMIa/G+2G4BJEMIW42aCn06U7By9YKDH29acP/fn/7h6Isv+G/SV3+9ZEsvbZSJVLN7TltqYgTxYGbqvMYWL60PDR/T0GCV9lSW7lvx1aydv//97TllhS6SpVAXBbcsD7bCVioc9hm5LV09hoQEVBAcxMOYDCB13OO2Of1xSxwAR8ob5b9x8mG8DPCbFXljSAtA6JwpCH5FCpTBwsbNfzzXgD/Iwt9EQCebMQnYeGkhWduTgU/RMhSR8cVQBru2NtxUbJbiEbXIzYPVFTXm7Mzr9TMd/HDWjtL4cSO2hAXfMSfYsDF74janW2co65ZmBhsu4huQMUnlkdBJko0ZqhgVCF6F9IkJM6fC/VUFRSrCDIgkjUQjRr2xfS0wGXLpyJycOLBnVPWaL4/Z9MNbZzd+vu4k35aKEQd1IU63loP2nbwagh6UbBSW1CydZnN1a/9t+xNRKh9bhRy/hwvOOP/ZI4MRC9tbMapizdpjdq1ZP7t2+64JjXsrxxQF6p0Gn1fjwO4HqSwsimr3ESRUCC0QXlueuZ9RXAyEpIkFAgFrng0U5E0esPWAxxxapw81HokjlQc7QZgoEMkTDSj6NweEBnqYgPl2Ikg8njaddn/TKBZOUFpG5zx5vfscHjI9Yc5NWOzl8eSejXoWiJpZLAgOhAjLwQ3FwxFJW3kwl26Ono04hdziQEwQnik/c0R8FlZTPTzpq3Exv00jFVv71Pzbu6I6/FpXQXCQjTkWYUt8375R/u2VR1T8+fEpNZt3Tl7x9tvnHQ1QCXAfXILZySWFFzFskLpni4NzMwA6KkRQkok0wnkYifFEgCD9wovDyh6x9FJHitmutYaniI3qv7VXF4Jb62ACdCFARQf6shyH1WfNzQOrWCUS9jrANDSYb3YgHw6J3UldstsAyG8uCQ8X2YQp0Z5IuVGnEDKJQ3vSW6xs/dYt7MgpM1j91u2sHvePHEYoOy6IICcZj3s1/mDQ0uRuzM/deGBc3YatR37xrZ/PrFq7cbZ398ax9phLR35FB7TwXOQc2oIImrRAv0DOWg7GI4YXak9xvamdIyMfHd+M2Ej3QwAsXqFwuGbkCUcv5xuYALy7B+qKDix9/cwD69cd2bR1z8TKfTUjY1UVRXkBN/h1Ukeze7CzOQ8zgMlsCPoDPtQK1DIvtEBKpDFjqacagpTuyL2nfPMkqOjIPE6cqjS3otBCXfEgAAN0BsTc2cnh9buMBqM2dmD55qPL80sO6EoLapnFEJIMpLP38KAqEm3QnCGUTLRtkiI1tqTHHtLm2DQWBIEJD3cE2i0V9xX2ZTFX6RmgbFtLnSv/jW/d9N+i0059I2fKUWv8a3eus4wqrZRyrAOSkaeHEhzyX1dBcAAOcRhOeUOT286s2jBLenWsyZvP9taM3PPJipNemH/CFfGqyjITQsONIZi/ADIToG0E0iIRI/KiS8ZRpI0jBy7IdJS6gAhPSiSjBcsWShjAa8lVA6hKIuqbB7bwJTfl3xMPP0BDdozQYqiwntBbCUSEguETpleweSBpOaizsQpwcOqLcsMxp9lVPHHsxhOv/ebfc6bNWsFyrcHqv/75lv33/ulmIxL400XfOvrf5/WwUNBvhkOvexqg0rheigXh8iTtiIJ7ItAIadtOxWETbuz+kY2/ZtUqdsrpJ0UPrtugH+4KF7APVp2YfP1d3Zobf33ups/eXxSs2V9c6Ao6eEUIaNcOGFfzcM+Uqk+AoAHZd4LnJUJOAELyp1JAjyjPlP0JZjI2c4BKFiv5PivxejAZCcIODlt3gjoQ0Ne88e4Fn7/34aLNqzfOt9scjSgP78+kNwEJkR8gT6W0GLoFBYqoBoiok0uqoNgycU1T2U1xYZBMJDY8aWJ+IypIaMmI3vFht+aEkzv3DXvjisv+Z3bXFWucVte0Y45amXjsb69JRy74lOVY3Szf1oDigSFJW9qz+dC6KxGT5AzHjdYouqoH/GF8Kb2FTJ9xPFsixUfcIXebE24izzS64atpBzevmbYPVo4VOinm0ycj6644/4OpF13yuOaIIzaxAnt9wqIPxLS6hCFmjUjWnP7WhjsbhsP2cxUEB+DQGwJhM9tXN3Lvh6+f9/4zT14WamwqlNw+uzEW1zuDYckO0xMxhRDJtAiCIWATiQrkyxP+L7HxF38RZUlzsgHdMl+gZb8cxYYSsCl7dh4MIK/fvB2sqdS+HlEdFpjbwngvoCemDnyEQAkNqivs9CNBfurkyimLF718yqKTX2TDSyuYw+IF+kLlyg1I9vxQMuSTIlo9MugPRYZDdSVKhKfy4VmAkWhcT4E9VFIpivsg1hn6nTOuULAK7uP9jz7SH7Xw1OpPXnn90tqnXroIdk2dFWTcJQZoj343IknhewP/KDHr0D8RCCQICkRagpCnMDgKGmceCdqH80sywHzMa9nyg3ynjyVdnicuDEWBSCGrZLdltBBbYNM1wYbAyQZgxiYCcq5O8frGIvdTmHjpntPGkiu9PH2f+yr57fP6kRkcCLksDIZy83wBTdjvz6t64fXT9r703mn+ZA6LmnSxsmkT1p9y4blPJXdufJFZ7S6mtwWlgvzO/cPU9TYun0qWB9YD8SnTNPWMiNtUyNaVZ0kp8Cs0RSOIIMw0k6H8k9ElptfoDr7w+tm73vnyjHqNIRIya/3TTljw0fwzF7/Ejjv+HbTYlIEU1FP6QQIqCPaD0Du6ZDIIE9bm7ZOeO++a9zwNFTnlQehzWFfEvhumqLjwu9BBlRTo4D+UR53/VNYdeaHiu1gl0EV8KWbQRDgZNA4DbENEWK3ADV/X+IImoJSS00OUcg8TZcRQwPZ5oVSUFdaPnDll9aiZk9eMO2r2Z2xYURUryq1HddPGqFmP+g8wKaGn+VJRMhn3Cj3SZEtW33GnHtprp4QdMqKLWkc9OeIajSWcMJFZmICPVnDFp0U3yZl2YOMicpsv3v+odNr0oyLbt+0xJAJhZoGGbQ7ArEdLJNcQ5GjZVris5O+lQ15bKy/diNioCOCUFe9e0BWbBSblOEhzIg0wIy2QfzNk1LrDzKTFeKOkLlyEAvDjMGHTT857yu9F3mrJTAscF8moQOktlMYBf2zqLjsdQ7HxosQDPVkbyLcN8oVIDH7WiEYX+nLdka9+ufrI0K9+e5dtxIgqy7AR+zbecsfqUXOnfWmdPnoDMzm9zOZokvIK207kJ5nLmM3lD/Jz0SVutOd43TyO8pDIQUDivLaHiSCfgoUMiCTVgcjWFvDoCiSjDpR8Fs9/X1vy3LPvLCn79jV/A6n8j8x6PhbqMcAkoILgABuQOLBJG/Zac+sac3LweJqSyDfjWlxzcjo9vYReEQJHPJvEr8nZYegHvx/xXMsGOf4XfUdJ8+XfR8VvKSefP5QG1AwyYAcfbWPTTtc1GAzMF/Sz8pOP+8y48OxXFh81+31WUlDH7BY/om3QSUNEsuW2yyIiabk/ix9G5CpoYVvtFNl4xA3Xqzo9ta0hTHoiiNoMWJAPMcWJbAVKgiB/IHFN0m0K05ZYzem9HLuRBfxxVrluo+GoSTNY1d7drMazn1kNWliNeRARh8z0zpB8lZRqIe/mg/8uv9GsLIkUETrS9y8DbAqic8aYaczYTZVV+4YV6JGUCZ5OMnESaQLZG8xKoWCl42n4oPyaQKRqMhnFvoOM75kcSSmiSyKrlQK6qKoH5aVGUOeRSP9wbTRjg7zzPQFjcuPmsf51W8fufO/zk7fYEBtmYqHRI8ZX2efPfb9h+4Y/50+Ytq2tK/K8VRrvFjOKI7gM66lHp42vc5xsxkL8KegQKGoazwjkQuZ2SojBrg/3AJJ3/K2Da8DeGCwELR/JQQXBTKZCH5+jgmAfC7yzy8WR06alMnZ4mFBrG8EhWLzpYUqlJwiTG3+PHmr6PT2qU9YClWqtHAj5A4uHFCfTIhbG37SpT3obNZI9L+EDpEZRsFYjEy8rfUwt5PgumQynnn3qi8mvXfpPyWrtNrl0BP4qKIKdiYH7nrD4yXDV/unJQD3iXDCNAxEza3TlBfdWja5av3XWh9d879i9K9fPC7q25w/z+Q25lORMQIimuLmLgxbdIWl5cRalMH++ToEZZ/1XbOqUSSyxzw0ADLNoGFGQSpdTC6jIH1MqnadITeWutk6NoLdl5Zqf0S1k71Rq2TlBslqiybq6S1hDTXF0zSrIcfWx+7Ztn+jaXz3MW3ewsKAxYDHBLGzBOFLJLDIRx0i60JR5pXe8D8ckrfkoz4GSIRkdGG1ZW0tJh78h5EymAzLTUz4kgY4DuZ10nbg/wmBsN5ncO8bt3LFvbPkpcz/E6c0gqAhahjkFBFFTRBTfRW68vBUSQT40NsoGqYN+840l4SIBIX1JDrYOwYUdxYu3Ifvf7dG4QSMH12QkCvWkPpWACoJ9Ku7OL4awemwjzaGQgcXMkYSOdsX8IHJoIq+XYYHehRmTPkgtqLRMkHkPdBfyAi82rqKCAU8dEz4r/A1+FaACr8IdrqPtqlHL8kLypp0eYPkBp8UnBB7QCArhBrGvNwOhe3L4cBthIIqtkz0xUpkpnRlntQygoWsng0GJNXodLHSwkG3fmLPnk+UL33zsyaui1XVlFnfABiI1TQnifqZSlCxz89ITuAMOrLSZoI2ASO2gqEfcD97XI3eCCANoF6/Xa9nGTevYyeefw9596SWQiACQSYOEZipMZmlklLRO8yFKhzUxZqnVP+0jBQjTAbEn8uyt70qFhTwSFa8deD2a9NRYmCdgQ1UH29ZHnvjh1qXLFh7YvmeyJRiF5xCTCSk1emwmKHhID7mb9TZmMiGetAtxTbBoaIjsgQ5eMR5CQnaosGTgDwE4RARIPynuNkoOAuCinkUwha0IcsmxcMLv5kNmjFGUOGqD+78TAWOTf7Mdm6d4MOzTaHQGbIZCYqOSenraly5/pORNKPWTqpFQhQ8adZpjvM/4P5EvJEIBMwsHEJqd4k3orWFT2+2GBFQQ7IbQevMrGp0jkVz7Fa3H4IukHaXsY6EHkx5+LMaCgkv2LeFp42ZOPN3alF9QsSTKizNOJm2R8JTq5hEY2qIxGJHCjqSnNvDWN69FPDr5e5otVwqBGN8Z0yvD/XxnsuHMNO34V5q/SyBFqdgIsY+FzUlPBfK44Jj0u+0HVq097ouf3XbS3hWrF+gavEXhuvqccEODqQjwbwL4U8J4HipemLCgUWUIHxqllrjWRzt9Hi8vgmK4IYzkJ0e8iuUPZmZE/1lMZvbFW++wBUfPZytXruRIJxZIWfCKaDuQS1vannJ6lsTZmbiz9rnkKA7EPfVRjc3eNPGXt/zkCH/ILlEAly9kCe3aPHXzu2+et+H9zxbp6n35yJrTN0A7R4oIRJ9pmoMmEdJKccpFVA4CE5scRsVp39sQKDHwUF1JwZhDwVStzuJanRhrmve8NiD+yA8FTDoNWAAqtk/IyTMHG/a7zHnKZE/1oONRok8VOnpFixU0gs2vIHdlkP0/W09Q1oZUbUiWgAqCA3QqAPxECVs5LpuqM3AthB5mHpau/BMPnOLvoyeeAmnkWFH+OPLkeVrcoffRw0r+iqpPvzwh9MyrX69zNxa6Ye7KRyCDhOhHOvhCwQ2HYrcr2PT5hanUaGbRfu3IlYfed4oASaRcxFleOOzc+Ie//PpArTvXtWnvjIaGmiJdyG+yR5KSFYuLA8kBRuIz5X0lXwypEeheOMxBjjsp+b3wwD85dkjs0elekSvJ5SZCJMTSRbt3oxZxt4gOJKLulStWsAkTJrCKqkoWQbQoSTaK6FzKJ0vFzMs3pJigO5pSymIpB8a0U+FgYE5KraMgPSm8Ma2XOxLhplePDGFjtb+m1Ltj15Sa9Vvmh0eU7GFJgrEMDl7NpKW/LpWxk/b1FA7KcyiTLRV9PXUeftEiwnnZn/5x+zENB0Zsfe+9M7R1AEBYOmD7ht9YPCMtHYAt+99Wv5QzlKAygaf8maEGqbp1j56bDCSontJNCagg2E3B9erXiOGEqyXcAMS1EFoiCH44KCnan/yopj9dbaUmK9yfMEXypd6CpawkEJDeuuWuPyKPnpUjzlsLcxLiYzq8LZ4fmGLE7p4EcEuKUbaDBhLIxUIixv4655b//u9KPay2IxDbOBWyiMEMRmV5IzIWA1K5USwOcxzX7ORgIQpaoHslwCeNIrVIpV1VaKVpB4E9B0ux4QDnKNLcdKxiXwUbNXY0mGX2sjDiXnUwCZOW3imWd09Eg/JbGmOuEoW6EzewM+A58LFZa/FK5kwr2UuYl5KRNjatDzIp8jxVsoJQvit+V/hXybJhgMWcti/kBgAT0CH6Iin/6XoY+RYTn62d+tqKVb83hCOsnD9HMK72YED51gpzL8qtNc3aJ7Up0md60PignBGDp9MqCA7EsULwCJz02D8KUygdtJkE8QnfXSrVRsVeM91OJD/tHA2a/YLc9IcXT6vmTCaULA43YKSOJRG3QL4MXiKmlZLHIZiDCpkniaMSf6GsT3dFlnTtsa548MlwozEZyQNLWfvtwBBKfQqHWAG0L+5zwZ26+L5ArHHk+xSKsnD6aJUivUSbiff1ciSLYh1Tvic0AmFSpsVQ+AbFoWjavDAtKMH4ukUmNPzYvWcXO2LiRLZq9Rqmg49QB3BENrX4nvx9RZNu/74On4XQ4ihzZzpPkq6QjlXXSAYDEdrp9CGaoVSbkmTL82GxmaE/KAgHWRcEhMKULaKmiZSG6/BQtpAR01rj4kJXcjaF64BmO8jlwzQHtHieRLFibgtIg9DWaMobagfPlJEl8gqiB0jNKSJm4qw5xDWjHgNRAioIDsRRadEn8Uw3h+KLv5Sj/ScrZZBJnd0qNJz7EAWMEsjxLWtLabSyW3LtNP3iGciOR2+6GnLY9srx7KHXF7A3lp/t9EY6AEDRqKLRUh+5dsaBOu3gfZePVK/kDQNvoPmzQ2UkziPQy9RGhbJTDIV52WmLT2fvvvW2MKOmXb7lqGQgmOZTDh9kbFcsGCGbxcMuP+3fG1ctP863s2q4wxc3W0IJFMgSpBB65KkS9Z2IjAawxJHIiN8MehMsA8KQzWdyGwp6+jaxeZwUYgOuYvLv9+RoAZ64oPLoyJYFXKTbe8eedEv9bgYSUEEwAyH10yl8aW+5Qra1Xqa/J4CPP+j8R/pn6VCQ0l3avLXWnyqPL4IQ4kaKd2jnSAaaEKaHKLiKXcSzOWfzR8sW/veEM470uBtz82v9hQXuiESEX0U8UEUuycs72hZMCRWN787bPOPQTig79fRPWm4exCfpV2vXv5N2UbE/wEIMM+hnH37E5h19NNuKAr0xAGMI5jSDDoG2iubYwWRJ1zb40quQkfTTBBsol5VyzLFkIOha/Ktf3cQioMrzR0ysur4sWttYsu7T5Sd/9fYHZ8b2HByfi+ShYXEQBIY9MIHrmQ7ltuKQPQUyEfMPJdnrwmTgb3ngbTDIivcUd0LLGSfPMjngrCO5tDXH0p+0tjal5N9v6e0cKJJX+0ESUEFwgM+Dlot0e0pDa7BL04gOWfYVGEhf5VtBQ1pz/KEmMMILlqhkVHYbJuFTTLqbciVPxMpqG4vXvPDaFe9fdOPU+IHdo0MHtpUGmtwmu8bICsC0kosgPDJPapDYKEXJhCjMum2BX2o4ZADs6vC0r1a1/Ul756cHsfIlEs7GEPyBYXywadNGNmb0GFaxdx93QkbwPvkP5WIDHfsK04C9q/c2lM+XLGaaamSw50Z7zK8aPagC55x46ttzfnjTb1h1XalrT8UE79al89Z88M7pFas3TbMB8KyoaGTF5kTHYRH+wTC3njYfabRpfBxxFdrUCReBAlmHQldbYKY02lXVnShXM67gMZQHeYDemwqCA3Ng0p7BzrS/1o+rcn66Pte6jbRzOMoqf7dzLWxkczRW5qj1FrDNW6YkP/owd/9//jtj67qNR9atXDGvaceeCcXIFrNTvbmQhxUiGsVgMHLqqxjRZ2GhIiaQKOVSwUdCPhM59PUQHbArO+2ONLrWUujqMKf6IWM138tDJTSixz6Ug9q6dSubPHky27BhA7NYLYgcxdqtoGCaRA+5bkera1c7OYTPlywWkhTlKdLhplckGNqec8b0d4d/56r7mCvk8K7ZPHv7yi+P81RunlS/dtvs+lq/aYZWSVqQv5nSAJu5c8nbyLlz00BQtp+kzPD07Y6iQDMVvchtJBDMRmuZXlU9rysSUEGwK9Lql3PbArDW77WAA3mf27qz6d+h3wmJlHPaA1K+FGAxwE4bdQm/+sODtx/47f23hkNRIxlFDUgwtut8zIlISQTNiFAVFO8J4UcYlFdKFKsOQQ5GqJFUnZwY+sWh+ONaGaY6AIn0ZYs3gf5zCO+m1tjZcCpASD9Jf+VZIiQP+gki7jVr17FF553D3nr5VRBtglKMV1iQxdpGn9JS7Du7tPp5GxIwmE2kwBFpNr2a8IIqzl5MJvcamctgYge9BaGyopoWXxW8CHzjRUZ4MSeVULF0TVD4xduafl3V/Fp3nUendtGXrk6AvpOACoJ9J+tuXknxyKU77jNQJ1KqULpG2FkX5HMVBwoHGfyDNke5eKGaWl2p1qDTI48uiuoCSWLYoHNoPBMtvAAAe9xJREFUtyvOTP3NryRHaPLkfjntoLMetP5cAZXUctXFFUlW5Lp62bbPV1AYjQZhAjWajOzTd95hZ5y2iL3/zrsg4gYI8mR8xdmXwTilV9zNTi8Pu1ZcyPTMzeXRqO66CNkcWsGg7Fvnc0lGIzGUzUZ5JUo43S6SymroIoLxOZeOr4fdiAyuG1ZDlgbueLVaQZV4RGUlTv+pfJY2nIeoTcqNtjqnjftXgEcsGChGiydah0R0Cdyi0ZgPwSBuPOQBgkVod4jeg3anodI59KISNHiRaZC4E5USQ4dEnrYj93TITvWjC2OU0sTSvpPaD/CFr3svpV2FOECLrOowkvLp/j7//DM2ffp0ZjZZoCEiAR88pbRJID+QskngC+qhAN5FSO+CIA6jU3OlEakk/kKDsd3AreYhSGdGEpu45oeNkvzkVw9kmD531UHugSD74KuqJtgHQh7Ml6AFIg5bEq9ZSBofPdFIxaIAcw0AkCqrUzI6mTnTUTs9rJUnOpMJsRUw88VB3nqna3r0O0/MlwWX3m7LNI/OJcsvyTXVNkHokAaU81t/cGhpWHDqQNONIDpUi8AMSp+YMGEiq6qoYEFwrWpQtyJCJuL0bWaaoi3/mkE5jc7vUT2jAwlQjd827NAkf8GM1LsHf1x4gpPqE+xdSXe/dRUEuy+7fvhmWvJbm94LpUtK/Ftb6ofShjiHzHet0wiUHD2hxVEIcWuzHv1NxVU5XTdHGSKXVkyPSpI5rytHCw1facDmIW+wUaOAmVPSQ/I/mnNhJioAx3Or0hCwbSWqbfGnfzd9h09325q0I5WLKItE0do4NrfQDgRpgIKj1E+tXE6IirhT4A+ts3sq9rGyYeVs286d2BggZB9ASMwyyvrHZY2Xj4peUOVyHXrbWrT9MKsOj0um62bNz0Br8fOC0opAujg2LUytvY2uh8eg9cldqiDYJ2Lu8kXaNWZm3lJ2nkLxYLfTVnrCutwxvtTIiwc30uL3VGK5rN35Mesa8OK7ZHpPBj0BLgI0lTaU3zO9G8EkIjqjtJ0Oop21Q8sj13jpZxr9FQdGGRwFhZccbs9NZxRwgWobAT+r2rmHLT7pFPbJRx+hUkeaOivLxQRMjKBx4qi0U743sXurR+9JgDTB9NbluaGUQeoL/QwBU2p0aO+NcI9bVkGwxyIczA20DQnpC4M4oyPoaP8zTmmWJh4FTLkJFZ4bBVS4aUoBTxlc6IupqM80YMtE2so1OUWW3G66HtBRG8p5tHKmQvoUttMWJlrBMaLEGZKBmPRik9bIVn3xJTvhhJPZss8+4fmFiCTi/QgHw/wceuioyj1eFK3fGS5ncsvqORlJQN5xKXOaA2IX1b0MrsMHVLF3i0uqY5yB3PrrFBUE+0vyvX7dTJ67dkAwC31TfC4cQuVVQBDqi8Z1CpmjrHUhgyK1HKW0wDTQ6YovUFnWlN1++u10tuTJeV2pfDE6n6SU+kngKIMfaYScDIS0XeCZHnyi9cEgi6DKRNPnn7Cx40ezfft2MyOq03t9Xma2mFkApS2omgcqIrIARRUpFZGzIHO1iTYlII+YUsBSmfPy5OpsQnRTqJk8fd1sWv1aliWggmCWBdq7zSnLMYeW3r1UN1tXekjYQD7AKJEak5kTvxsQOUn1MThPN61BOIf76sisCr8awiq55iRIwwkx6TRxn7SEpaJN6X1uJ20+h9YyokGOcfUNtMhUJomrczKItUjRoO81R9T69VRrkYiYRb57CAw3AQAVBzvBvJ0wDSuoBKgm7A6HR9Jq4gajMWw0m3kBV6czx82RPpnU2AzGEHhGTWCRsVaBabvw+Pl1VRX7RtTX1+citNZYX3FwpMXpjAYAf7VaVHuSkH+iHr0nAc4pTyYJxQ8o5hOfp2kAmK69ZbszNG8G6OOa7VsdlO2pIDiohi1dJxl4HedARJpdCsOoPhuS5PVUcQGBIlQjAEs+ARqKV/CyMzFUZKC/DeQoo4hTSmkGgoaBKagFD6yChoUiufRZJErvAFDRHuUe+kDMH0ERAJ3eEDeYTCGUVYrpzZZAUqNNOOxOLy11dpvNTw3q9PqoTgc6Zp0mJpmNAUmjj+fk5jUySRd3jh2xJSZpE0UlpXuNZpuHmYxBlmtv4h0pKjpIdRSZETWctFShgKO3YBoQKi6Bn7yiyj8B5twTJecATqEwGwAkOq1hLo+duZoK9tfVjjlQX1vKDLwarHr0ggS8CY/E/EEaMfGfgn4Eglx7V95t3ixluxuyRUQp95Lt5tX2siABFQSzIMTebaK1vSZdG+zdK7fVumIWbOszAr8YuEUJCMl8aUQpez2WeLPJhnqliA5FRQDS1IJIKXCjjoTfhAzEAmcts1m9pfmFDcivSxYWFdYi6jTpKCuu0NksXgBcxGKzeWgrnzt27Dqod3GmB5RqNTFW5KhnJl2IaXWgrKH3tAgzAVABBIUnBi/+N35q0SP6nZczBJ+ycVibZQMC0SZU2kkC9gSCmc352dbUgklfbWP5rHmbG+v3FQWEu1A9ekcCimwPkTHPTeGTuffFz/kTBqrppnfkPqhaVUFwwA9XWyDYOvmslxwbabLhV1DWi3YuRx+nfHd48qkOIaVO7A0EmLGwkO1sqGP2YaWuI884/ZVF55z1CBtWWsHynY2kaUWd+pjBPDyUTDZIiXgCMJWU9PqibANQp6Nt0ecKy2ovHpJN3FdewcjaXrzMYd90m/DG607SIYa4L6JDD/uBGOACUEFwgA9QWrhIK0jq3R0sBzS8uDmHlgx57SCQS8+345ZPGSFRJILpoAZS1H8IOQAuk8SCOm1i7GmL351x1sKXz545ZhUbU7xbcsxoZP98oE3JS1J+r4PQgB9ytYNZkQA3cvKay+TwVTNRsiLUIdiICoIDflDT1a50Uyi937sPtgKEShoAiYrX5MZlw3JJJR2o0oxxLbNrraBP07EQ4jxc8NnZjp22pvzsY14Yfc6pzxvL5u3SWoy9ql0N+GFsp4Men0/vsNlStF+BoFdnMdv7XAMerPLrpN9t7BSVZ6b3rSdDVKZD7rZUEBy4Q9rvT6miBVK0JiV38w7hfxTgYgLwkTvLg7DPRqQA7EaAi2NU+YFhR8/87JRLz3tAOmLsJmnktHr249/2uYRD8OeFwxEj+p0MBoOcnCYajeii0Zg+kUhoPR5PLqpAxAOBgB3nJPz+gINuDHRnVpxjiISjJq/X76R4l5qDdcPp+zU1NeXUXk1tTVksFtOHgiGzz+e1ETO42+3GuTyFHrGk4icpyGazLeiw53isVlsgPz+/Hq9aZ46zadzYsRssVqvP6bS5tu+q9FTWNFRYLaagXqeNWMymSJ8LbIhekFsoZM9wb28Yh6gID4vbUkFwUA2zgou9awoVGp8c4EIASInd5N3H7zGkD6B+BNOZUb0GDClh7XCmmTBq59k/vvqXBWcc84ZUMtbDHvlPl6TqCSU04XDUQO2HgqgqjgCWeIL8ggltKBw2NbmaimhB27tr91QCl4PV1aMQhCNVVVaNj8SiBl/Abwew5ZB0du/ZM2b8tLk5sXhMh2rvqHWr5UkTAEEWi4HqDec4nE6EmSalQDCopzqAWuT3IXJUpGdQuCe+AAWX08Lxn3RRsqjJlXZFCoe8I5BXWm55E9kU+In4GzqnKYTvNvF2uVGO/lHwEPIICwoKAicvPPGtl19+4fxoNKxxOGz+/Lzcpnv+/tBj06ZOWzqsfNiespLiSrNJH3LopHhTOKHJNVJ0KmP1br+1wGn1d0nI6smtJNCJgztL8pLdBb3/wGapv4djMyoIDqpRV4LMFDBsM8AxK3cUp/w+qgZPAAjEMYnKoCyI9zzIWNir87Oy4yZuPff2hy9nY8Zsl8YUZbwo+yJJKjShffvdj877178eun3+CYtK/T6/LRAOWcLhmAQtidArHovHUaAiIcVxMjQ4Curk4MIBCcsKkXbHEwA2pCRodcI+S+cqIKTTGVHNIYHiFhQYamY6E6VfgLLNHTIAIFH414D3zDyINMXKSgAo1z2kc41GM9pEBiJOoJ8aRLZS2odQ9ghelS0DwZ+w+ApHlFj3uASJY1Vm0o5EIsxmczBvKGF56rkXL7x4ycXLnnzy8fnugw0okq6z/uvfj9/e0NDA8vLyoiajIazTaoPf/PEvPlq3accfGyPJ1dDI4+guUu7Vo+sSkMdM2cB0vYFOv9EigIzmAqYB/6/f7Tqddv2wPUEFwQE/9G1FeStPlAKKPdto0rcJQtIDYQR3NlWOiDMf0gqiFhtzh0H+bMllI0+d9/qiay76s37mhLVS2YyGTETY5E9qPvn0i8Wvvv7GNWed97Uj9lVUjvH4kCSBWqhUdogwg9LodGYzC8Xi2mQ0ii6JFYT/D/mClNhFQEwgxSv2ARGopBH1Nc6rWCATAqTVpJzFYlGYQGkVEtodsFJmgZEAfjYsTjxiQoaytMWRLkmXomtRviLaIQDTcG0ReR046PoiGkghThMATJU1FBCUIzLkRbCZN8tosTJfIMTLLmkB0i+88NL8hSefyvbt2cNBFqZVJN/no0xTTB8M+PWhcNBW/+a7S15+5bUlDps1OHbMqB2FeXkHX3774wdPOO7Yt3KtulAgFNFYTIZEKBDUmSxm1Z8oT0i5fJVIlk8F/PbsWelorvNZJDef/oRm8nyo5/SfBFQQ7D/ZZ3jl9IeWfpftc2K1Vf4nt9W9B5yaIR0mPXKFCKH1SHD3olBsvd3EfE6He/7ZFz0968yLHmFzpq2RCnM6XWwP+mOGZV+sWPj2W+9cNn3OMRdFwxGTKL6AfkKjknQmFqPkQo0ewAIjK8AG2p+chy40PoFUYkkRtys4OwU6CoBTDoLIhGzyFMZHpdJ7OgsNgSh9R16mDomRF2ZN0ibpGtycxc/lnDXiPQUAU6ZQuT/yqpvSEjlUKxqjaC8SCTETtM9IOASghvsPVSYq9+5jE8aNZx9//IlyCaYD6BJ7jQGbBKjEvE6hPxAwb9iweTr6NP2TT5YuslhM/gsv+9bqR//7zCtr1m99P6HRbc5wUh0Wp/F5Im90mhnZ27r17j03h7SkAKByTTFdKW1I1QQH8IxTQXBgDk4Xn8p0W0sXv4r750nunOKMFCdAB4BHAyDwx3QsUlLiHX3Wqc8d94Pv3MGGDd8v2Ys6NOzUwpx5oL5++NPP/u+HJ51x9hX7dlcUmvRGbhJMxhJY1I3CtwjzZmq33Brn08ckndtKfp9bGlvVRTq0CYJAsQoKIBO/k3annMt/k/184uP0/bvQFCkiKJEglVJQugkQ5BEwsg9Q6YsAXDqUzzhxTKqGAanWMC3jzSj8kCTjwvwClpvjQO6/xD795BN2+qLT2Lvvvst9hqC4YdFQFP5LK6rYc3a2NE0TYBqNs5g/Zl22ct1xy75ac5zHVc+mTZ248y8PPPzvo+bO+fSICeM35DmsYM1RjxYSSM2bljRq2ZJSusFVaZMoG1RzaLYknP12VBDMvkyz3GJ6GkTHPkDFOCoWTHE0g4N4DsXfIulBMQdykOCBL2BxASGLF5fU5ZiZZeoxny75y98uY8X51VJux+BXB9NdnctdeOvtv7rv9VffXYLlH0xlRmY358CfJgJFJFRTMJstWMBjIJkOy7t0bndt7mgrcEu53dKkysGL77bFXaYqIso3S1gm62xCqyTrpaKRpVSDZktrCtX5ebLUiAoU2l8CKR9RsqtSuSTObUpWWfyk3ylkSMIjRMBK15HNplRkl36PRIII9PHz75H/kUueChFDu6NR9Xm90PiwAYF2CL5R9sYbb7AlS5ZE33nnbb2Lm0VzWUNjHYi3iTZO0UmxgYCGHsd19QYL8/kDzGKxMJ01l23bUznu93/++z1oG+xwLPjQ48/89JKLL3rEYdJB2Iffceh2sHk71JvSaLEhS82p3ryi2nZPJKCCYE+k17vfbUOla/uxVrrBg/PlQ6mrp1WsfgR7BByk5ZFGA/Ojcjr54hDvyaKSgXmNLJ539JQ159543V3s+DPflKwlnYbsf/nVmjkXXHTxwzv37pkQCejNmrCZE2YnDYh+4VGVuLjsz6PAkAgFmvB+NsMYB2X5PfrBDZ1kO5WX/+Yba1ZEya+ngB13+/C/qFCw0MbkAk0tNUGCHw6S3KvIzxG4S3ZapQ3uDYVWHEuaraaA1eb0DB9WXkHfGzastEqn10VhpgybjXYQU4J9GwgFmYoy8gC8vXv3TaL2mhobcvfu3T0aaRoWpF4gTJV8mLhiLMRKiorcOq2e1dYedDY1NrKC/Hzm9/vZC88/q581exbbvn0Ha2yqZzk5Tq45CoWYxgmSgXZKem4EpON6i50F4bdkKOEE2jkWhn8Vuw5NLBq2/uq3v/vnXb+79/6zl3xjzXeuv+6uxQuPfbN3p+zAal0eVjHOarL8wBqcAdQbFQQH0GB03pWWIEh/kUZBYRlksKO/QSjNzZrE7KLn1WGx8OJ3nvIALSSE3+FtYhZ8RKa5ACW/W+1sX9zESs/5+pNLLjvvn9ajp6+QSjpO2PbFk9L//ee/P3z5pVe/seici2dZbHYWCIMs2wATqgRzX9LA9EkEldCijc6QVhUIhhBtaRIlJeSK9GQWTJI/EL6xOBZzHXxfSYAknacDPyjKEyHGBQCCdAcBVVGqJgF+z7hGZzRGjCDDtlrMfofd4TabTUGkGrgsINFGtQe3zWLxlZWV7SXjrsNhd1msRp8G2f05uY4Gg1EXNur1EaPRGMJF4yYT8vS02qhBZ4iYTaaA2WAKacAKoNVIcb3RENva+eC0eUaEolsBsx63N5dyD92+oN3laszPcRTUv/fuB5f4vQHH6lVr5m/ZsnmKQZvURWMx3Y4tm1h5eXkQaGkm36EZWmR9owtyNDCb3QnzaARuVK4K84hUDomQW4Kjv44DuAZadxi7okg8YV6+asOC5dd9/43pC86oOeGYY9/92qWX/Xnm9NFrTfpUaYVu3t1g/Fp2k+U5WXzaQX+mW9gHo4QOtz6rIDiIR5wewChe5M8joKOq5RYoAgR4pL4Rq0sQJYFobTTgM1NCy6wAJQMWTT2e1Ebkxu00a5hl/pGfn3b9d+4bdswJb0QoAa/Y3iG7yxMvvXXpCSedefe+qqrRFECSW1DI3F4/TJ02SjgXmiaW/jhPDYA2SMs0+mA1IxAG/i4kAQoclHUx3AEpUImJU47YNHXy5HXFhUUHcnNz66Ed1eTYHY02i9Vj0OkjeK8Od6fJyclpoLjV3FybmwMjMJawlNIpzEZtPBAiiZAVNqGxWejO++8w0A5AqKgURdsQDEfRx3GKOrueehaKQOdE7Etl5cERO3btnLp27dpj12/cuKCoIE/6bOnSBaGQn+U47DgTwBaG+RNVNZAHKbRCSl0hPBTqttCw5bh8Ho+BN5SY1QPVDcXPPPvSFa+89ObXFsyb9+nr7yz908JT57xh1gxNNp+0ZHkyYvffJFCvPKAloILggB6eDDrXhtG0rW/RghglvxxSEGrhfzqIvw3jx1Wee9P3f1F0wVlPSs6SDqM9GxsTuhWrVx//p7/+9a4bvvOjeSakTABKcakE83r8KJdk4FGMwl/X3ClanH0g0DYboRnibROCQJDAHs1x2ptKSov3z5o1a9mxx85758STjnsTX4tbdT2nNLaYdIrztF8BsK1xMBtR/6nVYTJwjYxeu+XXq3TKQa/f3uRy5T/08L9v2bR525ydu/ZOiPlilmAkCH8r7W6oMD3X+zgA8opN3DyQZlgmYwC3GQvTL2WahBNhzbufvHviB0vfP3H8hDHbX35/6U/mzJr1aXm+hW8qDo9DmaOHDEePb18xw1JDGT6ePb6m2kD3JaCCYPdl1+/fTGl46Amt9lEoHUG8qEAsPX5UUMgMOykRWxM4ebBu7mAephtb4DrmhzfdOf6CJY8yo9UrOYvajbhxeSK67Vv3Tj333Iue2LB58xStyQSTXAEAj1I1EiwQ8HCtT4pEmQkAqzcgqhFgSAfFf5LfzgIAzHXYQtFwQDr2mHnv//jHP7ptwrjRW7GOxw26w9Ekl9nUKbHz6E56facRNHAOgz6yZuuuaQ/+30O3LV/+xYkerz83Eo7oYVJGOBNF3QLh2lrTCQgRTJOADzEODZIgE1RuME/72Y7dlRNu/OnP/ud1ubR/e/TZH1964TmPFDrMvsx6OGjOkqWiKOXU7+yDX3vSkHkmBo2wDreOqiA4mEecOyCagyvJa0avQCSJqEwwm5AJFP6kECrYunV5rKHY7Dr71zfdWHzmSS9LhRPc7Hu3dHj3z7/4zsVnnnvxHXtra0fV+rwWR3EeM4QBsgBAsj9SdKTdbuXJ5aA34/7AUDgizLGgKaMoSaNRn5h/5KxlN/34xlunTp64xmrRBeCL6rsVaDCPb1rf88AeI/9JJtTLfLGovrHJlf/RRx+d9dDDj9y0q7J+TE19gwFMM4hKxYYEuYghaPwmMN4Q9xvp6DoyU2MjRH5X8jWSdziCuRJ1+Qw6+Bt/85vf/eUPv7v7niuuvv79e39397dKi/MHdaknubhzy2T5lGrWNzoaD88SHA/qMUAloILgwByYjECCTiJelVRUKB400v7ysfCF8UEdAk3sZQVUzy9++s0/+OXoc0/7rzRlepU7UtOhg+SLpRvn3Xv/fffecONPj4shgjGCWYLSBmBygRYBxCNrm5LDrodf0ef3MCvA0OfzMTCW8DQAipb89nXX/vGiCy94eOLo8p0oqCvlmLWdJtgPzOEYeL2y6fQUC3UQr4e9kfBjVbWu0uUrVp/4738/+tO169ZPNVhMSYPFKCEylVsBtGC7Ifo4Wo3BtcoMqPRBABlBwj5PH8G8IU0SI2x57e33z/nk8y9Ove6GH71xzVVX/XHe3BnL/MGoZDUfasodeJJp7hF/iIRblFM0iENBI0Fe0PK9gXw3at96SwIqCPaWZPuoXXqUKRo0AWTSUnQJgk7qQW8WMTuYZdqYHaUnLnj/jK8v+TMbU7pPyh3GtQmnobhN8+eqdbum3Xff/fdd9o0rT0JJJINktYIqzMhCfh+zY8H0+WD6NECzkEPgiDkFkZvMBH9gBIst+bvynbaGk04+8fVvffOa388YN3Lr7279IfME41oVAHtvQiBUlk0qL67AFf7riSaf2rFz96Q33njz63hdWnOwtiQYChoi0Ao1GiP3H5rNiCBFBC6Rh0uU00gowYNNwQ0bTTKjI595QkHzy29/dNG7n3xxxk2/uOfJvdX1v0P7e3rvLvqoZTkPlZPscWAUUbbp8NhHPVEvM0AkoILgABmIVt0gL57sX2/HkiJvc7UI46eoTz/ozZrwUEdtxqRxxuyNx5x30eNjLj//IWZiIamkjGxfbR4uf1yzacu22U8988z3L7niivNCkagdSQgswkPu0QX4kPTQBsOeACvOKWQB5LLx2BdqjYJevD6GKE2Wa7M1nXvu2Y9/9zvX3p3jtDQ6jKZUjTyHmQyz6tFbErAZyfMrDodeIm17A15k677l3Q8+PvPpZ565fs3ajUfXuLxFBhNIxWGyjoEEQIcgJdABcPAjyjrCB6PJAf5SFyspLWf7qyqRkKK3Pvfq29f956nnr73up79+5jvXffPOWeOHba93e1DJwpExaXpv3XtH7R5qgRS+cuVImVtoPmdke+n2XajG0G6Lrve/qIJg78u461dA1jbVrqMcugQRD1KYuwx6BExiB0vZgRQdqEXUp455UNNPOmLEzitu+/FtbM7CD6RRw5vYz27o8No7qupLLr3yyhdWrFo9D+WEkGoGsItgDSWNEtyVyADnZjI9ANFsNbLGOmIvMadCCjhXZyLEFp9x3lO/vfNX3zGbjD6bSQ106fqA9943jpk39/0Tjpn/NlWEfOrVV6669/4/3l3r9RQiQhcX1WMfQzzllNLCaQa4T9dqdTCXy8vsjhzOluMLAAoNFs3/Xnzt8hdffPWyJV//1vsud/BaNDDQQVCpLH9IsnxrYiKuEPIAsq4dnZ3PYVf1CHZNqH18tgqCfSzwjC5HZIN4cPTQn6JGVEWIYHmi/D1e1R1aGpLsUAWPM7wcDAeZ47TZn1/43evvsRw751Mpb3ynkX2bKvaO+9vf/33nsacsuhgJ9PoE/EMRmME0VAcPQEgHIBjRLQkeTKGHr4gWQ7OVygqBRiwe5fBbVJjf8Oe//eWG0xed/qJTb0hpIxndo3pSn0jAarWmU6Y97I/F/rNyzeoF/3r44ZvffmfpmUkURzaYqJYitEKMvwHzLQAqNipRZbfZWAKbIiqfDD4DmNtBdAD7wMdfrDr1nPOXrPvJ7Xc+d8vNP7rZgHJPZJJ12O2dsgv1yU03q3ptYJSSNUnm0GYNUN5jynM/8152pkG2oKPNvFn1zD6UgAqCfSjsjC8VQmG5GOAIu3QXsuCN8LklQwlYNuHLgfkTsXzMU5LTOHXJWU+efMpxr+XOmfY505uiqKXX4Xju2lc94s9//8dvzzj9/IsCkahZDx5Prw/8lQiaANMnr5lH+WakdXKmF/53DCYzZHLTcoIPiOtSL+nC11937f1XX3n5nxx2o1sDaMz43tQT+1UCVp2OzKWfemPJz7dt3zsJrDVLnn3+hW9VV9eW8qhRv5cZEexEkaPRUJAZ+O+y05D3HPMDnLB19a6cR/77xHWvvv7axRecd+5T3/3O9b9xBwINIAyP203m3jUuZihB2Z9Armv82n/J8ryKhHoMWAmoIDgQhyapTVDUZxJKmT9sYEFUcfeDfxl+uuSM40/4cNKx894rXXLuI6zQ1iBZC9ODXNqMvlzx1Y7ZL7z4wrWnLTrnSgI/CqKRoEVG4Sk06bDb50kN0DLlbSuZYWndI1JtvniQvwi/azRhVlhoPHjbrbfedPbiM5+xaVXT50CcPpn0yS7yMzfh9atoPHnHK6+9v+ShRx776Zp1G2ZTuHGcihiDizRBEcHcdArwkwsDE8IREGrxOYKecv/9xHM3vPjGO187/9xzn7z26qvuwsfVnmBMcpgpQ3WAHiku0Y5J6bPUexUEsyTI3mhGBcHekGpP2zRI8UZYHjXgHTMl8pjxiPLt8y5f/OjIS8/6D3OW1kuWghi7+cZOr7Jzb0PZz372y0cvuPCSU4iIU0sJfeT7QeJ0jLg6iVyNqiFgkeNVHlL18JRnlnx+tAjCJIsFcMGCeR/f/8fbLxuVV0Kh+eoxRCSg10pJrzv8yuKFC1/YVl017pZbf/bYpo1bZ4MCT2tEVLCwEDSHUIbBXWqDqTQY9jEdrBQUQXygtinnP089d8PfHvzXDT/9zb1/9jR57saXQHM3kI60ZHlRWqRPcuZBIi9yU9RjQEpABcEBOCwesyXaOOvYFScvPPGNiWcsepoV5Tcwiz4g5Tha+N0C/iAIV0D6bDG02HFXHvDk3Xzb7f+dveDYM7Xw4yUMCIsgvk4kufOaeAA9HTF6UokjgCBPpEoFBch19MggCo3R7/HB16NnCxce9+Y//nnfRbl6U3AAikztUg8lYHeCSFwcW4OJ5LyVKzfO/+lPb/vv3n0VYzVaAy/uC5s5L91kNqLGYSDE8woToGmlpHSTyS7SZUw29uijT9z44hPPXPvof5+76epvLPk/vz+ks1pNfZ4jqiTLw8KB2S1b7GUoEkaPZlySTadZRyrid41pTCEW7V8O2x5OjyH9dRUEB+DwakeX7/nu448s5HVcix2iompbBxQ1g7UZAD//YvVxP73l9kemzJg9TmeyMiMqDoQpooE2vLB+cQsQt3Tin0x/T7v8VD0+ebcvkjNEJYe4xcCuuuryv/7wh9fdoQLgAJwsvdAls0ZK+sPJZe+9+9rEpUuXn3Lnnb/95+49e0cbzFbMEPiIUapEj2AqgpYYAqY0KF7IIQUTTIJbmiqGeCMx2y9+c/eD46bOuffBfz92n8sXuT/HZmg3VacXboNSfGhHR5b8tBwIAXwU2awU4lJyBXtDVaPnLmpEQiYLUkFJ/jDGIx5hWFaqQ8fh6I/T05lAqpM2YTPk9PmGoTfkP1ja7I1xHyz3PqD7GfEFJIPNwverrngIKV36uA0+wdadXr1h+4w33nzrsiefeu76mrq6HKPFgZgGJLhjV55AhB+soHx3K8H8KXKDhX+PrwxyrrCAQcVUhHWDR8EQPVqUnXfumc/9+o7brh+eZ3MNaIGpnes1CRxs8OQ++9zz1//7P4/dVFvfWMASOah8z5lhecHkONCQzxluURBJ6MQaRKw0VB7LgGiqgvzcusWnn/bctd+8+q5xw/Kqe62zaQ17kj7J7gtb/zXvuC3jt24uN0MZ9MMqkgsvQIAnyws4lH/JuhbIAQ9AVzBj+r7ib177Nwn+fW0yjDDqiBaRuOSB4NWtqdgWqsFgu6pPNuXm1U29/ILHzCaHCoR9MUnEDFCPgSoBdzwsObXGQ4Cv1uWzbdy0ffbjTz7xg3ff/3AxSvuZkFABPx+GE1GeorYgmUDj3AxKBXYo/L2ZHIPqDnFolJPeSQJkD1UqzgsQHDVq+Pa3335xWr5BGlih7wN1wIZ4v9Zu2TLj9p//4qEVK6rmmm1gP4e/GOWqkHhPc4tXrwL4YWXnUwt0e+CPtduszIPkextPr4lQSSjvFVd87a+XXHjeg5OGF1QFQiGdxdQ7plJPwi/Z/RHzv44+dsf4bZvKFBDMSwfBlB+8Z4PX+iFVFlbSi80ID13nLIg4vAaDAzR1EeQ+xcg9Tzm/VBES8AdJIvUIFV6Gj6z64dL3p0ileaBnUo++kIAKgn0h5SxdY9O2fRPffOftS55+9vlr91TsL48C4CT4abSI1CO/DbF+SCjNEIMGiGKw3AfIC9XxHSm4QVKBAFR2R+Ce2AvTBwIA5bLsSI7Wxtau+dKJohDBXJXwOksjOLib8USCeofBHL31jr/9+YH/e+CHuXm5qG8Y5kn2BH40ncjzRoQOOuQU8tqR0AxJIyQTaQi1EE2oKELRx5Ggj113xSUPfvu66+4pKy2qpD2a1dhZ1l3X5BeI+DXmYMz0wILjdo7dvr7Uit1hEj7wHDwILmz4mp8HeRMoN69YT5XHhUjpFZDj+bMp3aE52iUdBJXvC0OLiD6tthpYXsTC7LDQBJDlGxaWUQ6EWvKp0kaCWVjNsHFNF678dJRUlqOCYNeGu9tnqyDYbdH1/hddTTHz51vXzX/q6ad/8N4H752lkcDqgigXqttHQJegp5jMmzx8XRSuVUybiqWTcv4UnkR+uvKgpwJhlHdkEMTZRixa55x71mMP/P7nV/X+XapXGGwSaIpEdVu3VUy+/PIrluqMBlNdXaNOS7mstOTz6aQBkbuYVzQ3yTzK/W98gsKMSuZT/KoB6W0iEmdzps3Y+POf/fy7J5405rNA2KexGG1Zy1tIuvymO+fOqZpUsy9fAvXfKI2NWfDs1IHJj1KClNR5HgLLu4yNI/pGFSnJ+UCKYgiRE8TPS32m+xJAKE7XI9KaziES+zg2nvRdwe4k7zPJPEwkFDwgjVKTICMAHipA8wbobzqTklAoOtuVM9J/1o4NRVKBrf1YgME2YQZ4f1UQHCADFIFN82B1Xflnny9b9PmyLxft2LV70s7deya4vR4jN2iiPIQWWp6Gs3YgjwtaIFFe8V2nXMRW2Ue3HlRlAUq5APkDpwDioSCoR6DDyy//b+rRk0ZQHpl6qBJoIQEXSpTkGPXxFZv2Tbns619bFgiG7REqr0WeZXkuEqetQAJB8ydc0M3/SEGyI5LUA3o2lLJASS47Ky0z7V+06LgXv3XttfeOHjasKhtiTwYC2h3PPndtYv3qeVtWrppbt2PvRNBKaK2UHQQwFIBFbEkAIor0IbAGSNHvZq6sCY0xriE6wQhl0/JKLQSSVFPDgjOoDoefgyXV8IQWzCtyNINg6j7SQLDlvckgiGu7ckb4z9q+CSBoV0EwGxMggzZUEMxASNk4JRZNSmvXbZnnD4UttbV1ZZF4XLuvYt+42vr6kurqmuGr1645yu32OuIJbDN53h7Cz2nRQEALmZQokkwH9g4yf9Lf9BZpgjSAIvRF7EAP4UTkj7XYhSsgqPwUQCg/+KmbTDKr2RD9atXntkIjnnr1UCXQSgLeWFyy67TJisag89XX3vjGL+64868acM2KhZ9sh6QJNgee88jk1EojV2/AtDPrLCyG2oexSAhzm6Y9CODB4GA2G8PHHbvgw6uuuvIPRx45a2mhVZdO/dbl8UhGvBIaNnJ9Lhg0NtXXlbHNVeMaqqtHNjY2FkaiYaPOE7Lp3cHcWCyic3vcjngkbLRWusfU7d8/LOL1a4yotmHQolSYFGRW2EdNoRienSjAj6gMqYqLcCgQ9BNIKqZUDqMcXOlDWTvmz694T9EE6TnUQTsECAYX79hUCBAc0LysXR6EAfwFFQT7aHAisaTme9+/7bX3P/zwDLcvKOmNKGtD9d3w1MRIqxMqHQrRUui5BF9LhDvNLVYLByp6WCIRwiSYXACGYtMqP0iyeaYZBAWwyY9esw1Uvtd0jVBxDvLLy7tig15iH374QenEMoeaFN9H82OwXaYhEAI3mjZeYNFHpsw/5eDBuoZiXolCNjBKsiZIAMjNfi0CUET0aBKmRCq8bAIjUhRzOwIwNKLKBc1zogpMgKc2P8fZdNopC18++cQTXp49a+bn5cX2xq7IypWMSDlSyzza9r6f9DVoJVt+POmt1cOpSZ2kHSfVl9JF9u4bc3DjhqPrNm2Z7tlZMSlcUTPas/9AeaO2Um/DY5mD5A/6SVpgqwpNImKWIJJsnvQb3y2kJyZxHZoZIA+AYOiMXZsKpHwVBLsyzj05V80T7In0uvJdcBDXNFSXIVRA0iHxGEYVvnvkJL4wo3AzkhwzTb8azeBMo/BzACSeGp5SpOXMLfQ4USiC8C/wx0pQetBWkz9MzbXSFBjkEJfqrbJLVQiEW/yNs6hy/LPPPvc9/PpzTyIsOTSHRqh25dbVc4eeBIxGKeIPBcz7vY3W006/GFNOEK+nND4+5TBPFbugPP/ERguaIrSiJDQ/msdUuYL8ZJLexOAixMcGFob1EVtCVtfozX3q2ReufvrZ/11NJsuZR51cfdGF5z1y5uLFz5SWFO03mQxBaJFRm7ntZPRMAZB6RQDIf9qLFFKK9DSFdfiIXiwZgGbJoOomElr3ypVzP3v25W/ULF19fEOtu9weqrXow03MabTgvDAz4CGne6Y0CB4DSo85Nxy3fCbpmSUtsv8YTofeHM30jlRNMFNJZeG808+/ZO2a9VtmJJNU3JTMR3LsGA+VFjjVvD/E3+Q8px0kgSA3peB3zm4tmzbl3XXK2kKoSqYn+pei9Ww9xKlQAHnBErtQbjHlTzjyAymKz6Rn37r2G3+64Ybr7yiz29RItSyM/0BtIhiNSGZ9ZtoS3YMvHpWQG6hx6gzx637yo2f+9793L5G0Tj7vKNiEfIBKVKQwuTcv+ASK/G+CEU2cPwPcNMj/k8+TrRz0F1U2oXmvZMiC4Q1BJXARIP0HABi32cye8vKy3acsPPGVxWec8fyYUSN3WI19X78y6fNr2bYdoze98ew1nzz+yA0lkkkXq6izFOvBpBMMUc0XPPEhPLpCMxaJS/KzKOdVWmPQBJ0jIov2bMqT8lRNsK+eFxUE+0jSUdg4T1x01o49ldVjwxEyh1DRWqiHXAEUICgUOzl3j35TIssomo6fIwCQgJCfzxcUNCVH4vGoNe5/IWe+Amwth5jO4WsMdUGgnuwXlJvmEW4UeRrnSc4jhg/bd9yxx7xx6imnvDB/3pGfgHg57odp1woC5sZQ3JBn0g56v2EIQUkke6yrEl4au4kXph3yhz9E/mekJhikRAA+a0urVJgA7HYWsMcogghhDhPz3udLVyx87rn/fXfT5s2zd+/dN5xJtKlDFRKCPo5j9BUIU/6iYgpNRS/LJogEnGepxlMASBNTGPNFUwQagAzFvIpngZtS8TalW+hRUcXrc+M91DxE4FhOrqOxoKCgthzzdvjw4btnzznyk7kzZy0dXlhwwKrvfcL3pO+AgTXUlIZXbZm75sV3vrF7xdoFdfv25hfA5jYMuRDmUIAXNAbe8WedP4EEiuiaA+XMmhwjoqfu25gr5Q7sgsVD6eFQQbCPRjOMBeTIo4+r2V/TWChpjNzUQ9yLtBNWzJqKJqh0SeCYEsGWWlHgR2wJgnJcOg9ISIGgcnqr+9PgHJ4M0bxCcSCkQysnPCMLmv9NCxBPukduVTSMevP4e1jpMHd+fl6TMy+3wWo1urVaAAatLcKeS5okbe3JMJvUUdy40rjoR2/Ot+b1tPmeJcQwNAfCpr0v94v3JxAIOoqKCvfD9Gy02ayeKPLbvF5vDjQU0KtiWafIQeG2Fc7W7h/Zvv/WfWmvfZpkYmzkn7SVysnLq/MG/aXI9UN6qT6Ew2Q0GkGmkkRx5aiZWE1isbje7/dbISNTXX1dcV19vT2OnQIHIYsVid4IN4G8JPj2uFbHh1gAV/M8Fhoe37TJE49HjFIESfNZYnrQ9EnNGrFB46ZCefPmB3epESXATCYzYl1i6Ccqa8KdgJ6KDSGuazSZeEBZGL5FSujX4X4KbTl+jHH1pEmT19FYFxUV7S8sLDxQmJ9/0Gq1eJ1Ok8tikYLAqURhQX4NdcFpsHe7RmYy6JJYIG5klVXl699+87Kt77x7XnT9hiNzXW5mRJ8oN5DLhKxBpAni5cTVXI6R8VP2rndIeR3QJXZ//qnfbEMC2X4oVSG3IwFoT9qJU2b4axrcRqstF5Fw5HMXVR1kFTBlDm1ePLgbXQ5YkVcGeafNNUEFUxRNUF4yhLlUWR9ba4JyPGjqbYUwW3gUKcGZwJAeTuKFtFosIEsO8oAdapLMUBSlSpeOo7guSlOk44lAHG6fVfIW+3dKHBotK1MDEMAD3BPEqIN71eD3vLw8lpubm9i2fRsFs3MJktbBDXiKzbl/b6fbV6fxpJJIhIHkf6OgLA0o9RYsWFC/bNmyAiqaLAKzePQGiIf0PKpRDwaicCjEAIQAHxOK7oKYAbKi+YBIZmhhPmYFK0wE80axMAjburBEiKVeXvDTtB8+mzVtaIIpAFS+27zhI5CleyDQjQN9NeirBtYK8pPHYgggRftEE2hA30OohUhgTYn6pCHSvI3gHkkO9DcdcbRjtVjjuD9tKOzGZ2E+1k6n04/T4pgLDdAmK0aPGLV7/LhxGyaMH7+uML+gpqSwaH9ZgdOV6WAka/ZbmNuTz7bunPrBfx7/0cE1n82P11Xb7LAIOUFAbqY6jskIc8QNrMYxkp2+a5VNKlQ1wUzl29PzVBDsqQQz/H5VfVPR3KOPPej1hyUD8qOoiC35BZQjfUvf/qC0l0Ms2hGJ8c1mzvQlqK1utgmTpCKknczXsvQO0frWwT1zay31AS+qidjfBykbSvKyvBazhoYGVl5ezhpcTeC0zGd+t5ehAjvLw+/QdHh0Im0GuIau5HbJK3qzfPv7znp+fcoy9UEzue6669l//vMo166amhpZcVExNy6QlqXHAp2IIl6EwJPmGFkuyD9NWh9XLnnco5h3ciqPsgHLZHFpT61u67stqxGJzRdplHTxTAJK2rpWJn1UDMIEmiaDgflgfp005YidP/7RjTeffPLxrxSbm9Ven9+jtVkdHRaZTjbtci7/6x/v3PjcW5eY9zSUFMA2qmF+Zo/Y2d6CYfFLN3+RIxU5fT0fYbWFTCSQyRzIpB31nE4ksGbzjumLzz5/HfF7UuQ17WAT8HPwB5sWkzQ4bH9Q2lsyZAYLZfPNG2hbE0zvptDXWh2tQK4V/glA7GDREZqgAE6im+rvA8pGi3ukhZoAj4AuAG2B6uIV5RdA2w2wmtparukQFRjXdumQQVCEuYvjUO2yv++ye9c3YCOmg9bvgzZ39tlnsddffwNJ6zb+N92rDQnsfq9PNpOL++Z1J+XNAZeFLBcOgmkbBfosk8WlKyDYvbvM3rdIg4xibuj1Wh7dGgz4mAVlz8qHle6ZM2f25zd8+9o7h5cUVNrNlEZ/6NEY9OnzzDZuYk36GnVsP/IVK+vLX3nggZ9Vfv7WQkvQbKovKKy9+auPR0p5zj6tuJE9KQ2+ljKZp4PvrgZYj4NILn7nvY8uuPa67/1Pa7CIkAEOJoKHUDBt8EdDfnV0A3Ri3w1bukMtpQVlsPMeKBpTWw7BOIJ+iHrObDaT+RPBFDls3dp13BxKJjPKWSOzYGrBh8SpUkIfir1vZjDMmTrcJ20I6F6PPPJItm/fPuYC4TVKMMPnJsyHKZ+13KsUQxGPbpahj2/A2oO0vrmd3r6KAVogzSeaH+Q3NVAuYwIywnt+v485HZbwmFEj9iw67ZQXrrrmit8Ny7FlrM0lt2wc7Uf+4Rfbt8067vpv/Mlsy1cZY3p7QJX53EfXOawvAxDUPP7Ec9+79fY7/mK258B/QlEWsJgkOGPggAbBITdwtHhhMaPlugAaoAnJ2Vu2bhWV0qENUlAFmfxi8CHR0ZyLOfQWePJ/kdmXNBzyD9LCPmnSJLZnzx4QqwR5YAnJinyI6YciE5JTSkM+DECQzKF07wYdSgOSRYf8oLC1ky+d5znygCDa0lL6hjZ09tmLn7/gvHP/fcqCuZ909hyFIj7JZLAlI36X3mDN6XZATmfXUT8/VAJ9p1IcxtL3RyKGm3566zOvvPbe+QmEk8cosRi5gpIGRdopGo5H1Sl2u/a0wVYaIF+TZe9bcxT7YSzltm+d+7AoyoFHvAogI81n1KjRCK/Xsy2bt3CNUACe8r/mtoYyCLYlMQogmTt3Llu3bh0CX+C1RhCMEUDY5CLtEEEcCJQi4OSz7zADwZS8+DQSvgeSgWBuEgzbIrWDvP0U1U1k3MnEySce//43r7zyd9OmTl5WUGBVzZwDbJVSQbAPBiQQj2tOPe2sPTt3VY6Iwx+IfSIeEpQA1AhKRBF731UQVEBRdsL1wX0MxkuQWU8H/2sAWh5FPCIHgENhUWEh27FzJ8txOilFQgVBeXD1xE+Lhf30009nb731FjQaE6tHIBGZjUkToihRPUDxsAbBtAeh9f5T+NnFMykAESZn8KKS7FA2N/Kdb13zx29fe/XvHDaTJxmLSQ5b9ipmDMbncyD0WQXBXh4FTyBs3rRt+8yLllz+BbiCAXgwLzFogQBDiZjpUyBIj49CPNhWp+ShahGVoQyfbKpTNcJDBKdogpQOoUEQCNXAiyC4oR5RoGQC9Xi8qZD5tnx+h5smSJqfz+tlw4aVwzQ6kS1fvpzLh4CPAJAqySspPVwT5BN4qHsDu75IKLm43MqDIBrSqikNlwoLl5stnnyzyX322Wc8e8XXv/bHkaNKq7t+BfUb2ZKACoLZkmQ77bhR1PPXd9/zj6effeEa5Pby8kfwSuEXBF7IsftCE+wMBOULyFRpbV6u9wkxella2W+egjsoF9CZ42QORDsiB4zt2rWL58BRUAiSwTsMeDnsQBCLNkXGkvmTtORJkyezHdt3cBNoLIaKD5RHKkfOpgJmVBA8ZOIqFHCCRYdMpQioCSeY3YbAuKYGZtGhbqdOAz6CeGzshHFbZx495/Pzzz/vsflHTlqZ/adAbbEjCagg2MvzwxdN6k5dfM7OHbv2jkQqL65GJZLIJ0gJ6SLiUOhxii+wnSjENjVApfOqJqhIgoI9KEhBi0APSpbmPizsPoqKi3ji/44dO7ikleKmBISpUjdtzIVWunYvz5b+b56KvRIzkAVsMPQzCN7L+Qvmsw/ef5+BZYWnj1AwDAUOGQ2UThISyeitgmda38nQCyvqYKz4zSruCoVFBwE1WhAPIODIbIIVCDRvRAgegfzoVFTPSCI4KVZeXroT8v5o4sTxG6ZMnrR6zJgxmy0mQ8AOarv+nx1DswdqFYleHFcqlPvZl6tPqKjcP5LiMmhhFqS5zT6DlpfvbMlta8+i+gTTZej1eVl+Xj7PdbM77GAOCfGEeAru2Ivwf77doMreHAgJKMlM1f5e8LBavEkmnCtHi8oOIn6D/Kkffvghu/rqq9l/H3+cFRYU8hQKCzYUtMkgM7OSJN/hbvtw0hZ5+pMyc5QUf1QfRDoFGBNZGADIDzoP0cm0Fw5T3lQ8od+xuwrFtJ+fpNHokjqNTiIf7YnHnfBKdV3kytJCg7sXl6vDtukBkM48dGVPvNcP/uuhn1OsmMmMnTUPP6TJL5s+27v1NKUwo9TBoSvCrt0Z5EaAF40SpzfMTQiCIfAj8x4FwbRYm7rW8mF7tgHaXh6CYp566il21VVXMRShFcFFmNwUbIRk8VQ6yWErpLZunCuC8gaV/2xLkaOTRAEl2hyLF1mKtMzj84OsHPms2LC9/Nor5z7/wovXq/LtHQmoINg7cgUbSUzb0OQuWLlqzTHhaILnBoJlGPNd8HJyrurUoaCesj1UKouJZPpmp9Xhppd0cXAgKsptoxfl+5GJDuYktnPnLmYDSwzlvnHthXOjqlM/E+lymRHXKEDvmWeeYUcffRRYZeycT5Rk6vG4eRqFevRMAkpVF+WnxW5lemiJfrAa0Vyura8d0bMrqN9uTwKqObSX5oZWr03+4pe/fsjjC+jjEuipYFYif8shhrf0HWLKl6B0qg1T5yHn9NINDMZmIRsyOROBcmlJCU+JWL1mDWeEIfMoBXTwklS8TqN6ZCIBDUU2YuNA5k+Krl27di074oiJ/D0izxZRt3KUaCYNquccIgGlPEn6B3r4qhsRnES0dvTi1T3Uo1ckoG7hekGs7nBSv279lrlvv/feObRLJrt+EiS5vN4fHcrP1iYSbiaVX/RZWykPKdOKupDz9Ad5/HhAB/5RGH/58OFcC9yyZQvPc4siN4VHNEJknQVw9MJ0GNRN8tkILZBAL4roUPp71+5dbMSIEVz2lEBPMjVDzpQLR5VHlCoNg/rG+7nzFHhEc5fkC9aeGDZ0IqlYPbIuARUEsy5ShpwqFv/N3ff80RcIQRsxcA5GUaKGQkFlE6cChJyDX3m1BWzpnzeznvRCtwddkyQt8vfRwksLhsloYmVlZXxBPnDgAHxZec0BCkoA7ZAjAO37YYuEIwwFdXlCvREyp3xLF7QWC8yjVqugn1OP7EiANm8wR0slpaV7stOi2kprCaggmOU54UM17mdffP3KZV+uXGC1OzgbCQUPRORgDXE5VYvLhtjJPKfsmEmmtBiT1kLcl1QNogmlkshcxyMeO3hloy+HUxskywA07i+WLWNnnrmY1dbVcUYZXoMS2iIvs0TRoP1cg5FqQPLC0G28Bst4kawxx6WCgsKqwdLnwdZPFQSzPGIuTyDn7t/9/k9aaIBUBZuXpgHDPOVUqUd2JRBE0EAIeWwmcH9SLTwK2AggkEMkdsd4ZKh6ZF8CRD5gxYajGtr2yy+/zI477jghc6rAgZzM1lUnst+DzFtsztZLz9zL/Pv9fSblZSJ/ULNmzZrj+7svQ/X6KghmcWT98YT2b//456+b3F5nDD4qEzTAQDAs/FIpTVDx+ykh0+mPqaIlpmuKrR9jpcPpEaVZvIl2mhK9QGVvqu6tpHr0/mVbXIEHtWB3z/1Q8Jk4HQ6Y3yyIUrSx/Pw8tq9iH1+IFb+fwmzSx90c8pejYBmSsx2WDopcXA6NcOasWczt9nBGHjJR0xyhceCsPASMpJHzOdR7r/REA16ps4OLZdKPfh1InlcpAuMSLMqWf/nFqf3anyF8cRUEszi4Vq0m/t57758XpyANsEMgFga7OK3MG0gLuHBRifIzCtC1ehzTMyJ439p6XJW324gezeL9pDfFK4jDrEQBEvTqD4suheVTaZ8IAl1ooaXaf/nIC7QACHft3s0XXV7hYICY43ppKPq/WdoIEbjFY5yMgPIxP/7oI3bmWWeygwcP8qLFNBYUEEZkBFqKjJarznNk6oUXTztq82mh99v4l0kf+lHSYnXAJkIPOEeS/Y6d2ybQO3X+MDdvuPwB1cyRpfFRQTBLggzGIrp3P/9iUUXV/nK9wYTEeDkQpkUgRt9qb126tfS83g5dliLFoJkMSobpPtAOqeQRkV/TBiInJ5cvtvTaxfMAbchdQwCdXDqpS/euntwjCZA2SP5Yola74oqvI3fQwzU/HSrXB4OUUG/OWlRuixz09npN8We00eQ1/pCCTrhLmmE6NaH8d/tcQT0SSXa+LD+H9MPr9Tl+dvcf/mg0GqKucFzKsVqIEUI9siABFQSzIETehEabfPjfj/w0gajPCHbI4pEjsmwl8Z22qWlIk63rZqmdQ3bRrYEQ4EI7e7PZyCiHKRmNczMXASJVaSfzpGIqpUVH+b3NDTfvc9c3BJTgnsD1qB9uJGmPHDmS170jv2tjYwPMz6aUNNqqiJ4lUanNtJIApaUomvmLL73E5s+bx8nKiVHG4XBibJqyZkKX6XbF1pIep7ZGA+/H8QzG4YLQkEmWHk+AIq/vx2v9UbAMBc10fQ725eAr+YPyT81zzzx37UP/euRnGrCM9mU/hvq1BvRGaDAJv97ryTnz/ItX7dh3cEycCAITMBm195AOlBtLA7oWVlhK30CeovhYOYlyxeDbScaJKSQ+fuwR2wjnkf5hQFmiQlQdyFGIqIWpV7SY5O3QVhw+UKUCRgseycz3YeQLpKoPw4aV8ZSTDRs2gBi7mLOXiNw0ol8UFeGVo78jFAfKUPdqP8hPqwXUyKsJBStNnTaVB85QNQqK4uW8uUq0aBesBsLI2RxpKjyLqdEVM1ScwknH6CgrLa6Dr9in12iiSNewQjN1gu/UJthYqC1BT5akTRV9hXZt5KbgmiPxp4o52d9zhwO1RPMZzxCePdpoGvQ6NnP69NX3/eH3l04fO2xHr47rYdK4CoJZGuiaJlf+rHnH1gTjem0U1eNRKEmAIH8u09GmQ1tjlnqTWTNiV81XBr4OBEIBZkMwTygUgS9CC1+PjtXXHmTHHjtv/UnHH/vG3LlzPp42Y8byHKfBx9eeZBwR3LS/lqSqquqR6zZsmrty5eoT3njj7SU1dQ0FMfiDyHcENYFXzBCl6JQFRpl6bYMgrwYP/x5pGBRxSH4l8j+NHz+eVzKoqKjgeYFCHRBttRWV2N8LWWYjMfTOIt/tmNFj2MaNGzhA0hARgw85xWn8yITKfcudHVxjI5IDbMAIr2TCbj3mA9/w4PPJkydvPuHY416fO2fOx/PmzvpEbw4njDopSk+gXNpWOlBTX7Zy1cYFXyz76tQ33353icfjs4eQ72gygU4P/aF6iTyAh5tPhd9yIEW50vMZDVMFCiOehxArKymuu+euu6488YSj3tZCQGaNXJetM3mqnx8iARUEszQp6tzenNnzj6/1RbX6SEKPCEYywQwGEJQxGlBmtZh5/hdpVVazITJ92pRlv/3tHVcPLy+qsOmluCsYM+SYde36IjzhmD4JQIV5VPfCiy9f/eqbb35t9Zp1R8ViCV0cstBiF0sLn0IW3GzMagMIcb4O5xPw2eFvCmPBKikphi8wh23atJnTePmResJ5K1UQzNIszl4ztPmgsTnxhBPZhx99yHlGvSjWq4ElD34tUaEeaURi99L+dflHnEga5na0SYEiceQi2m3W8Lyjj/74O9df9+tZMyatQKkhUaG6k8OLyi5hkNp88skXix9+5NFbvvpqzTwJfYrAwpBSVDFD9TowXvRH9Fc7/UfdQWbE80DEG7C/8DJXBXl5ni+/+Lgw16RR/YOdDXwHn6sg2APhpX91d9XBkSecunhXKGHQhuLEp0g+iIELgkIL5CU/U0EDlFenR4TrmDGjNtx33z1fHzd8+HYdouFN5sx3mWE47Y1GbfLgwcbC/Lzc+vff//Ts2+76zYMHa+pLqYgwRQ3GOVM+eWra1wbJ9BmlAq7QJAmU8/IE+0tjUxP3Q9KCagFokwmWt9KOiU3VBLM0wbvRTBRE5jlIoj/ttNPYY/95TIwh5hz5dSlghipUpINga82LxtWEc3wecGjqJQ4CsAuy4eXDdjz26L9PO2Jk8Z5udCv1FV8sqX3vvc/Ouf3nv3zU5Qs4yVsYxKaL5helNVF0d1tHOpthizKfPelMZ9+lDQClpuCZ0MC1QLLKy3F4X335uWlHDC/a19nX1c/bl0DmDhlVip1IQMAKMZiQ6W4wHCIwgPIV6cGKs8qKnezHP7rhx889//jRY8eWb7VZNNGuACDdMwEg/XRYDd5kNKQ/Y/EJr7704v9mzZ09ayn5NTh7RwY7bKpeQA98LjQ/Ak4CaCrjQ++RdsituP3MSDIYxri/+kgaC4FcHdhkXnzhBXbqolO5X5AWb6UQbyZ5NgSWFBWsQbQ12ovc/rMf//i9d1+aOmJEwd6e3ptNJ8XPP+P4l95+7X+Tllxw7kPwbbPiogJ5Y9hx6y186D3tSAbfp+vRc0A5msKlkGTV1Qfs0KaDGXxdPaUDCaggmKXpgSoRMTzkCJdsDiRpjoBUotD63x8oAlQp0lPPWWwIru1mAzMbpeCzz/13yYUXnfV4rlEbseu0GThs2heexW4LGaxmbqbJz7PXP/LIg4u+d8N3f8P9QZTrB7YX2tkqu2oynRETCVWAIHCjpGsKrSefYPmwcl4QlzRDikQlzdAMhhhF1MLtSpENbbyyNL5qM12TAI1jAiY8MmUThd3aNWvZLCTU0wbGDFM29w/ygCnhl26mQpdDqvgjI8GMamdaAKdRw8L/fvCvZ3z3qiv+ZNfpI2ZJbLaycYwoK6i+7bYf3HTHHT/5lcddTxmxstmR+kKhOOLF/yGohv6l3lesPVnrTcs7ahnFKtYRJUJ2+LBhtR3Ug86GaA6LNtRSSlkaZvg6YljgjRoNzCg85Ex+KgaYwZl3B10jH1sEixTwj3lcjezBf/3tygvPXPx8nbfJmSWRpJpx6DmgEqvyL396x+9zHnv8ye/bkM6Qvm4QAwklXYeQ60fVCggo81AhnqrDbwFZMwEfz0/EDVDSPj/SZNtLa1C2RXHYtEfjQVGWVIswDrMoDdXy5V+yI2fPZks/X4q8QqsceMINKC0P/pbQtVxNLua0mWL3/u63186eOWV5bwmw2GH3NkaD94SCAeu/H3n65kiE5hqlODUfivbHtTK5z8omrjfnn5LfSODMU3/48pJkEyaM3ziqOKe2t2RyuLSraoJZGmn4sBJJaDLpR+vk3CxdKivNUDi4joetJ9gf/3T/1QSAwUREKrTnurNygTYaqfUEbb/6xc03nn3m4v+RGdbv84o+kJkHvj/SEgngigqLsEjauQ9pD5hg8gsKODuMWBebmUF6q59qu9mXgGDzifJ6hOeed27zJuYQX66CiCKPjzTK2265+cZLLzzjCafV1LvlKeJxzQ3f/fZvLrzg/EfIdIuJ2RKf07Q+JeU3+5Jqr0Wq60hpRgSAvJpM4qYf3Xhb311/6F5JBcEsja3JaAghYs3LJyic9xRw0tIcmqULZaMZClfXaZBioGfnn3f2UxdccO5jnkjQKFEOQy8eRQ6zz6aVEnf86ufXFxcXHDAgDYNynyhZixZJCqsnrknyGZWVlbK169YyG5Kua2pquPkzdSgZ+L3YV7Xp7EqATNkUGUrm7Zdfepn/fshB+alyLqkStHXMvPmfLrno3Iez25u2W8sz2cKlNovv7rtu+9aoUSN3yWCTChxL2SFbWSB6UwtsnvPw3AMEOfsc1paxo0dumz1z0ld9IZehfg0VBLMwwuFIRNJppTgSW/GiiTqwmPTTb1EYammHrUN1C3fylltuupElYhqHwRw26Ux98jwPz7c13vu7u68ECCZ9iPLk4fQANgp6KS0tZYWFhWzFipVgHXGw2tpaTommBFUMpNytLEydw6YJB8jOqeoHpcgQsw/5C1se6cZGmoZkHUhG773vriX5dqlPC8qGggndz2+75Xsw5jKtzDLDE9YpspXyXSkoi8zy8k+FA6K3BlP2BKI34roabCRPOfnE18261lW5e6sHQ7tdFQSzML7wXyWhVYWnT52yWoeHhFhVmgNksnCBLDahsGYEkRh/7733XJuf66y36vU9CoLpavf80Yj2mKPnfHjKSSe/XZhfBHkh0AAvIsMmPxIxwTjgCyTfIAXHkOJHvqVmWjaxFVdIk7t6ffX8vpcARfuSNs8rS0AbbFMLVCgGsSmKRoLs1tt++JMJ5daaYDLcp571Ios2cs7Jc94+Y9GJr8YiAaRmgAdVKwgleFQyKaz4g/s9u8B+0x2pJ6kaB3yTccqvxLNAUbdOp73xisuXPNCd9tTvHCoBFQSzNCvAp5n4yU0/uh2bs4SWQDCDNIAsXbpLzXD+RPRPq0mwRaee9LIOP/v6sOoNcSTfJ2756Y9/1NRQL5MdJ3l18v1V+3mF8tbpD326Cva1QA7D67VvciAKNsYKC3Iar7zisn+SaMySsU8sFK2H4YqvX/I3it+Khf0I7glhgya0P/IUcmdHNidlJ3dIuZXEaGOzWdi8eXM+Gz+6fM9hOG165ZZVEMyiWMHpt9JhtXhN2Dlmnl6exQ500JScUs5zriJ4oM8758zncp02F7bm2XyUu3Qzw8vLd48fO3Z/IgaiY0qRILMoAhIoUZkO0vx6e6fdpQ6rJ3dbAlxr5zlu7U03rlfx9imAZt7Rcz6LBHzWbl8wC1+cPn368tKSkkoy3ZIxlLRYHqGsvNDlTnNVuS2Tq45pr7TOyW1QgBqZiuk5oFdLKYlEeafdyUKBELvoggseycLtqU3IElBBMItTwaTTxBedesqL8WifujC6dAeupkaWY7dF/3j/3V+3QxsDq0daxEmXmurxyWDPip973jlPkr+o9SHqF7b/6vHF1QYGoASE90uLBf/aa66+r8jh6LVI5Uxuvshh8l1++aX/UszuNB95iSb5lUkbnZ4DtKP2aXNaXFSEYDUjf7VWDIlH1w//eXlZ6f55847+oNN21RMyloAKghmLKrMTb/jOt39jNplCRBhNuztOE4YdHt9F9gPDiQgxUDhaEqAaMzGHzew2oCYq3RE4Hf2Z3Vn2zyLH/nXXfevXFDDBq02kst+bSw63d9XUYpT9bqkt9pEE0gFFEF0LGr/yYaVVx8+dsdQXCVNGfb8epy485UXkqMrkfKShNfuj2+0Yx3LZecj9nHSkB/6QVtjy27l5OfwUo8mAwCGjXHeYchVFPUQtfIJ2mz22ZMnFj+RbDcFAKDQ4aKn6dfQyu7gKgpnJKeOzysvK9p579jlPU2IrmTUoz8kE5ndK9qaSMv1xkHNdPLtYZuJRdsT4sZtN9HQNgIOCBgsKC3zp/hXesfYYYJT3B0Df1S5kTwJ820PBjniVlhbvp5ZtBiOSQ/v3GFZWWqnV6RKcqoxPzEy8BwrgpZ+fDoIt26FPIpxQgEBPwu9hDn7pB7kGDlRV6c4/99z/o/ctJlOfBrP17yj07tX7Z1Xu3Xvq19aRy6P50Y033jJmZPmeSMiH7IMISqCABYUqovdyHl5HN674BOlJnjp54OQXUWWcvLzchrb6Loxjbb/6dZDVi/eKBCgNhmpWjh41Yqs/Bhb6AXBYzfogIpVdKV8m6YTyRiwTDtyWGmBLAFXMrNwHiI/8KEKM+ocCaHk+YBqFHNaO+fOO2gBS+roBIJYh1YUBMdGGkkTtZm18VGlO3f2/u/tyA8paUyoPkS+Rn0PEBPSPAqaAIFVnGD1y5M6BInMqFajVg3NVPQ5zCaBoM2oGgnYJ5bKcDVadtu/DltsYAcK7stKyKirlFId7g5vsuY8B/+t2D4XWG8MGmdYEIgmnYtFEJaf4xzkA0ml40SJNts8ffu+GX5Y6NQM34GCQzmAVBHtp4I6cPvXLu++88/sJmDZIG6Q8oyQecPIT9tdBDxbVYhsxfNiACa+mEoM6gz6iyKU//Kb9NR7qdVtKIAzeWHIZoFjygKmMAJBKWsEiQ0ExxG+bebSystlVbBn03MsvnuOOKvFwzA8fUcasNjOrAEE8MSNRmhD9VK6jPA9Oh827aOG8Nxq9kX73kw61easSaPfSiNoMUtLtCT3y5bLlp7z+9rvnA3149QYKlUZJdn5VChnv64NMLx6PJ6evr9vR9RA2hGxF+FBpbaCtcXO0/EDqptqXXpWAhCR6A/zoFFDWT87zdu8PfUPyok5vBM2f8Nt1eKT8eTIQcoe3/Ds+i8MvbzLp2YiRI6H5OTlHLlVJcbvccJtEmN1i5exJXAuk0lPQFOeeNO8zMDPGTCZz/5iSenXs+7dxVRPsRfkn4lHdvb+/+xuXLbnoP8k4nN1Ep4YdIOUQ9pfgNRod21tRNa4Xb7vLTSM6FHE6lEcm6s1lFHvQ5auoXxjoEqC5GUAenNfrPzRnpp86b9BKyX37KkdLkk4UcE4HwExjyxS7Jj8/waxWMypAjEOJsRwwIhl5cWjKP/QHmgO1iVWHXuR3zMt1Rn/y4x/dbNKoANgb06C/1uLeuJcB12Zurt1n1GnD9/z2zmtuu/mntxfm53gYdoFUCY1rPX26p6N0XyLhjbNtW7fPHCjCCsBlGolEjRL3eohDpUMbKKPTd/1Q0iWonFZdXe2wvrty+1cKR2NSIJrUej1+J6U5CQBsjmLt6gPs9/mRD2hkIOeGCdSKdAiUDkPA3PYdO+ieeSS5cuigDBu0OtRS1LBpU6auGjd2xNaBIJOh2AfVHNrLo2q3GaOBcEK6/rqr75kxc+ayP/zpr/euWrl5DvfPpfhv08KnWwFj96iZyP8odq3CI0HZTcLGSKHem7dunx2JJSUDEZ328xEKJQ2NDU2FnE2kk940f9y2OYp/3vojOcquK7fZVjud9U1pv8V4ZXDtQ66VwXf6+lqt+5ipLFrKXDEJip9tRVaKPEHGdu/ePbEr49Vb5xr1umRlrbvA7fFaDXozC1MljDRNUDxbYDqSUxsoN7DtmSniAPIKCtn4CWORB2hAypQOhOJhtnvPXtaEmokSAE+DVwJtaPDsElcu/g/zMAJifvj9W+wGjZoS0UsDrWqCvSTY9GYtRk3SopeSJx9z5EcvPP/oUVdfe/Ffowk3o6BIVDOCH8DP+RKpvJFWp2UG0IZJeIMzkOJJEyS64oUyFZ2+JDxgYQTAEAUZPZRaoiMj7VOmu0d1b7M/EDWHIt2D2GyJzBdPSjA1jQ+FIiDrF0wcykGldqi+ICUJ8xwtvDhQ8ihbMpvS1G3ePPA06zQZCX5HLLXye2J57fyltKHIWmlHeT+9ndbXpLFJnS9fu6Prth5T/t20sc7mtXjf0uZO+rVa9/EQWba6L2onU3kqGy/akNEiL/zg4vvpUKho//Rz+/YdE5u8IUu25llP2qmsrBobRkBMIBCEVibmIrksE5iXCZhv4ShEEW3ck1bPJAOYXniJKDpPnEsvvz8ADdDCNUALKqLQZ8FghO3ZW8ncbj+INGAk5QWjJawHaAfNxeMRnONjpy486ZWFx0z5tCf3oH63YwmoINjHMwTxMex3v/jpDz/+6J0jfnzjd38eD/uidos+gXQKZkF9PQMWCZ+ricXCQVTUtuBxwnKFqFIivSZ/YiavWDQExn49YnEoAZe+S6TZuFFety9JTvjipV8sPx1R330fmZMmb3rYf3fPvf8kX1DrIwQWGYvFgkrzIlCQlkzaIfMX3ZPyaiUbirqje2ZSs6zSZUe/d/bi31dk3VE7XLatxgbn07WV6/N+tnPNtsaSzhdjJu4x/ffWc0C5TibXUtpKv2br99Lvpb1roVxYqm+dyVG5B16SCOojzWVKF5J4sdpmCBS/AVzk6UjJ4s8/9/y1ffxotnm5P/zxT78HfHMGGLHxUlR1weaSxANtNBARBvn5wfGJSc3vk0jq+SvG8p12NhpRoPlOG9PAHUIR4xW7dzEXTKAS/tbhewY0bQdb97TJR9TPmDa5LgkQHD26vPKXv7zt+prGYL9yqA6EcejNPvTrItibNzaQ23b5A6YcqyVEffSEoobVa9YtWPXV6hPWrFl/7I6duycdOFBdSkn3lJdElE1KUoWst6UbDZXxSx/HODQ9rRWVGJqa3DzkfFhZOdekopEo2PARho5FqbyssPqN118e5bDoIu3JCkTGlBdMW1vePiJL41pUy8iGbIPRqKamKZA/66gTajVGC6Lu5IVRNjeRL4TypwxYYChAIIHFhhYXUo0VI69QHIU4SDZxObBU6V+KsKo5MK9T1OdVAjJsh5vDZMmnfqZ6JIKfyPfb3kPW+lqKnspBX+6zQsTe1rXSB4L8zDz+ou3Y2iRkI4KTZeGkriWv6fxv+cP085Tf0ycd92l30ZBOGj0lg5NGpNUZkBXHdBEkidKY4VeuXVHnNACNZMTLjp0z/cvXX352XjbmWnfb2LqnavzZ5168tr4xaNEaCIcw9zCgRPFHsqIo7yA0xLz8vHjQ79eGUAyaIjvpgSFAVGiP7HZ7eNKkCTvC4QgCfhKJPXv3lLndbgMKSid1KGMWCAQMubm5/vHjx++2mCxhtBsvKirac9FF5z84a+bMpRRQmmPRdVHi3b3rw+97qk+wH8ZcAUC6tMOkjyAibumJ8+d8HArFwNCkTejgq9tbUVve0NhQhIg0btMU/oe0lSrV79TKpqxryfXr1x/181/84u+jygqThYWlUmFxacLl9WusFjuLQLMKBnzM7akr2rZr56xGb2AzykBFsatN2swmnojr8/u0AZzjcrtzsXbqUPE9DIJfDwEgDgRxdnUJbCnkUDioN+n10VfeXzovEka4uOHQ55u0AbvVQjUG3ffde9+5DrvFrU+GIBkBBwSEMJ82B6Nz8GrmHG1e5Jv9NOJkTiLX6pA/kUGNWlXkLYMDfnAM4Ue6Tywd/Piy2OzsonhX3kG80i7ZfK+iMKu4o5ZtN/dRXEvpubi+8lZLEBQ+1Zb31iwPUQC2/Wvx74mGxTXIraz8kSZXOkVLt3nIkLU2rbc8A6a+JGrh6WEKTByorhl+3XdveD6hI+52MnULU7jSdyPqDq5Zv2F2ZXV16fDS0upDhquP3li6bOVCt8dv0emMXC7iDskaIW/Y8LMozxH+1wN/OcNutXqwU9PiWYpoUVmbJM2nAn5BLUVbXl4OMb3wUWhqasonyzT+xt4vgV1uQgsQbMTzFUMaRtBmtzcV5Tt9/7z/LtYUCGtzLP1TSqqPxNzvl2lvk9rvHTucOhCLRLjSQou6WBGkJFCi2zs/rz+oW3LJpRsduflWjz9ckltQovEGYppAMMRyYZoJh/ww5cRdUyaOffP6b11zq80CgIObA5qikXL6oQHqiguLavCTVigJvjkrdqsOekjBaFEPzazHDC97axpLTjn9nK0NTQEnVD0REcr9IsKPqYdvNBDwsjMXn/Hukw/+/rTDaT4M5Xv1BcIGm8UYmb3gpH27qt0jNBh7UlM5BPL/yHQfZclokJ10/IIPH/33vxZho9jnQSGuaFK/aNFZO3buqhhpMjlYAD48E8jnEzzVCSZhvrOJswXzjv78f0/833HdHbPa6oO2otISX/r3D+yvdpisFl9ejjMrVpfu9u1w+Z7qExwAIw1VK0EvvdEY1xvxs5sAGA6HdAGf12S3mmMLTzrhDahsYbPNnqh3ezTVtbXM4/OwuoYGFiI+03jMuXzlijOra2pGxgG+ME3pUccvkJ+b25CXl1+LhF4EwvEjifd92KkeRPh6AGacIiTb53VVbNgNt2C9/+eDD/3CFwg4Y/CJ6BEQpJg5Scckc1vA6wNJsJFduuTcf/ihfQYSYdVq0VWhD8DzCQCpW+eee9YzJlj4LGBNId+ZjvtNScMCEsJ0qjPY2RfLtp+8bu2BWd5Q3wZweZEW8Yd7H7h3776qkTDdsjCsEjo94Bm0brRZS6CfkUiQNTU2sAvPP+8huh8EmXWrqkNrAKS2yoaVelQA7LvJq2qCfSfrPrmS29Vocubkhfbs3Tfuxptvf21vdf3EA7WNLBAiQv4EinNqWEFBLisqzGN5TlvjyOFly2+75ZZvDM93tiCxBgiKrXmagQ2aYBL5UhqAYCE0wlr6u6s3FUYM+Gtvvbfk29/70TM2Zz6PkotwDkWtTCKAn2iUdtpjRpfvfeft58eSackyQLgku3q/6vmHSsAbimrqm5pKFp66eJfH5zchJhLTjDy+8KQhwoRsrWQP0CYNFCwWefW1FyZMH1+wr7dl6YtHJJvWkFy+YeeRl1121XK/36ePw44MH0WKJpQsFBS0EosFUY1l3Nb33351spmiftRj0EpA1QQH7dC13XECQJgupaLikr0jRgzf4GqoYzFUkjcifNuEl8GgA22am1VV7WeV+w/kbtu2a9Zf/vy3PzUF4wZqscHtc9bBF9nkchW7XO4itOX0er35oHHimbzYBUtWu63B5XEXQJvMeBMVTsSlMFIidu2uOOKOO3/9oAYpIPX1jTzoBcHkhwRaxBGW/vXLLvmbVatJYI1RF5khNE/tJn1idGnRgRnTpi7nMaGy/4z70LgbjRySZGyMs2AkYrjjV79+os6bJMdcrx7gr9Vu3lc57tabb38G815PsawST3kQB1WBob4SQNPCee2119xP0d7qMbglkPEiNrhv8/DrvdvnN3+1ZsOxX7vy6nc1BguLJLCDpVQJnqeFqFPa3UIDgw+QB1QsPOnEN++569dfA8G2YXhxXm26xBBMYyQwpJhwq93eQIiEABkd8p+cRoMhiMK8LXwa7Um7qtZVfMU3rvx0x+49E/xhaKV6K6+jptcb0DeCQoSi8nCSBBsxrHT/s8/8Z87oYc6Dh9/oHR53vHTVuvnnXnDhFxqGABmkyRDoIOxKNj6QYVTDwn4/t1qcfOKCF3772zu+UeI0UK2hXjm2VFSOPfPs89e4moJ2o4n4O1sGMREIGpCDS9HVBn3C/cWyz4aXOqzeXumM2mifSUDVBPtM1H17IafNGlx43Lz3zjxz8YvBIDgJeeV2yspFLpNGz9Ml4GoDjZoE/2CSvfnuu4t/cNNPXoxrRSh2XSBuUnpsMJnDdoe9PhyNGAOhgJ2269AqIygW7A8Fgxb4+4yUTqGcHwwHjJF4mM+tQDRkcPmT+mWrtxw1b/6xFVu3754QjcIPpAUZMRIVteBkTCb0MDHpmF5CsnFM5EXedtsNNxUUmJr6Vmrq1fpSAsfMnrFs0amnvK6DdYJSenh0KjGlUJkiEVjJeTWxAWOvvfbGhd/7/vdfr/X6HN6YCCTL5rFi7YajL7v8mmWJpM4OHznnCaWDh6ph46iR9T9K9WhoqGc/+9nPbiYAbPKG9VUHarvlD8xm/9W2ui+BrE+m7ndF/WZvSODmn/zkJmhWcWxgWTQa4dXuiYmFM1oI7xteACWEgb//0ccnnX3eBevW7DgwodCi5XmMyoEAgURufsF+fyDoCAZDdjDSaK1mS6CgoKAW+V+OcCSaAs1oNKE3aI08sk2vM0Zfe+PNr5951rlfAt6QDEGMG3RtIgeG/w+/00pDDDGUKxiLhVhZWX7FCScueN1uNKq103pjUgygNn/9mzu+gzS4qM/n5QEnrQ9K8iA4stjs7P0PPz5p+vQ5DVu37p6unBcIiUzDrhzBQKQFaD393CtXn3f+JUsr9lUVarApS2WGkFVCTqjh9hPMT7gGWElJUdPZZ5/5JF3T5/MYy8uK+jx6tSv3q57bsQRUEBziM8ThdDR+//s33EdmpZL8PGhcYWYFM4XIehMUTzxZmQAJFFA1tfWl5553wYYbbv31f6pcYWe6eBDQYLXYchr84aglHI6bvKEwJXpRIdBGMP/n+PxhDoSwlPJt9PrN+6ZecdX3Pvr5L+58xGTJwTXgVsQiI+ikRP4erTE83Bxh8bGYD8z6Fv+TTzy00GI2DJiackN8ivTb7XkiAam4qHD/A3//+0UmA8ooyfR+Ihkf4EeFbKEZkv/Y7wui6GwOfMgW3eWXX/Pld3/8i6c376weE0MabVcOXzApmS0GDlqrN+yasfiCr391669+83BM0msNMIG6PD6Y6WEpgU+aQLlFfUv0qSg/3/vic88fo5c08YrqgznDSwszcgV0pY/quX0rgS7vovq2e+rVsiWBG39250NPPfnMtcjmJXInoA9Mj6mCTrTbFoS9PBmYNDWsLWC5D5626NSXFp++6Nl5R835oMSm57Vean0ha9Dnd6ACeJ1BS1xsyA7GWoVIT2swFDV9sXzFaU899cwP1q7fMItnU/EMciQiyjt9CnrgeWG00PHACA2PtkPlNPafRx849+xTTnw1W/ettjOwJeCJRmCb0Ce/df2Nb3z80dIzyDzPd0a0SULyqgZO6zDyW0Eiwc2jxCAUwIaOzKRarSZ2+umnvHTmmQufPuGE4153GrQUAt3mgXxZ5OAbInUNIefHn31+zltvvfW19z74cBExVKd4TMkMCuAljQ9pQQBgfEbATNGqNGfB8PLLX/zsBzd884K/Vx1szC0vyVPN9QN7emXUOxUEMxLT4D6pyR8y6nT6xJVXXvP20uVfnIz6EbghEzQ/+OX4rdHDj0AVLDRxhLuRyTSCn8R0HwfBVQx5UoUFecFpUyevnj596rKpUyevNBn1oaDXlzN65OgtDXWN5fsqKqesWbP2pM8+X7qgtr7BRETBIbDkU+g7RdiRX0W4WSjfilOw4WcUO+4grkOaYYRd8bVLH/jDr3/53VAyIpnIcqoeh40EGvxJ82WXXrN87bpN08lUT2kSMdo04SfNQyoyq8WciWE+mgFQPpglDSi7ZDBiHkkhgKIpMHnipLXz5x39wcQJE9fibz/IqJF9EzEigMu+aeOWOR9/unTxVpBzR2JxXRx7Ny00PqJrQykvBLoYBDWfbP6ESR9z1sAtFloUcNDCp/6db1931/e+c+0vfR6302TQ+ArzHO2C7mEzcEPgRlUQHAKDmMktuD0+8B8aY6csOm3jvqqD4yWNFUnAWAhgAk2RdMm0UDyARi7uTT8SWHj4exwyofLxtCgsDAA0szEfBUKPqHDY7ZLf7y/T6KT4tu1bDfX19eCJNINhn84XzPjC14I6aajQ7XY3MbMFSdHYvLu9Newb37jisXvvufsaCoqxaAwqU0YmgzoEzzly3nnwMQcLm9wuzDAAEa/aQPNN7ImUklv8HbIk4DOw7IrP5HNQCBf0R+TDg7EfgEqbuwTmFTzOfF5zujqF345qFVGKPml8mHUEtFQ9niVhLUHEKlVysNv0bN7RMz969JEHFjlR+uVgvdtUUuBs4TMfgkNx2NxS1wzqh41Yht6NOh22gA08pU8/+cQpw8tKdsZRaQL10lI5T827ITJTUiaU/I+z58svvlgQuwuFscOXiBfCQ9m6TRtHuLzeErPVQkHl2jFjxyXyCgoYokl5/TVRg020SysQaZeUs6jnpZ4S4R9873v3/+N3v78qjArzKgAOvbmX6R3trwk5337rpbHjxg5fI0lRovbj1fqE8VwUqSIwFNyuRGRNlnh6h0z8ZNYUgV486Z7YZfFZHOdEUBA3is0Y1eQQrcn01q1UAJrnNDdF3iLOj4VR1d0eWXjSMa//++F/nE6GfboXFQAzHdHBcZ6qCQ6OccpaL33+oCYUSZh/c9d9f3ns8f99U4dioTr4WXh0eqstkVJJm/tJUqTBPHZdgCA/kN+FBYbKHo0ZPSrmdDpRHSYCvtEQq6qo1CDpXtYE5fOxMkFjZHY7cgSjnuT99//m6rPPWvSMXi/FUFQwYdaZVDNo1kZ7cDZU1xiy/e739/35iWee/SbBIGlkKdZyPu/EsqVUuCAgVA6i3VOCrigdiKdaEHDSr9zVKE4WhOLUlPhboetLwh9IJlGq+O5wWH2/+OWtP750yTkPJ+Mh5jCY1bk5OKdUh71WQXAIDmp7t+R2e0kt0wWCUUtpUa774cfeuPbue/7wl3AkYiFjUZyblQQS0o6ZwsW5AZQ78yh/T+Tw0cqiACQ3GxGfIoDQiqoPo0aOjDsdTvKvSKCukfbvPyB53F6++1YWIAQYsOLi/KY//OGuCxbMn/ZJLBoxOM1qOsRhNBU7vVWUGNM98tjjN/3tb//+ldvrN3OrJc08ACIBI0+c4ECmaIByk3LtL8FIT9gpArD4HCaLBpFF4Nc4bJ9xbgkliwdCxchHSDmq+BcJhdiYsaMqUErw4nHjR2yFBRSnxmIFjgI1ZafTkRt8J6ggOPjGrEc9dru8WlS/RokKbTIUC5u2bNs+89e/vesf+yqqhgcCYQeZkgRdFCpmE4sLfnLWMhkIkc0uUhtk/wtFevJkB9ltYwbp9ehRI5NOZ46kA7eoz+9N7tq9S0PsNB4UC87LdQbPPufsZ7//g+/dOqbMXtOjm1G/POQlsGLT7ml3/Oa3D69ZvX4OAE8TjZJVgsyVcoV3zjBDbEiCYYZM7xTEQtFX9LcCgjwKmUyk2MTFAYQxgCCV3qK5TGTYOphBLWjLaTP75807+pM77/jldbmFuTVeT2PuyJJCKoOkHkNUAioIDtGB7ey2fCitZLPoEgebXE5gYvTDjz8577e/vfuP+w9UF9jszrjXHzVYQXCN3D+OfxRcIGxKwi9D+2/S/hA1zt+naE9OeYZPLQiIGTVqFJLeS8CMHffU1tawyopd5okTJmx48J//ONPhtLho7bLy1Uo9VAm0L4FqlxdWSGvgqxXrjr/95794rLLqQBnmHTFtCy2Q+/6Q46oFBy0sFyGkU2gBciB3F0ZTTE+KLCWrJxiOeP5fHNOOfIW80CMF16CSiR3RpfPnHvnZX/74hyUmnT6U69BHDjb57CW5NpUWbYhPUBUEh/gAZ3p7+2vrirGAWGKxhOahhx659bkXX74iHE0aYH5CfUFaY/Q8cdmCyuAwn0IhRMQoGqeQdTJVkZWJ0isQ68JD2sl8OnP6tJr8fOeBxWee9n8nn3j8c6BYs40uK67ItE/qeaoEFAm4QkkNWSxrqmuG/eMf//jNa6++dgkinvU0+YwmC/zaRrC3UOV6M9+QxQB2ir+PAJGKNMdgjTAiFcLr9zAUrgU7W1zKcTg8N934w18uWnTSC6i12ZhvMwdcvoCusb6ucMyokf1W0Fcd+b6TgAqCfSfrjK4EWiaD3W7nNdf68gClmjaMyt9ej9dRWlJSW1PXlL99554py75cecq773104dbtO8cDCJNRnmOFLThcg7QLpwUHJia4+aL4HSWyYZmafeT0Deecc/YTKDWzftr0SV8glyts0wiWjjp3Y06hM8/Vl/emXmvoSaCu3pu7a/fuiWvXrp3/0quvXrVl245JlP4AdpmEB88QVSfRg+U6Fo9LgWBAwuYtZtBp40iBiM+aOeOrk08+6fUTjj/ujfJhw/bm2YwtSLn31xzQDSsuU+tDDL1p0+YdqSA4QAaa6vRRySIy4OTk5NT3V7f8fq85HolrHbk5Leig6sGsv23HzukHa+uGNzY1FTc1uQsQoi5B64sWFOZXlxQVVhaXFFWWlhRXFNktHuq/Oxw2eeBTyct31lg1loQv5tXYdHbVBNpfgzsErhuJxCWD4dA6lo2+gG37tu3TK6qqxnp9Xmd9Q0NxPBHXGc1mP9H6oSh0/agRI3ZMGDduk8Og7/NN5hAQvXoLqgR6VwKoxGBtbGwsQWkhXjcNvot+y+Fsamx0RsLhjJnxI8mYFOWvOF7pAeuMeSMBXVVdZVHvSk9tXZWAKgFVAt2TQL8ttN3r7tD9Fio7WJFr5zEYDDwMGyBoRj5dv2jqJrPZh8oQls6kDVorKQbgE0VGJZRC0iZBLNwil8pusMQQMsM5R9VDlYAqAVUCqgRUCRwiAQCe3oVK7oh6AxF1AonmYbPH48nrT1E1NTV1CoL92T/12qoEVAmoEsiGBFRNMBtS7GEbyF9C6lMS1WMQAYfYklAoZINGGAQ4ZmyS7GEXDvk6fCi9VsE7231V21MloEpAlUB3JaCCYHcll8XvAQSBf0hh12qV4pz0hky4mcULqU2pElAloEpAlUALCaggOAAmBMCPa4LUFQJE+iF+5b/3ywFzaL9pof1yw+pFVQmoEjgsJaCC4AAZduTbxck3SKZRegUCgVzkOimaYZ/3En1wwjepzo8+l7x6QVUCqgT6UgLqIteX0u7gWgR8oHcyAgyTYL1w42cCeYP9GRwj6tK0cSBohyhh1EOVgCoBVQKDXgIqCA6QITSZTF4kzOuRJ2jSoyI2EnxrADbF1D2KGO2HbpI5lJtEAc78+shlNLndbieCdtSE934YEPWSqgRUCWRfAioIZl+m3WoRwBIgHyBAkKcmUJAMgDGAXEGnHCTTYbs+n48n2WfjANjZSBOVTbSwyuqSiFg1wUSbB4AOo18qCGZD0GobqgRUCfS7BFQQ7PchaO4AACYIrU9HFGrwDxpAn1YFEORUap11EwBqpvzCzs7r7HPSOgHENgAdUZ/x4ByAnx0gWwTt9CAS+kOdtaF+rkpAlYAqgcEiARUEB8hIkS+Q2GIIBClalLQw6hqZSfF3pyBIAEo+xZ7eDgDQDM0vjGtG0WaUNFMAshEAeAB/qxpgTwWsfl+VgCqBASUBFQQH1HBQaT6eH5h+dAqAdDKAK0JaG7TBbjO9AER1BMI4QpSyAQ3QCQ2wkEy1eKms+gNsrqjdUSWgSqDnElBBsOcyzFoL5P+DBsjBhnyCCIwpoUjRTC5AmiRpcPDdOQi8MvmOcg7MrxIBIGmS1Ab1gdpBEEwpNMBq9EFlj+mKQNVzVQmoEhg0ElBBcAANFUWH4uCAQ35BAJGVTJKZdpEAzGaz1eG7BiS7lxP9GrXT0fepagW0Rwd+WilNg8yw+NtOhN75+fm7YY4NZnp99TxVAqoEVAkMNgmo+V4DaMRIE0PgSSMlzRM4kT+wK90jbZDwE686RHjaKagGIGrG70Focy3qA0LLLJJNnpyz1Gg0ku8xBvCzkR/QarXWwwSq1l3rygCo56oSUCUw6CSgguAAGzJoc5Q0ryHtjHxz3ekeRXgC2PwAMZ+s1dmrq6uHoy2Fj5SqVbig+cXJlwgA9JAGCKzMocAYAGAd3uMlndRDlYAqAVUCQ1kCKggOoNElcyR1R8kXhD/O1Z3uyRqhElDjAah6YSY9mAaCOEVEn5L2Scn50BpzKQoU2qdLBcDuSF39jioBVQKDUQKqT3AAjpqcKO+FZpabje5Rsrv8Ip8fvVKRnuRHRARoPl4FBIAwx7Ywm2bj+mobqgRUCagSGKgSUEFwYI1MKg9P9g1aKFGdIjd7oZtUvkmi4BmALZROx341CrQXpKw2qUpAlYAqAVUCmUkAJkkDSLNT6Q1knqypqZmAVAXOIZrtA9pfbmNj4zD4AXsDZLPdXbU9VQKqBFQJZF0CqiaYdZF2v0EEpEQoWR2Rm7x6BPF02u32OoCU3eVylXa/5UO/SQAIDdBJGqeaCJ9Nyapt9YUEYCGxIg2oCM9KTl9cT73G0JVAf1QnGLrSzMKdUeI61RKkIBmYJz1EoQZzqB4aYhneiyHApRZ+vIxzB9vrUl1d3Shwk1YCaPutZmEWxKU2cZhIAFHOJjmFx0qsSPidNoxa8m/Tho42jHh2tDDxc/Ykp9NZgwAvlebvMJkfPblNFQR7Ir1e/C492Gg+SQ83PdR4uLXY9Q7Dwx+iFAa81yMaM4Dg6Nzc3L0UMJPJbQCEtdBKVcDMRFjqOb0iAcqfhfZXRvmzBH74m4AxDH92C1YlPDtmSvWBhSOETaPKdtQrozF0GlV9QQN0LEkLRNCKHeBTDPCpxa6WHuY9AMIyaIr50A4buguEWCSc+H4gUwCEX3IErl2Pl7qgDND5MlS7RYxHROZAgAeXQB49C5TWQ+8B4BpJG8SGrpwI5CmIDHJI4DuuvLy8RgAmmUrVOTtUJ0eW7kvVBLMkyN5oRqZOs1NpI3r4yQyKh14DYCzFTjhC/sLuXBcBODY5Sb5DRhgKmCHWGQCwD4tMSDWddkfa6nd6IgGZ1F1LwWFyeS+e20oASC4DzONDrBPYKDoAkgmc7wdAWsrLy/096YP63aEtATUwZgCPL/kDSSOkXD7sakcqXcUCUIOHXEe5fT3ofqdmUOysC7DQMNJCVQDsgaTVr3ZbAqTxYdNXQETyMG/yepsw49cQp25bAEgXgnnUg3kbwfOhUwGw26JXv6hKYOBIgBz+lMtXW1s7noJkqGd4j2tpAEeiQ+vSgba0CC7QdvQlmJ5KsPsu6oyAu0sXVk9WJdBFCUCTG4F57qDAGIBhLgWOURPYoFE6kQ5zNKONfENDg6GLl1ZPP0wkoJpDB8lAwzRpIjMQfCPYFJtdFClHu2RilcEO2Us8o6Q5ZnI7+I6ONMm2qsRTRXssMHnka6EySpm2mcl11XNUCWQqAZqHmO8EXNxiQVVNEM1M/kAJz4IWYJiAO6DT+Q6QNOM7JlREaaqvry/AQb5t9VAlkJJARrsoVV79LwGKgiOzKAUIkAZIIEh+PSwENVggnAiiyclEa6NFBABoBMi1WYUeJiRKzJdUAOz/MT9ceyBXUTETWQRVNMGmLAcbNhcRy0MzHI7fY5kAIFk7kCoRxPl4ZPxGAkDM724XnT5cx2Oo37cKgoNkhAF6SQqGwW64igi2YRqdQIsEdZ9SJgBqhgyBsIX2TxUnFBEcPHhwKq4TxaLRQAE4g0Q0ajeHmATI4kHmfjlC2gZLR4DKelHR6dLS0or2bheugRYmT/iyedAMcfGiTQsBIFlS8Jxwl4J6qBIgCagL3SCaB1RmidIiCKTIBApTzzACKwoWQCScGw+4nTQ52jG3d1vUBhXdpUhTnEfJxtzchB32RGoX7TRRVQm8epSHOIjEqnZ1gEmAzKCUCwhKv3JYJGqxyXNRFym1p6OuAvQkMnnSOXgWyGyqoReelbicWB+n6inkRhhgt6x2px8loE6GfhR+dy9NbBlYGBooYZiAkIiwqTYglUvCAmJHEMAUPPxt7nahQU6kk7FI2AgAaceNHfRoqj2InTe12WM2mu7el/o9VQKy5hajHFkAIVU0SbdcdJjzRxYSimbGd7VkQkWqRDEFjsHCMQobPEqo19A5rdpUha5KQJXAYJUA+QApfwqvEmLIoPsgUxK0uql4+EfJf0vkBwTo6Q4cOHAU3h9BEabkW6QdNxaKUlowlKi7wSoLtd9DRwJkokfkZx5ZNCoqKqYqd4Z53mGEJ8ylFmzyyiorK8fjd6usEaY2+vh+Hua9uvEfOlMlK3eiMsZkRYz904jMK9pAXKNUFR69CFLwDH5uRIrDGCwIMwByXkoqRpBAPnbWDRRII5uEkkTDRtofUbFRGgZhaP/ciXpVVQItJUAmSzLdAwRTmiCCXDokdyBKNTLll5SU7MRPJQ+WTKI6ii7F3G9U5axKoLUE1F3RIJ8T5COkRGIi16akYiWgBQE0u+EjcVNQABXShW9lH15VADs9/Y1zS2ACdZHJifx/aiWJQT4RhlD3yUJBfm66JUR07iXftRL5DEBT8gRT4AiA0+/evZuCuhIAylrMb8qj1VBuIbWDuV4IAGwaQiJSbyWLElA1wSwKs7+aot0vzDxuPPQ2Sp/AAtBEKRRYEPa20acwAg5G4jtu+BVbEA/3V//V66oSaC0B8nPTewSI8Od5FXM9Nmtcw8PfNpj9rbShg9XDAJBz4VWPTV2IzKlUMRqnSXgecvAcVKsSViXQngRUTXCIzA0CQmh+Xlof8ODnAhDNtBgoL3lB0WPhGEdmUSXibojcvnobQ0gCFORFJny6JQJDzGUDpQil3yIAz1tYWHiQAl4o0AvWEG8aAJIf3EiWEQSL1ZNZdQiJR72VLEtAZYzJskD7uzlKNJYjRin9gfKjbPLO2YzFwA3exV20S8aOWl0Y+nuw1Ou3KwGiSiPTPhG3E2UgNnh+yhdsXfmE0iYIMLGpow0gaY46MoEiVWIUWGL24HvkI1cPVQKqBA5HCchRoVSGhmv8lDN1OMpBvefBJwGKZsZmrgCmzkLqPYK8RpDvL/1OcI4Wnxcp75HJlOjWEB06bfDdsdpjVQKqBFQJqBJQJdBKAgRyiPrkQAdfdnH6Ro42d9XV1ZPIXEov5AdaUPtyrCpEVQJdkYCqGXRFWuq5qgRUCfSpBKhmJpn1SSOEybOJ0noAeDygj9IoFPYXYkEiHyCCYPb3aQfViw16Cag+wUE/hOoNqBIY+hIAC1I5AR5SJipgJi2UyeTNVPCZKNGIaBtBMLXwIaq+7qE/HbJ6hyoIZlWcamOqBFQJ9IYEyP+HYJlCCoJBJGgTTJ8OCpohhRDvUxRoDaJD1SCY3hD+EG9TBcEhPsDq7akSGEoSgM/vCLl+JpUVMxP3LVIl9g6le1TvpW8loIJg38pbvZoqAVUCPZQApU9QMWmqsUlaoaoB9lCg6tdVCagSUCWgSmBwSIDSfpSeyilA6kZ+cAyd2ktVAqoEVAmoElAloEpAlYAqAVUCqgRUCagSUCWgSkCVgCoBVQKqBFQJqBJQJaBKQJWAKgFVAqoEVAmoElAloEpAlYAqAVUCqgRUCagSUCWgSkCVgCoBVQKqBFQJqBJQJaBKQJWAKgFVAqoEVAmoElAloEpAlUDWJfD/TpvOhsujCkkAAAAASUVORK5CYII=;" parent="1" vertex="1">
          <mxGeometry x="356.97" y="28" width="114.07" height="110" as="geometry" />
        </mxCell>
      </root>
    </mxGraphModel>
  </diagram>
</mxfile>
